<svg width="40" height="40" viewBox="0 0 40 40" fill="none" xmlns="http://www.w3.org/2000/svg">
    <path class="violet" fill-rule="evenodd" clip-rule="evenodd"
        d="M20 29.4775C15.55 29.46 11.1825 28.4925 9.545 26.875C5.4725 22.865 15.37 7.4925 20.005 7.47C24.6275 7.4925 34.5275 22.865 30.455 26.875C28.8175 28.49 24.4525 29.4575 20 29.4775ZM20 40C31.045 40 40 31.045 40 20C40 8.955 31.045 0 20 0C8.955 0 0 8.955 0 20C0 31.045 8.955 40 20 40Z"
        fill="#7137FF"></path>
    <path class="white" fill-rule="evenodd" clip-rule="evenodd"
        d="M20 29.4775C15.55 29.46 11.1825 28.4925 9.54504 26.875C5.47254 22.865 15.37 7.49247 20.005 7.46997C24.6275 7.49247 34.5275 22.865 30.455 26.875C28.8175 28.49 24.4525 29.4575 20 29.4775Z"
        fill="white"></path>
</svg>