<svg width="19" height="22" viewBox="0 0 19 22" fill="none" xmlns="http://www.w3.org/2000/svg">
<path d="M14.128 9.36004C14.128 12.3651 11.7887 13.9267 9.08947 15.6756C6.93008 14.121 4.0509 12.3651 4.0509 9.36004C4.0509 6.35501 6.30675 3.91895 9.08947 3.91895C11.8722 3.91895 14.128 6.35501 14.128 9.36004Z" fill="#F9EF9D"/>
<rect x="6.8501" y="17.355" width="4.47873" height="4.47873" rx="2.23936" fill="#F9EF9D"/>
<line x1="3.84466" y1="3.56553" x2="5.28372" y2="5.00571" stroke="#F2EAA0"/>
<line x1="14.464" y1="11.3863" x2="15.8048" y2="12.6027" stroke="#F2EAA0"/>
<line x1="4.32953" y1="11.5412" x2="2.73386" y2="13.2207" stroke="#F2EAA0"/>
<line x1="14.2103" y1="3.67922" x2="12.8326" y2="5.33249" stroke="#F2EAA0"/>
<line x1="9.02954" y1="1.11961" x2="9.02961" y2="3.35898" stroke="#F2EAA0"/>
<line x1="14.6879" y1="7.89771" x2="16.9272" y2="7.89771" stroke="#F2EAA0"/>
<line x1="0.691895" y1="7.89771" x2="2.93126" y2="7.89771" stroke="#F2EAA0"/>
<line x1="14.7011" y1="9.90214" x2="18.3542" y2="10.7918" stroke="#F2EAA0"/>
<line x1="3.77022" y1="10.3692" x2="0.119867" y2="11.2703" stroke="#F2EAA0"/>
<line x1="0.754815" y1="4.96759" x2="4.04247" y2="6.79196" stroke="#F2EAA0"/>
<line x1="17.8449" y1="5.51113" x2="14.2914" y2="6.73976" stroke="#F2EAA0"/>
<line x1="12.4183" y1="0.156177" x2="11.2439" y2="3.72797" stroke="#F2EAA0"/>
<line x1="5.64272" y1="0.395022" x2="6.88193" y2="3.94486" stroke="#F2EAA0"/>
<path d="M9.08954 21.8337L5.69568 13.0162H12.4834L9.08954 21.8337Z" fill="#F9EF9D"/>
</svg>
