<svg width="78" height="108" viewBox="0 0 78 108" fill="none" xmlns="http://www.w3.org/2000/svg">
<path d="M31.142 1.62282C25.2218 3.23742 18.285 8.20082 14.996 13.1044C11.1688 18.8452 10.5708 21.4166 10.212 33.7952L9.91298 45.0974L7.64058 45.7552C4.65058 46.5924 2.01938 49.2834 1.18218 52.2136C0.823384 53.6488 0.643984 61.9012 0.763584 74.3994L0.942984 94.253L2.61738 97.6616C4.65058 101.788 8.05918 104.897 12.4246 106.512C15.4744 107.648 17.089 107.708 39.514 107.708C67.5602 107.708 67.7396 107.648 72.8824 102.087C77.7262 96.7646 77.9056 95.8078 77.6664 72.0074L77.487 51.6754L75.992 49.5824C74.6166 47.4894 71.507 45.516 69.713 45.516C68.9356 45.516 68.816 44.021 68.816 36.3666C68.816 22.6126 66.6034 15.9748 59.7862 9.09782C52.4906 1.80222 41.308 -1.12798 31.142 1.62282ZM47.6468 11.0712C52.1318 13.1044 55.959 16.9316 58.052 21.297C59.846 25.0046 59.846 25.184 59.846 34.9912V44.918H39.1552H18.5242L18.7036 34.5726C18.883 24.287 18.883 24.2272 20.8564 20.2804C23.5474 14.7788 28.0922 11.0712 33.833 9.57622C37.0024 8.73902 44.2382 9.51642 47.6468 11.0712ZM42.504 60.8248C48.185 63.0972 49.5006 70.5722 44.896 74.3994L43.2216 75.8346L44.1784 82.5322C45.2548 90.4856 45.3744 90.366 39.4542 90.366C33.9526 90.366 33.833 90.1866 34.9692 82.2332L35.8662 75.8346L34.3712 74.6984C29.5872 70.8712 30.3646 63.6952 35.926 60.9444C38.4974 59.6288 39.4542 59.6288 42.504 60.8248Z" fill="black"/>
</svg>
