<svg id="svg" version="1.1" xmlns="http://www.w3.org/2000/svg" xmlns:xlink="http://www.w3.org/1999/xlink" width="400"
    height="400" viewBox="0, 0, 400,400">
    <g id="svgg">
        <path id="path1"
            d="M189.400 0.368 C 188.960 0.542,186.260 0.898,183.400 1.158 C 169.036 2.467,162.406 3.599,149.000 7.036 C 144.024 8.311,135.888 10.816,134.200 11.592 C 133.760 11.794,132.590 12.222,131.600 12.542 C 124.959 14.691,111.887 20.600,104.200 24.929 C 102.880 25.672,100.900 26.783,99.800 27.398 C 72.703 42.536,42.130 72.994,27.727 99.200 C 27.062 100.410,26.161 102.030,25.725 102.800 C 23.409 106.891,19.879 113.808,18.580 116.800 C 17.769 118.670,16.776 120.935,16.373 121.832 C 14.068 126.976,10.103 138.020,8.415 144.000 C 8.136 144.990,7.765 146.250,7.592 146.800 C 7.418 147.350,7.068 148.700,6.813 149.800 C 6.558 150.900,6.187 152.430,5.987 153.200 C 5.335 155.722,4.102 161.351,3.666 163.800 C 2.472 170.504,2.231 172.402,1.182 183.400 C 0.930 186.040,0.561 188.722,0.362 189.360 C -0.115 190.888,-0.107 210.610,0.371 211.505 C 0.574 211.887,0.944 214.630,1.192 217.600 C 1.682 223.472,2.216 228.103,2.816 231.700 C 3.716 237.092,4.074 239.092,4.407 240.600 C 4.602 241.480,4.958 243.100,5.199 244.200 C 6.633 250.740,9.574 261.076,11.575 266.600 C 12.053 267.920,12.725 269.810,13.069 270.800 C 15.012 276.390,21.945 291.306,25.525 297.600 C 30.211 305.837,36.060 314.768,40.985 321.205 C 47.332 329.501,52.759 335.651,60.174 342.952 C 67.154 349.824,74.582 356.177,81.800 361.449 C 88.811 366.571,95.425 370.879,101.200 374.087 C 102.190 374.637,103.720 375.497,104.600 375.998 C 107.933 377.895,117.257 382.442,121.400 384.191 C 122.060 384.470,123.680 385.159,125.000 385.723 C 126.320 386.287,128.300 387.039,129.400 387.394 C 130.500 387.750,131.760 388.211,132.200 388.419 C 133.419 388.995,145.316 392.800,145.899 392.800 C 146.180 392.800,146.723 392.977,147.105 393.193 C 147.487 393.409,149.060 393.855,150.600 394.182 C 152.140 394.510,155.020 395.148,157.000 395.600 C 162.965 396.962,171.004 398.290,179.400 399.302 C 184.767 399.948,216.411 399.937,221.600 399.287 C 228.002 398.484,230.897 398.072,233.400 397.607 C 234.720 397.361,236.790 397.009,238.000 396.824 C 240.287 396.475,242.517 395.969,250.600 393.965 C 255.279 392.804,267.801 388.954,268.600 388.429 C 268.820 388.285,269.720 387.937,270.600 387.657 C 272.237 387.135,272.759 386.933,275.200 385.874 C 275.970 385.541,277.860 384.770,279.400 384.163 C 283.288 382.630,295.348 376.538,300.400 373.555 C 305.547 370.517,312.719 366.014,313.341 365.430 C 313.593 365.194,314.970 364.203,316.400 363.230 C 332.242 352.442,352.347 332.335,363.225 316.400 C 364.201 314.970,365.112 313.710,365.249 313.600 C 365.916 313.066,372.291 302.765,375.276 297.400 C 377.802 292.859,382.948 282.423,384.152 279.400 C 384.766 277.860,385.502 276.060,385.788 275.400 C 386.075 274.740,386.707 273.120,387.193 271.800 C 387.680 270.480,388.231 269.040,388.418 268.600 C 388.922 267.410,390.962 261.150,392.326 256.600 C 393.946 251.200,396.287 241.521,396.824 238.000 C 397.009 236.790,397.359 234.720,397.603 233.400 C 398.139 230.492,398.715 226.556,399.270 222.000 C 399.880 216.993,400.161 186.127,399.633 182.100 C 399.395 180.285,399.009 177.225,398.776 175.300 C 398.543 173.375,398.185 170.810,397.981 169.600 C 395.567 155.289,394.168 149.522,390.174 137.400 C 387.748 130.038,386.427 126.482,384.082 121.009 C 381.547 115.093,374.401 101.449,371.342 96.688 C 370.384 95.196,369.600 93.904,369.600 93.817 C 369.600 93.372,363.028 83.831,359.331 78.909 C 354.025 71.846,342.488 59.229,335.798 53.174 C 331.608 49.381,327.520 45.827,326.396 45.000 C 325.799 44.560,323.080 42.505,320.355 40.433 C 298.670 23.945,270.892 10.948,245.800 5.550 C 244.700 5.313,243.080 4.957,242.200 4.759 C 235.113 3.161,228.581 2.224,217.400 1.200 C 214.760 0.959,212.047 0.590,211.372 0.381 C 209.902 -0.075,190.546 -0.086,189.400 0.368 M216.000 59.144 C 217.210 59.382,219.730 59.767,221.600 60.000 C 223.470 60.232,226.350 60.590,228.000 60.794 C 232.210 61.316,235.482 61.822,240.800 62.776 C 246.918 63.873,247.203 63.934,251.600 65.101 C 264.527 68.531,270.381 70.561,284.200 76.403 C 289.627 78.697,303.409 85.962,307.072 88.460 C 307.992 89.087,308.844 89.600,308.965 89.600 C 309.435 89.600,321.070 97.704,325.600 101.186 C 336.129 109.281,352.220 124.411,355.858 129.639 C 359.047 134.222,359.782 136.165,359.934 140.410 C 360.417 153.991,347.919 164.011,336.996 158.798 C 334.066 157.400,332.532 156.016,324.229 147.274 C 316.181 138.801,309.451 132.940,300.000 126.172 C 290.730 119.533,278.039 112.343,268.400 108.268 C 264.619 106.670,263.426 106.202,258.600 104.427 C 251.193 101.702,244.719 99.723,240.200 98.803 C 238.880 98.534,237.350 98.169,236.800 97.991 C 236.250 97.813,235.170 97.552,234.400 97.410 C 227.281 96.101,225.222 95.798,218.000 94.999 C 211.697 94.302,191.857 94.178,186.227 94.802 C 173.522 96.208,166.240 97.438,157.856 99.593 C 142.793 103.465,122.328 111.748,114.483 117.146 C 113.887 117.556,112.020 118.729,110.334 119.753 C 103.992 123.603,97.404 128.467,88.471 135.891 C 87.222 136.930,81.852 142.137,76.537 147.463 C 64.987 159.037,63.546 159.982,57.428 159.994 C 49.861 160.008,44.626 155.545,41.362 146.292 C 40.499 143.845,40.618 137.921,41.567 136.084 C 43.213 132.897,46.359 127.902,47.610 126.487 C 59.809 112.694,77.332 98.296,94.200 88.208 C 102.816 83.055,115.400 76.732,122.828 73.824 C 125.563 72.753,127.980 71.752,128.200 71.598 C 128.645 71.288,142.216 66.926,146.600 65.684 C 149.353 64.904,153.752 63.908,162.600 62.060 C 164.686 61.625,167.851 61.149,173.600 60.406 C 175.470 60.164,178.350 59.788,180.000 59.569 C 181.650 59.350,184.350 59.015,186.000 58.825 C 190.051 58.357,213.248 58.604,216.000 59.144 M210.400 130.039 C 224.995 131.423,241.892 135.263,250.600 139.174 C 251.480 139.569,252.920 140.138,253.800 140.439 C 274.200 147.404,307.203 175.043,309.853 187.381 C 312.266 198.620,303.983 211.200,294.170 211.200 C 288.589 211.200,285.196 209.000,277.824 200.600 C 269.856 191.520,260.138 183.412,251.600 178.718 C 245.967 175.622,242.617 173.916,240.653 173.145 C 239.524 172.701,238.060 172.092,237.400 171.792 C 223.868 165.645,195.744 163.275,180.200 166.972 C 179.760 167.076,178.140 167.449,176.600 167.800 C 170.855 169.110,163.120 171.646,159.067 173.549 C 157.710 174.185,155.880 175.036,155.000 175.438 C 143.922 180.504,134.598 188.039,118.400 205.018 C 110.625 213.167,103.812 213.570,96.658 206.304 C 88.398 197.913,88.278 186.523,96.352 177.205 C 109.293 162.268,129.606 147.189,144.910 141.157 C 146.052 140.707,147.889 139.934,148.993 139.440 C 151.869 138.153,152.796 137.827,158.600 136.064 C 170.599 132.419,177.311 131.089,189.200 129.999 C 197.217 129.263,202.324 129.273,210.400 130.039 M212.200 201.177 C 213.300 201.380,215.460 201.761,217.000 202.021 C 237.141 205.429,262.306 221.562,265.131 232.877 C 267.889 243.922,259.159 256.800,248.916 256.800 C 244.664 256.800,241.773 255.314,235.595 249.953 C 229.172 244.380,225.161 241.780,219.600 239.585 C 206.880 234.566,189.518 234.964,179.000 240.516 C 173.247 243.552,170.482 245.418,165.817 249.413 C 156.600 257.306,151.713 258.529,144.819 254.669 C 136.311 249.907,132.375 236.748,137.140 229.000 C 140.757 223.118,151.756 214.545,162.874 208.942 C 165.882 207.425,174.456 204.003,175.269 203.994 C 175.561 203.991,176.560 203.724,177.489 203.400 C 184.725 200.879,203.952 199.647,212.200 201.177 M206.694 271.661 C 220.044 274.889,230.720 284.827,233.917 297.000 C 234.148 297.880,234.531 299.341,234.768 300.246 C 235.394 302.634,235.275 310.160,234.563 313.200 C 234.228 314.630,233.852 316.250,233.729 316.800 C 231.193 328.064,219.495 338.668,206.373 341.598 C 203.659 342.203,193.386 341.989,192.200 341.301 C 191.760 341.046,190.243 340.446,188.830 339.968 C 169.352 333.376,160.040 310.110,169.229 291.000 C 173.630 281.846,182.488 274.477,191.600 272.388 C 192.810 272.111,194.340 271.747,195.000 271.578 C 196.886 271.097,204.589 271.152,206.694 271.661 "
            stroke="none" fill="#62ac45" fill-rule="evenodd"></path>
    </g>
</svg>