<svg width="24" height="32" viewBox="0 0 24 32" fill="none" xmlns="http://www.w3.org/2000/svg">
<g filter="url(#filter0_i_370_3997)">
<ellipse cx="12" cy="11.5144" rx="12" ry="11.5144" fill="#F0F0F0"/>
</g>
<g filter="url(#filter1_ii_370_3997)">
<path d="M22.5554 24.3396C22.8439 24.5634 22.9997 24.9109 22.9998 25.4275C22.9998 28.3421 18.0748 32.0006 11.9998 32.0007C5.92462 32.0007 0.999756 28.3421 0.999756 25.4275C0.999758 25.2078 1.02743 25.0184 1.08179 24.8562C1.07996 24.8358 1.08314 24.8144 1.09546 24.7947L1.1228 24.7488C1.16668 24.6496 1.22267 24.5623 1.28882 24.4851L3.99976 20.1501C10.6167 23.2693 13.959 22.9597 19.4998 20.1501L22.5554 24.3396Z" fill="#F0F0F0"/>
</g>
<g filter="url(#filter2_i_370_3997)">
<path d="M15.5547 10.075C15.0547 13.9132 16.0547 18.7108 11.0549 18.7108C8.56966 18.7108 5.55473 16.312 6.05494 11.0346C6.05494 8.11992 7.55494 2.87854 12.0549 2.87854C14.5402 2.87854 17.0546 4.7976 15.5547 10.075Z" fill="#C9C9C9"/>
</g>
<path d="M15.5547 10.075C15.0547 13.9132 16.0547 18.7108 11.0549 18.7108C8.56966 18.7108 5.55473 16.312 6.05494 11.0346C6.05494 8.11992 7.55494 2.87854 12.0549 2.87854C14.5402 2.87854 17.0546 4.7976 15.5547 10.075Z" stroke="#A3A3A3" stroke-width="0.5"/>
<path d="M10.5 7.67627C12.9852 7.67627 14.9999 9.39453 15 11.5142C15 13.6339 12.9853 15.3521 10.5 15.3521C8.01472 15.3521 6 13.6339 6 11.5142C6.00015 9.39453 8.01481 7.67627 10.5 7.67627ZM10.5 9.59521C9.25745 9.59521 8.25015 10.4544 8.25 11.5142C8.25 12.574 9.25736 13.4331 10.5 13.4331C11.7426 13.4331 12.75 12.574 12.75 11.5142C12.7498 10.4544 11.7425 9.59521 10.5 9.59521Z" fill="#A3A3A3"/>
<g filter="url(#filter3_f_370_3997)">
<path d="M15 11.5144C15 13.6341 12.9853 15.3525 10.5 15.3525C8.01472 15.3525 6 13.6341 6 11.5144C6 9.39466 8.01472 7.67627 10.5 7.67627C12.9853 7.67627 15 9.39466 15 11.5144Z" fill="black" fill-opacity="0.25"/>
<path d="M10.5 7.72607C12.9653 7.72607 14.95 9.42931 14.9502 11.5142C14.9502 13.5991 12.9654 15.3022 10.5 15.3022C8.03458 15.3022 6.0498 13.5991 6.0498 11.5142C6.04995 9.42931 8.03467 7.72607 10.5 7.72607Z" stroke="black" stroke-width="0.1"/>
</g>
<defs>
<filter id="filter0_i_370_3997" x="0" y="0" width="24" height="23.0288" filterUnits="userSpaceOnUse" color-interpolation-filters="sRGB">
<feFlood flood-opacity="0" result="BackgroundImageFix"/>
<feBlend mode="normal" in="SourceGraphic" in2="BackgroundImageFix" result="shape"/>
<feColorMatrix in="SourceAlpha" type="matrix" values="0 0 0 0 0 0 0 0 0 0 0 0 0 0 0 0 0 0 127 0" result="hardAlpha"/>
<feOffset/>
<feGaussianBlur stdDeviation="0.55"/>
<feComposite in2="hardAlpha" operator="arithmetic" k2="-1" k3="1"/>
<feColorMatrix type="matrix" values="0 0 0 0 0 0 0 0 0 0 0 0 0 0 0 0 0 0 0.25 0"/>
<feBlend mode="normal" in2="shape" result="effect1_innerShadow_370_3997"/>
</filter>
<filter id="filter1_ii_370_3997" x="0.999756" y="20.1501" width="22" height="11.8506" filterUnits="userSpaceOnUse" color-interpolation-filters="sRGB">
<feFlood flood-opacity="0" result="BackgroundImageFix"/>
<feBlend mode="normal" in="SourceGraphic" in2="BackgroundImageFix" result="shape"/>
<feColorMatrix in="SourceAlpha" type="matrix" values="0 0 0 0 0 0 0 0 0 0 0 0 0 0 0 0 0 0 127 0" result="hardAlpha"/>
<feOffset dy="-1"/>
<feComposite in2="hardAlpha" operator="arithmetic" k2="-1" k3="1"/>
<feColorMatrix type="matrix" values="0 0 0 0 0 0 0 0 0 0 0 0 0 0 0 0 0 0 0.25 0"/>
<feBlend mode="normal" in2="shape" result="effect1_innerShadow_370_3997"/>
<feColorMatrix in="SourceAlpha" type="matrix" values="0 0 0 0 0 0 0 0 0 0 0 0 0 0 0 0 0 0 127 0" result="hardAlpha"/>
<feOffset/>
<feGaussianBlur stdDeviation="0.55"/>
<feComposite in2="hardAlpha" operator="arithmetic" k2="-1" k3="1"/>
<feColorMatrix type="matrix" values="0 0 0 0 0 0 0 0 0 0 0 0 0 0 0 0 0 0 0.25 0"/>
<feBlend mode="normal" in2="effect1_innerShadow_370_3997" result="effect2_innerShadow_370_3997"/>
</filter>
<filter id="filter2_i_370_3997" x="5.75024" y="2.62854" width="10.5056" height="16.3323" filterUnits="userSpaceOnUse" color-interpolation-filters="sRGB">
<feFlood flood-opacity="0" result="BackgroundImageFix"/>
<feBlend mode="normal" in="SourceGraphic" in2="BackgroundImageFix" result="shape"/>
<feColorMatrix in="SourceAlpha" type="matrix" values="0 0 0 0 0 0 0 0 0 0 0 0 0 0 0 0 0 0 127 0" result="hardAlpha"/>
<feOffset dy="2.5"/>
<feComposite in2="hardAlpha" operator="arithmetic" k2="-1" k3="1"/>
<feColorMatrix type="matrix" values="0 0 0 0 0 0 0 0 0 0 0 0 0 0 0 0 0 0 0.25 0"/>
<feBlend mode="normal" in2="shape" result="effect1_innerShadow_370_3997"/>
</filter>
<filter id="filter3_f_370_3997" x="3.8" y="5.47627" width="13.4" height="12.0763" filterUnits="userSpaceOnUse" color-interpolation-filters="sRGB">
<feFlood flood-opacity="0" result="BackgroundImageFix"/>
<feBlend mode="normal" in="SourceGraphic" in2="BackgroundImageFix" result="shape"/>
<feGaussianBlur stdDeviation="1.1" result="effect1_foregroundBlur_370_3997"/>
</filter>
</defs>
</svg>
