<svg width="95" height="101" viewBox="0 0 95 101" fill="none" xmlns="http://www.w3.org/2000/svg">
<g filter="url(#filter0_i_858_2146)">
<path d="M22.25 3L63.0886 17.1065C63.5168 17.2544 63.9826 17.2525 64.4096 17.1012L71.75 14.5V96.114C71.75 96.9477 71.2329 97.6939 70.4522 97.9867L64.5612 100.196C64.0436 100.39 63.4688 100.361 62.9732 100.116L23.3642 80.5504C22.6819 80.2134 22.25 79.5183 22.25 78.7572V3Z" fill="#ECECEC"/>
</g>
<g filter="url(#filter1_i_858_2146)">
<path d="M24.3373 38L25.4246 38.6101L24.4776 40.2041C24.3858 40.3587 24.3373 40.5351 24.3373 40.7149V48.5912C24.3373 49.1435 24.785 49.5912 25.3373 49.5912H25.4246V50.8113L23.7607 49.8777C23.4453 49.7007 23.25 49.3673 23.25 49.0056V40.1048C23.25 39.9251 23.2985 39.7486 23.3903 39.5941L24.3373 38Z" fill="#D9D9D9"/>
</g>
<path d="M25.3555 38.6279L24.4346 40.1787C24.3382 40.3409 24.2871 40.5261 24.2871 40.7148V48.5908C24.2871 49.1706 24.7572 49.6414 25.3369 49.6416H25.375V50.7256L23.7852 49.834C23.4856 49.6659 23.2999 49.3493 23.2998 49.0059V40.1045C23.2999 39.9338 23.3464 39.7659 23.4336 39.6191L24.3545 38.0674L25.3555 38.6279Z" stroke="#ABABAB" stroke-width="0.1"/>
<path d="M28.4629 0.535156C29.2962 0.354464 30.1628 0.401269 30.9717 0.670898L71.501 14.1807C71.5759 14.2057 71.6443 14.2478 71.7002 14.3037C71.9683 14.5721 71.8593 15.0289 71.499 15.1475L65.2256 17.2061C64.2703 17.5194 63.2378 17.5087 62.2891 17.1758L23.1123 3.42969C22.7456 3.30104 22.5 2.954 22.5 2.56543C22.5002 2.13512 22.8002 1.76328 23.2207 1.67188L28.4629 0.535156Z" fill="#F0F0F0" stroke="#F49911" stroke-width="0.5"/>
<g filter="url(#filter2_f_858_2146)">
<rect x="61.25" y="20" width="5" height="76" rx="2" fill="#DDDDDD" fill-opacity="0.8"/>
</g>
<path d="M57.6329 89.4968L57.7309 89.5207L57.7309 89.5207L57.6329 89.4968ZM57.7542 91.8948L57.6563 91.8709L57.6563 91.8709L57.7542 91.8948ZM54.8451 86.8259C54.8548 87.1196 55.0966 87.419 55.3853 87.4946C55.674 87.5701 55.9002 87.3932 55.8905 87.0995C55.8809 86.8057 55.639 86.5064 55.3503 86.4308C55.0616 86.3553 54.8354 86.5321 54.8451 86.8259ZM52.1178 89.2626C52.1274 89.5564 52.3693 89.8558 52.658 89.9313C52.9467 90.0069 53.1729 89.83 53.1632 89.5362C53.1535 89.2425 52.9117 88.9431 52.623 88.8675C52.3343 88.792 52.1081 88.9689 52.1178 89.2626ZM58.0418 92.4201L57.9984 92.4959L57.9984 92.4959L58.0418 92.4201ZM57.6329 89.4968L57.535 89.473L57.6563 91.8709L57.7542 91.8948L57.8521 91.9186L57.7309 89.5207L57.6329 89.4968ZM55.3678 86.9627L55.3711 87.0624L55.6119 87.1254L55.6086 87.0257L55.6053 86.926L55.3645 86.863L55.3678 86.9627ZM52.6783 90.5476L52.7763 90.5733L52.7385 89.4251L52.6405 89.3994L52.5425 89.3738L52.5803 90.522L52.6783 90.5476ZM57.8304 93.3455L57.8271 93.2458L54.1602 92.2862L54.1634 92.3859L54.1667 92.4856L57.8337 93.4453L57.8304 93.3455ZM52.6783 90.5476L52.5803 90.522C52.6087 91.3846 53.3189 92.2638 54.1667 92.4856L54.1634 92.3859L54.1602 92.2862C53.4206 92.0926 52.8011 91.3257 52.7763 90.5733L52.6783 90.5476ZM57.7542 91.8948L57.6563 91.8709C57.6678 92.0985 57.7987 92.3375 57.9984 92.4959L58.0418 92.4201L58.0852 92.3443C57.9491 92.2364 57.86 92.0736 57.8521 91.9186L57.7542 91.8948ZM58.0418 92.4201L57.9984 92.4959C58.3892 92.8056 58.2626 93.3598 57.8271 93.2458L57.8304 93.3455L57.8337 93.4453C58.4731 93.6126 58.659 92.799 58.0852 92.3443L58.0418 92.4201ZM57.6329 89.4968L57.7309 89.5207C57.6729 88.3737 56.7274 87.2196 55.6053 86.926L55.6086 87.0257L55.6119 87.1254C56.6271 87.3911 57.4825 88.4353 57.535 89.473L57.6329 89.4968Z" fill="#F49911"/>
<path d="M54.7059 89.8123C54.7162 90.1062 54.9587 90.4017 55.2474 90.4722C55.5361 90.5427 55.7617 90.3616 55.7514 90.0677C55.741 89.7738 55.4985 89.4784 55.2098 89.4079C54.9211 89.3374 54.6955 89.5184 54.7059 89.8123ZM54.5549 85.5307C54.5652 85.8246 54.8077 86.12 55.0964 86.1906C55.3851 86.2611 55.6107 86.08 55.6004 85.7861C55.59 85.4922 55.3476 85.1968 55.0589 85.1263C54.7701 85.0557 54.5445 85.2368 54.5549 85.5307ZM53.708 90.6762L53.806 90.7001L53.6979 87.6356L53.5999 87.6116L53.5019 87.5877L53.6099 90.6522L53.708 90.6762ZM55.7408 88.3051L55.7443 88.4049L56.4508 88.5775L56.4473 88.4777L56.4437 88.3779L55.7372 88.2054L55.7408 88.3051ZM55.1866 88.7498L55.0886 88.7259L55.1306 89.9161L55.2286 89.94L55.3266 89.964L55.2846 88.7738L55.1866 88.7498ZM53.7928 87.0406L53.8716 87.1217L55.1563 85.7395L55.0776 85.6584L54.9989 85.5774L53.7141 86.9596L53.7928 87.0406ZM56.9219 91.7927L56.9184 91.693L54.0447 90.991L54.0482 91.0907L54.0517 91.1905L56.9255 91.8925L56.9219 91.7927ZM56.9062 89.0369L56.8081 89.013L56.9031 91.7053L57.0011 91.7292L57.0991 91.7531L57.0042 89.0608L56.9062 89.0369ZM55.7408 88.3051L55.7372 88.2054C55.3657 88.1146 55.0753 88.3476 55.0886 88.7259L55.1866 88.7498L55.2846 88.7738C55.2752 88.5057 55.481 88.3406 55.7443 88.4049L55.7408 88.3051ZM53.708 90.6762L53.6099 90.6522C53.6184 90.892 53.8162 91.133 54.0517 91.1905L54.0482 91.0907L54.0447 90.991C53.9174 90.9599 53.8105 90.8297 53.806 90.7001L53.708 90.6762ZM56.9219 91.7927L56.9255 91.8925C57.0249 91.9168 57.1027 91.8544 57.0991 91.7531L57.0011 91.7292L56.9031 91.7053C56.9028 91.6963 56.9096 91.6908 56.9184 91.693L56.9219 91.7927ZM56.4473 88.4777L56.4508 88.5775C56.6413 88.624 56.8013 88.819 56.8081 89.013L56.9062 89.0369L57.0042 89.0608C56.9934 88.7567 56.7425 88.4509 56.4437 88.3779L56.4473 88.4777ZM53.5999 87.6116L53.6979 87.6356C53.6907 87.4316 53.752 87.2504 53.8716 87.1217L53.7928 87.0406L53.7141 86.9596C53.5679 87.1169 53.4931 87.3384 53.5019 87.5877L53.5999 87.6116Z" fill="#A1A2A2"/>
<path d="M55.4869 83.6337L55.564 83.5956L55.4806 83.4638L55.4054 83.5546L55.4869 83.6337ZM58.4124 88.9418C58.422 89.2356 58.6638 89.5354 58.9525 89.6115C59.2411 89.6876 59.4674 89.5111 59.4578 89.2174C59.4482 88.9237 59.2064 88.6239 58.9177 88.5478C58.629 88.4717 58.4028 88.6481 58.4124 88.9418ZM52.8077 88.6974C52.8619 88.7117 52.9043 88.6786 52.9025 88.6235C52.9007 88.5685 52.8553 88.5122 52.8012 88.498L52.8045 88.5977L52.8077 88.6974ZM51.4708 88.2461L51.3902 88.166L51.2795 88.2945L51.4741 88.3458L51.4708 88.2461ZM53.9407 85.3234C53.9106 85.3598 53.9226 85.4248 53.9676 85.4685C54.0126 85.5123 54.0735 85.5182 54.1037 85.4818L54.0222 85.4026L53.9407 85.3234ZM53.1438 86.4776C53.1746 86.4418 53.1634 86.377 53.1189 86.3327C53.0743 86.2884 53.0132 86.2815 52.9824 86.3173L53.0631 86.3974L53.1438 86.4776ZM55.4869 83.6337L55.4098 83.6719L58.858 89.1178L58.9351 89.0796L59.0122 89.0415L55.564 83.5956L55.4869 83.6337ZM52.8045 88.5977L52.8012 88.498L51.4676 88.1464L51.4708 88.2461L51.4741 88.3458L52.8077 88.6974L52.8045 88.5977ZM54.0222 85.4026L54.1037 85.4818L55.5684 83.7129L55.4869 83.6337L55.4054 83.5546L53.9407 85.3234L54.0222 85.4026ZM51.4708 88.2461L51.5515 88.3263L53.1438 86.4776L53.0631 86.3974L52.9824 86.3173L51.3902 88.166L51.4708 88.2461Z" fill="#F49911"/>
<path d="M54.0106 85.3276L53.9812 84.4911L54.3097 84.5714L54.2803 83.7349L53.8696 83.6345C53.8696 83.6345 53.7163 83.908 53.4699 83.8478C53.2235 83.7875 53.0482 83.4337 53.0482 83.4337L52.6375 83.3333L52.6669 84.1698L52.9955 84.2501L53.0655 86.2368" stroke="#F49911" stroke-width="0.2"/>
<ellipse cx="0.337345" cy="0.430151" rx="0.337345" ry="0.430151" transform="matrix(0.980168 0.244316 0.0344757 0.99763 53.1294 82.8622)" fill="#F49911"/>
<path d="M52.4734 82.0403C52.4559 81.9887 52.4672 81.9401 52.503 81.9182C53.1457 81.5239 53.7016 81.6778 54.3912 82.4671C54.4314 82.5131 54.4467 82.5726 54.4311 82.6173C54.4034 82.6968 54.2955 82.6936 54.2218 82.6146C53.6499 82.0017 53.1981 81.8311 52.6829 82.1518C52.6166 82.1931 52.5058 82.1363 52.4734 82.0403Z" fill="#A1A2A2"/>
<path d="M52.8031 82.3567C52.7915 82.3223 52.799 82.2899 52.8229 82.2753C53.2513 82.0124 53.622 82.115 54.0817 82.6412C54.1085 82.6719 54.1187 82.7116 54.1083 82.7414C54.0898 82.7943 54.0179 82.7922 53.9687 82.7395C53.5875 82.331 53.2863 82.2172 52.9428 82.4311C52.8986 82.4586 52.8248 82.4207 52.8031 82.3567Z" fill="#F49911"/>
<path d="M52.9734 82.7714C52.9668 82.7476 52.9714 82.7253 52.9857 82.7123C53.3082 82.421 53.5885 82.4941 53.9409 82.9788C53.9576 83.0017 53.964 83.0289 53.9584 83.0508C53.9449 83.1036 53.8737 83.1005 53.8309 83.0475C53.5587 82.71 53.3412 82.6271 53.0988 82.8339C53.0618 82.8655 52.9899 82.831 52.9734 82.7714Z" fill="#A1A2A2"/>
<defs>
<filter id="filter0_i_858_2146" x="22.25" y="3" width="49.5" height="97.3231" filterUnits="userSpaceOnUse" color-interpolation-filters="sRGB">
<feFlood flood-opacity="0" result="BackgroundImageFix"/>
<feBlend mode="normal" in="SourceGraphic" in2="BackgroundImageFix" result="shape"/>
<feColorMatrix in="SourceAlpha" type="matrix" values="0 0 0 0 0 0 0 0 0 0 0 0 0 0 0 0 0 0 127 0" result="hardAlpha"/>
<feOffset/>
<feGaussianBlur stdDeviation="0.55"/>
<feComposite in2="hardAlpha" operator="arithmetic" k2="-1" k3="1"/>
<feColorMatrix type="matrix" values="0 0 0 0 0 0 0 0 0 0 0 0 0 0 0 0 0 0 0.25 0"/>
<feBlend mode="normal" in2="shape" result="effect1_innerShadow_858_2146"/>
</filter>
<filter id="filter1_i_858_2146" x="22.25" y="38" width="3.17456" height="14.8113" filterUnits="userSpaceOnUse" color-interpolation-filters="sRGB">
<feFlood flood-opacity="0" result="BackgroundImageFix"/>
<feBlend mode="normal" in="SourceGraphic" in2="BackgroundImageFix" result="shape"/>
<feColorMatrix in="SourceAlpha" type="matrix" values="0 0 0 0 0 0 0 0 0 0 0 0 0 0 0 0 0 0 127 0" result="hardAlpha"/>
<feOffset dx="-1" dy="2"/>
<feGaussianBlur stdDeviation="1"/>
<feComposite in2="hardAlpha" operator="arithmetic" k2="-1" k3="1"/>
<feColorMatrix type="matrix" values="0 0 0 0 0 0 0 0 0 0 0 0 0 0 0 0 0 0 0.25 0"/>
<feBlend mode="normal" in2="shape" result="effect1_innerShadow_858_2146"/>
</filter>
<filter id="filter2_f_858_2146" x="58.45" y="17.2" width="10.6" height="81.6" filterUnits="userSpaceOnUse" color-interpolation-filters="sRGB">
<feFlood flood-opacity="0" result="BackgroundImageFix"/>
<feBlend mode="normal" in="SourceGraphic" in2="BackgroundImageFix" result="shape"/>
<feGaussianBlur stdDeviation="1.4" result="effect1_foregroundBlur_858_2146"/>
</filter>
</defs>
</svg>
