<svg width="30" height="34" viewBox="0 0 30 34" fill="none" xmlns="http://www.w3.org/2000/svg">
<g filter="url(#filter0_di_370_2341)">
<path d="M25.6852 28.2787C25.6843 28.3146 25.6761 28.3486 25.6637 28.3802C25.6725 28.4436 25.6783 28.5074 25.6783 28.5717C25.678 30.4651 21.7705 32.0004 16.9508 32.0004C12.1311 32.0003 8.22356 30.4651 8.22325 28.5717C8.22325 28.5025 8.22957 28.4337 8.23985 28.3656C8.23003 28.336 8.22329 28.3047 8.22325 28.2719V11.806C7.63294 11.3904 6.83171 11.1182 6.1666 10.9945C5.49972 10.8706 5.3956 10.5877 5.817 10.0316L8.22325 6.85681C6.58688 10.2854 6.58733 9.71423 14.7691 9.71423L14.5094 10.1058C19.7986 9.45405 25.5552 8.41461 26.2232 5.71423L25.6852 28.2787Z" fill="#F2F2F2"/>
</g>
<g filter="url(#filter1_i_370_2341)">
<path d="M13.4958 9.5C12.9958 10 9.70218 9.33053 6.49683 10.5C6.03499 10.5009 5.84225 10.3496 6.10242 9.96806L8.22348 6.85718C8.76893 8.57146 11.9958 9.5 13.4958 9.5Z" fill="#A3A3A3"/>
</g>
<g filter="url(#filter2_i_370_2341)">
<path d="M16.9509 0C19.858 0 22.3133 0.662176 23.9656 1.71387H28.4968C29.049 1.71387 29.4966 2.16177 29.4968 2.71387V23C29.4968 23.5523 29.0491 24 28.4968 24H25.6785V22.2861H27.8601V3.42871H25.7263C26.0498 3.96503 26.2243 4.54132 26.2244 5.14258C26.7698 7.99972 22.3734 10.2861 16.9509 10.2861C11.5286 10.2861 7.67847 8.55414 7.67847 5.71387C7.67884 2.87373 11.5289 9.42024e-05 16.9509 0Z" fill="#D9D9D9"/>
</g>
<g filter="url(#filter3_f_370_2341)">
<path d="M8.22543 11.4282C12.1483 12.8521 12.5876 16 12.5873 17.1428" stroke="black" stroke-width="0.2"/>
</g>
<path d="M21.9792 12.5L21.9792 24" stroke="#F49911" stroke-width="0.5" stroke-linecap="round"/>
<g filter="url(#filter4_f_370_2341)">
<path d="M2.00049 3.79831C7.50091 2.79834 8.69427 10.9238 10.5005 9.79827L6.99709 10.4999C6.99709 10.4999 5.99709 9.99992 5.99709 10.4999C4.67715 5.17406 5.50049 6 2.00049 3.79831Z" fill="#E3E3E3" fill-opacity="0.8"/>
</g>
<path d="M17.9888 6.45842L17.9188 6.4278L17.9888 6.45842ZM17.5315 7.11477L17.6015 7.14539L17.6015 7.14539L17.5315 7.11477ZM17.0342 4.44172C16.9018 4.62224 16.9589 4.84532 17.1618 4.93999C17.3646 5.03465 17.6364 4.96506 17.7688 4.78453C17.9012 4.60401 17.844 4.38093 17.6412 4.28626C17.4383 4.1916 17.1665 4.26119 17.0342 4.44172ZM14.2021 4.92074C14.0697 5.10126 14.1269 5.32434 14.3297 5.41901C14.5326 5.51368 14.8044 5.44408 14.9367 5.26356C15.0691 5.08304 15.012 4.85995 14.8091 4.76528C14.6063 4.67062 14.3345 4.74022 14.2021 4.92074ZM17.5416 7.38728L17.4745 7.43242L17.5416 7.38728ZM17.9888 6.45842L17.9188 6.4278L17.4616 7.08415L17.5315 7.11477L17.6015 7.14539L18.0587 6.48904L17.9888 6.45842ZM17.4015 4.61312L17.3565 4.67441L17.454 4.71992L17.499 4.65863L17.5439 4.59734L17.4464 4.55184L17.4015 4.61312ZM14.2503 5.52733L14.3192 5.55947L14.6383 5.12429L14.5694 5.09215L14.5006 5.06001L14.1814 5.49519L14.2503 5.52733ZM17.1384 7.7701L17.1834 7.70882L14.5556 6.48251L14.5106 6.5438L14.4657 6.60508L17.0935 7.83139L17.1384 7.7701ZM14.2503 5.52733L14.1814 5.49519C13.8865 5.8973 14.0138 6.39421 14.4657 6.60508L14.5106 6.5438L14.5556 6.48251C14.1798 6.30714 14.0739 5.89388 14.3192 5.55947L14.2503 5.52733ZM17.5315 7.11477L17.4616 7.08415C17.3818 7.19859 17.3869 7.3357 17.4745 7.43242L17.5416 7.38728L17.6088 7.34214C17.5593 7.2875 17.5564 7.21004 17.6015 7.14539L17.5315 7.11477ZM17.5416 7.38728L17.4745 7.43242C17.6104 7.58266 17.3806 7.80087 17.1834 7.70882L17.1384 7.7701L17.0935 7.83139C17.4426 7.99434 17.8495 7.60808 17.6088 7.34214L17.5416 7.38728ZM17.9888 6.45842L18.0587 6.48904C18.5417 5.79584 18.3132 4.95634 17.5439 4.59734L17.499 4.65863L17.454 4.71992C18.1486 5.04403 18.3548 5.80195 17.9188 6.4278L17.9888 6.45842Z" fill="#F49911"/>
<path d="M15.9251 5.66045C15.7928 5.84097 15.8499 6.06406 16.0528 6.15873C16.2556 6.25339 16.5274 6.18379 16.6598 6.00327C16.7921 5.82275 16.735 5.59967 16.5322 5.505C16.3293 5.41033 16.0575 5.47993 15.9251 5.66045ZM17.3657 3.69606C17.2333 3.87658 17.2905 4.09967 17.4933 4.19433C17.6962 4.289 17.9679 4.2194 18.1003 4.03888C18.2327 3.85836 18.1756 3.63527 17.9727 3.54061C17.7699 3.44594 17.4981 3.51554 17.3657 3.69606ZM14.9129 5.82221L14.9818 5.85435L15.8836 4.62465L15.8147 4.59251L15.7458 4.56037L14.8441 5.79007L14.9129 5.82221ZM17.2704 5.19497L17.2254 5.25626L17.7541 5.50298L17.7991 5.4417L17.844 5.38041L17.3153 5.13368L17.2704 5.19497ZM16.6414 5.35605L16.5725 5.32391L16.2236 5.79972L16.2925 5.83186L16.3613 5.864L16.7103 5.38819L16.6414 5.35605ZM16.4225 4.19746L16.4391 4.26362L17.7495 3.93363L17.733 3.86747L17.7165 3.80131L16.406 4.1313L16.4225 4.19746ZM16.8915 7.0053L16.9364 6.94402L15.0334 6.05595L14.9885 6.11724L14.9436 6.17852L16.8466 7.06659L16.8915 7.0053ZM17.8798 5.7571L17.811 5.72496L16.9125 6.95015L16.9814 6.98229L17.0502 7.01443L17.9487 5.78924L17.8798 5.7571ZM17.2704 5.19497L17.3153 5.13368C17.0671 5.01784 16.7345 5.10301 16.5725 5.32391L16.6414 5.35605L16.7103 5.38819C16.8226 5.23498 17.0532 5.17592 17.2254 5.25626L17.2704 5.19497ZM14.9129 5.82221L14.8441 5.79007C14.7409 5.9308 14.7854 6.10472 14.9436 6.17852L14.9885 6.11724L15.0334 6.05595C14.9514 6.01765 14.9282 5.92739 14.9818 5.85435L14.9129 5.82221ZM16.8915 7.0053L16.8466 7.06659C16.9146 7.09835 17.0058 7.075 17.0502 7.01443L16.9814 6.98229L16.9125 6.95015C16.9177 6.94303 16.9284 6.94028 16.9364 6.94402L16.8915 7.0053ZM17.7991 5.4417L17.7541 5.50298C17.8445 5.54516 17.8699 5.64454 17.811 5.72496L17.8798 5.7571L17.9487 5.78924C18.0573 5.64112 18.0104 5.45808 17.844 5.38041L17.7991 5.4417ZM15.8147 4.59251L15.8836 4.62465C16.0109 4.45107 16.2109 4.32108 16.4391 4.26362L16.4225 4.19746L16.406 4.1313C16.1348 4.19958 15.8971 4.35407 15.7458 4.56037L15.8147 4.59251Z" fill="#A1A2A2"/>
<path d="M18.7267 3.04566L18.8072 3.02509L18.7901 2.95828L18.7089 2.97982L18.7267 3.04566ZM19.1053 5.79468C18.9729 5.9752 19.03 6.19828 19.2329 6.29295C19.4357 6.38762 19.7075 6.31802 19.8399 6.1375C19.9723 5.95698 19.9151 5.73389 19.7123 5.63922C19.5094 5.54456 19.2377 5.61416 19.1053 5.79468ZM15.0536 4.62926C15.0917 4.64701 15.1426 4.63396 15.1675 4.60011C15.1923 4.56626 15.1816 4.52443 15.1435 4.50668L15.0536 4.62926ZM14.2288 4.16208L14.2123 4.09592L14.0165 4.14525L14.1839 4.22337L14.2288 4.16208ZM17.0398 3.42275C16.9954 3.43451 16.9674 3.47353 16.9773 3.50989C16.9871 3.54626 17.031 3.56619 17.0753 3.55443L17.0398 3.42275ZM16.0353 3.77736C16.0798 3.76615 16.1084 3.72745 16.0993 3.69091C16.0902 3.65437 16.0467 3.63383 16.0022 3.64504L16.0353 3.77736ZM18.7267 3.04566L18.6462 3.06624L19.3921 5.98666L19.4726 5.96609L19.5531 5.94551L18.8072 3.02509L18.7267 3.04566ZM15.0986 4.56797L15.1435 4.50668L14.2738 4.10079L14.2288 4.16208L14.1839 4.22337L15.0536 4.62926L15.0986 4.56797ZM17.0575 3.48859L17.0753 3.55443L18.7445 3.1115L18.7267 3.04566L18.7089 2.97982L17.0398 3.42275L17.0575 3.48859ZM14.2288 4.16208L14.2454 4.22824L16.0353 3.77736L16.0187 3.7112L16.0022 3.64504L14.2123 4.09592L14.2288 4.16208Z" fill="#F49911"/>
<path d="M17.0595 3.48922L17.3406 3.10592L17.5581 3.20741L17.8391 2.82412L17.5673 2.69725C17.5673 2.69725 17.3531 2.79024 17.19 2.71412C17.0269 2.638 17.0236 2.44352 17.0236 2.44352L16.7517 2.31665L16.4706 2.69995L16.6881 2.80144L16.0205 3.71177" stroke="#F49911" stroke-width="0.152"/>
<ellipse cx="0.240002" cy="0.237657" rx="0.240002" ry="0.237657" transform="matrix(0.906183 0.422886 -0.591364 0.806405 17.3247 2.13489)" fill="#F49911"/>
<path d="M17.1673 1.6016C17.1709 1.56876 17.2043 1.54143 17.2432 1.54029C17.8186 1.52352 18.1765 1.6865 18.4463 2.10057C18.4649 2.12918 18.451 2.16718 18.4156 2.18647C18.3776 2.20718 18.3298 2.19843 18.3093 2.168C18.0572 1.79378 17.7623 1.63307 17.2421 1.66444C17.1982 1.66709 17.1632 1.63855 17.1673 1.6016Z" fill="#A1A2A2"/>
<path d="M17.2886 1.81234C17.291 1.79044 17.3132 1.77222 17.3392 1.77144C17.7231 1.75989 17.9618 1.86854 18.1413 2.14499C18.1537 2.16408 18.1444 2.18941 18.1209 2.2023C18.0955 2.21617 18.0634 2.21032 18.0498 2.18995C17.882 1.94028 17.6854 1.83314 17.3386 1.85436C17.3093 1.85615 17.2858 1.83706 17.2886 1.81234Z" fill="#F49911"/>
<path d="M17.2556 2.04311C17.2595 2.02694 17.2752 2.01368 17.2945 2.01089C17.6137 1.9647 17.7947 2.04633 17.9036 2.29412C17.9104 2.30965 17.9033 2.32804 17.8867 2.33923C17.8613 2.35631 17.8259 2.34952 17.8145 2.32621C17.7146 2.122 17.5736 2.04231 17.3063 2.08477C17.2755 2.08966 17.2494 2.069 17.2556 2.04311Z" fill="#A1A2A2"/>
<defs>
<filter id="filter0_di_370_2341" x="4.56592" y="5.71423" width="22.6572" height="28.2861" filterUnits="userSpaceOnUse" color-interpolation-filters="sRGB">
<feFlood flood-opacity="0" result="BackgroundImageFix"/>
<feColorMatrix in="SourceAlpha" type="matrix" values="0 0 0 0 0 0 0 0 0 0 0 0 0 0 0 0 0 0 127 0" result="hardAlpha"/>
<feOffset dy="1"/>
<feGaussianBlur stdDeviation="0.5"/>
<feComposite in2="hardAlpha" operator="out"/>
<feColorMatrix type="matrix" values="0 0 0 0 0 0 0 0 0 0 0 0 0 0 0 0 0 0 0.25 0"/>
<feBlend mode="normal" in2="BackgroundImageFix" result="effect1_dropShadow_370_2341"/>
<feBlend mode="normal" in="SourceGraphic" in2="effect1_dropShadow_370_2341" result="shape"/>
<feColorMatrix in="SourceAlpha" type="matrix" values="0 0 0 0 0 0 0 0 0 0 0 0 0 0 0 0 0 0 127 0" result="hardAlpha"/>
<feOffset/>
<feGaussianBlur stdDeviation="0.55"/>
<feComposite in2="hardAlpha" operator="arithmetic" k2="-1" k3="1"/>
<feColorMatrix type="matrix" values="0 0 0 0 0 0 0 0 0 0 0 0 0 0 0 0 0 0 0.25 0"/>
<feBlend mode="normal" in2="shape" result="effect2_innerShadow_370_2341"/>
</filter>
<filter id="filter1_i_370_2341" x="5.9856" y="6.85718" width="7.51025" height="4.24282" filterUnits="userSpaceOnUse" color-interpolation-filters="sRGB">
<feFlood flood-opacity="0" result="BackgroundImageFix"/>
<feBlend mode="normal" in="SourceGraphic" in2="BackgroundImageFix" result="shape"/>
<feColorMatrix in="SourceAlpha" type="matrix" values="0 0 0 0 0 0 0 0 0 0 0 0 0 0 0 0 0 0 127 0" result="hardAlpha"/>
<feOffset dy="1"/>
<feGaussianBlur stdDeviation="0.3"/>
<feComposite in2="hardAlpha" operator="arithmetic" k2="-1" k3="1"/>
<feColorMatrix type="matrix" values="0 0 0 0 0 0 0 0 0 0 0 0 0 0 0 0 0 0 0.15 0"/>
<feBlend mode="normal" in2="shape" result="effect1_innerShadow_370_2341"/>
</filter>
<filter id="filter2_i_370_2341" x="7.67847" y="0" width="21.8184" height="24" filterUnits="userSpaceOnUse" color-interpolation-filters="sRGB">
<feFlood flood-opacity="0" result="BackgroundImageFix"/>
<feBlend mode="normal" in="SourceGraphic" in2="BackgroundImageFix" result="shape"/>
<feColorMatrix in="SourceAlpha" type="matrix" values="0 0 0 0 0 0 0 0 0 0 0 0 0 0 0 0 0 0 127 0" result="hardAlpha"/>
<feOffset dy="-0.5"/>
<feComposite in2="hardAlpha" operator="arithmetic" k2="-1" k3="1"/>
<feColorMatrix type="matrix" values="0 0 0 0 0 0 0 0 0 0 0 0 0 0 0 0 0 0 0.25 0"/>
<feBlend mode="normal" in2="shape" result="effect1_innerShadow_370_2341"/>
</filter>
<filter id="filter3_f_370_2341" x="3.69434" y="6.83301" width="13.4919" height="14.8123" filterUnits="userSpaceOnUse" color-interpolation-filters="sRGB">
<feFlood flood-opacity="0" result="BackgroundImageFix"/>
<feBlend mode="normal" in="SourceGraphic" in2="BackgroundImageFix" result="shape"/>
<feGaussianBlur stdDeviation="2.25" result="effect1_foregroundBlur_370_2341"/>
</filter>
<filter id="filter4_f_370_2341" x="0.500488" y="2.21277" width="11.5" height="9.78711" filterUnits="userSpaceOnUse" color-interpolation-filters="sRGB">
<feFlood flood-opacity="0" result="BackgroundImageFix"/>
<feBlend mode="normal" in="SourceGraphic" in2="BackgroundImageFix" result="shape"/>
<feGaussianBlur stdDeviation="0.55" result="effect1_foregroundBlur_370_2341"/>
</filter>
</defs>
</svg>
