<svg width="28" height="34" viewBox="0 0 28 34" fill="none" xmlns="http://www.w3.org/2000/svg">
<g filter="url(#filter0_di_413_2194)">
<path d="M23.6852 28.2787C23.6843 28.3146 23.6761 28.3486 23.6637 28.3802C23.6725 28.4436 23.6783 28.5074 23.6783 28.5717C23.678 30.4651 19.7705 32.0004 14.9508 32.0004C10.1311 32.0003 6.22356 30.4651 6.22325 28.5717C6.22325 28.5025 6.22957 28.4337 6.23985 28.3656C6.23003 28.336 6.22329 28.3047 6.22325 28.2719V11.806C5.63294 11.3904 4.83171 11.1182 4.1666 10.9945C3.49972 10.8706 3.3956 10.5877 3.817 10.0316L6.22325 6.85681C4.58688 10.2854 4.58733 9.71423 12.7691 9.71423L12.5094 10.1058C17.7986 9.45405 23.5552 8.41461 24.2232 5.71423L23.6852 28.2787Z" fill="#F2F2F2"/>
</g>
<g filter="url(#filter1_i_413_2194)">
<path d="M11.4958 9.5C10.9958 10 7.70218 9.33053 4.49683 10.5V10.5C4.03499 10.5009 3.84225 10.3496 4.10242 9.96806L6.22348 6.85718C6.76893 8.57146 9.99585 9.5 11.4958 9.5Z" fill="#A3A3A3"/>
</g>
<g filter="url(#filter2_i_413_2194)">
<path d="M14.9509 0C17.858 0 20.3133 0.662176 21.9656 1.71387H26.4968C27.049 1.71387 27.4966 2.16177 27.4968 2.71387V23C27.4968 23.5523 27.0491 24 26.4968 24H23.6785V22.2861H25.8601V3.42871H23.7263C24.0498 3.96503 24.2243 4.54132 24.2244 5.14258C24.7698 7.99972 20.3734 10.2861 14.9509 10.2861C9.52864 10.2861 5.67847 8.55414 5.67847 5.71387C5.67884 2.87373 9.5289 9.42024e-05 14.9509 0Z" fill="#D9D9D9"/>
</g>
<g filter="url(#filter3_f_413_2194)">
<path d="M6.22543 11.4282C10.1483 12.8521 10.5876 16 10.5873 17.1428" stroke="black" stroke-width="0.2"/>
</g>
<path d="M19.9792 12.5L19.9792 24" stroke="#A19D9D" stroke-width="0.5" stroke-linecap="round"/>
<path d="M15.9888 6.45842L15.9188 6.4278L15.9188 6.4278L15.9888 6.45842ZM15.5315 7.11477L15.6015 7.14539L15.6015 7.14539L15.5315 7.11477ZM15.0342 4.44172C14.9018 4.62224 14.9589 4.84532 15.1618 4.93999C15.3646 5.03465 15.6364 4.96506 15.7688 4.78453C15.9012 4.60401 15.844 4.38093 15.6412 4.28626C15.4383 4.1916 15.1665 4.26119 15.0342 4.44172ZM12.2021 4.92074C12.0697 5.10126 12.1269 5.32434 12.3297 5.41901C12.5326 5.51368 12.8044 5.44408 12.9367 5.26356C13.0691 5.08304 13.012 4.85995 12.8091 4.76528C12.6063 4.67062 12.3345 4.74022 12.2021 4.92074ZM15.5416 7.38728L15.4745 7.43242L15.4745 7.43242L15.5416 7.38728ZM15.9888 6.45842L15.9188 6.4278L15.4616 7.08415L15.5315 7.11477L15.6015 7.14539L16.0587 6.48904L15.9888 6.45842ZM15.4015 4.61312L15.3565 4.67441L15.454 4.71992L15.499 4.65863L15.5439 4.59734L15.4464 4.55184L15.4015 4.61312ZM12.2503 5.52733L12.3192 5.55947L12.6383 5.12429L12.5694 5.09215L12.5006 5.06001L12.1814 5.49519L12.2503 5.52733ZM15.1384 7.7701L15.1834 7.70882L12.5556 6.48251L12.5106 6.5438L12.4657 6.60508L15.0935 7.83139L15.1384 7.7701ZM12.2503 5.52733L12.1814 5.49519C11.8865 5.8973 12.0138 6.39421 12.4657 6.60508L12.5106 6.5438L12.5556 6.48251C12.1798 6.30714 12.0739 5.89388 12.3192 5.55947L12.2503 5.52733ZM15.5315 7.11477L15.4616 7.08415C15.3818 7.19859 15.3869 7.3357 15.4745 7.43242L15.5416 7.38728L15.6088 7.34214C15.5593 7.2875 15.5564 7.21004 15.6015 7.14539L15.5315 7.11477ZM15.5416 7.38728L15.4745 7.43242C15.6104 7.58266 15.3806 7.80087 15.1834 7.70882L15.1384 7.7701L15.0935 7.83139C15.4426 7.99434 15.8495 7.60808 15.6088 7.34214L15.5416 7.38728ZM15.9888 6.45842L16.0587 6.48904C16.5417 5.79584 16.3132 4.95634 15.5439 4.59734L15.499 4.65863L15.454 4.71992C16.1486 5.04403 16.3548 5.80195 15.9188 6.4278L15.9888 6.45842Z" fill="#C5C5C5"/>
<path d="M13.9251 5.66045C13.7928 5.84097 13.8499 6.06406 14.0528 6.15873C14.2556 6.25339 14.5274 6.18379 14.6598 6.00327C14.7921 5.82275 14.735 5.59967 14.5322 5.505C14.3293 5.41033 14.0575 5.47993 13.9251 5.66045ZM15.3657 3.69606C15.2333 3.87658 15.2905 4.09967 15.4933 4.19433C15.6962 4.289 15.9679 4.2194 16.1003 4.03888C16.2327 3.85836 16.1756 3.63527 15.9727 3.54061C15.7699 3.44594 15.4981 3.51554 15.3657 3.69606ZM12.9129 5.82221L12.9818 5.85435L13.8836 4.62465L13.8147 4.59251L13.7458 4.56037L12.8441 5.79007L12.9129 5.82221ZM15.2704 5.19497L15.2254 5.25626L15.7541 5.50298L15.7991 5.4417L15.844 5.38041L15.3153 5.13368L15.2704 5.19497ZM14.6414 5.35605L14.5725 5.32391L14.2236 5.79972L14.2925 5.83186L14.3613 5.864L14.7103 5.38819L14.6414 5.35605ZM14.4225 4.19746L14.4391 4.26362L15.7495 3.93363L15.733 3.86747L15.7165 3.80131L14.406 4.1313L14.4225 4.19746ZM14.8915 7.0053L14.9364 6.94402L13.0334 6.05595L12.9885 6.11724L12.9436 6.17852L14.8466 7.06659L14.8915 7.0053ZM15.8798 5.7571L15.811 5.72496L14.9125 6.95015L14.9814 6.98229L15.0502 7.01443L15.9487 5.78924L15.8798 5.7571ZM15.2704 5.19497L15.3153 5.13368C15.0671 5.01784 14.7345 5.10301 14.5725 5.32391L14.6414 5.35605L14.7103 5.38819C14.8226 5.23498 15.0532 5.17592 15.2254 5.25626L15.2704 5.19497ZM12.9129 5.82221L12.8441 5.79007C12.7409 5.9308 12.7854 6.10472 12.9436 6.17852L12.9885 6.11724L13.0334 6.05595C12.9514 6.01765 12.9282 5.92739 12.9818 5.85435L12.9129 5.82221ZM14.8915 7.0053L14.8466 7.06659C14.9146 7.09835 15.0058 7.075 15.0502 7.01443L14.9814 6.98229L14.9125 6.95015C14.9177 6.94303 14.9284 6.94028 14.9364 6.94402L14.8915 7.0053ZM15.7991 5.4417L15.7541 5.50298C15.8445 5.54516 15.8699 5.64454 15.811 5.72496L15.8798 5.7571L15.9487 5.78924C16.0573 5.64112 16.0104 5.45808 15.844 5.38041L15.7991 5.4417ZM13.8147 4.59251L13.8836 4.62465C14.0109 4.45107 14.2109 4.32108 14.4391 4.26362L14.4225 4.19746L14.406 4.1313C14.1348 4.19958 13.8971 4.35407 13.7458 4.56037L13.8147 4.59251Z" fill="#A1A2A2"/>
<path d="M16.7267 3.04566L16.8072 3.02509L16.7901 2.95828L16.7089 2.97982L16.7267 3.04566ZM17.1053 5.79468C16.9729 5.9752 17.03 6.19828 17.2329 6.29295C17.4357 6.38762 17.7075 6.31802 17.8399 6.1375C17.9723 5.95698 17.9151 5.73389 17.7123 5.63922C17.5094 5.54456 17.2377 5.61416 17.1053 5.79468ZM13.0536 4.62926C13.0917 4.64701 13.1426 4.63396 13.1675 4.60011C13.1923 4.56626 13.1816 4.52443 13.1435 4.50668L13.0536 4.62926ZM12.2288 4.16208L12.2123 4.09592L12.0165 4.14525L12.1839 4.22337L12.2288 4.16208ZM15.0398 3.42275C14.9954 3.43451 14.9674 3.47353 14.9773 3.50989C14.9871 3.54626 15.031 3.56619 15.0753 3.55443L15.0398 3.42275ZM14.0353 3.77736C14.0798 3.76615 14.1084 3.72745 14.0993 3.69091C14.0902 3.65437 14.0467 3.63383 14.0022 3.64504L14.0353 3.77736ZM16.7267 3.04566L16.6462 3.06624L17.3921 5.98666L17.4726 5.96609L17.5531 5.94551L16.8072 3.02509L16.7267 3.04566ZM13.0986 4.56797L13.1435 4.50668L12.2738 4.10079L12.2288 4.16208L12.1839 4.22337L13.0536 4.62926L13.0986 4.56797ZM15.0575 3.48859L15.0753 3.55443L16.7445 3.1115L16.7267 3.04566L16.7089 2.97982L15.0398 3.42275L15.0575 3.48859ZM12.2288 4.16208L12.2454 4.22824L14.0353 3.77736L14.0187 3.7112L14.0022 3.64504L12.2123 4.09592L12.2288 4.16208Z" fill="#C5C5C5"/>
<path d="M15.0595 3.48922L15.3406 3.10592L15.5581 3.20741L15.8391 2.82412L15.5673 2.69725C15.5673 2.69725 15.3531 2.79024 15.19 2.71412C15.0269 2.638 15.0236 2.44352 15.0236 2.44352L14.7517 2.31665L14.4706 2.69995L14.6881 2.80144L14.0205 3.71177" stroke="#C5C5C5" stroke-width="0.152"/>
<ellipse cx="0.240002" cy="0.237657" rx="0.240002" ry="0.237657" transform="matrix(0.906183 0.422886 -0.591364 0.806405 15.3247 2.13489)" fill="#C5C5C5"/>
<path d="M15.1673 1.6016C15.1709 1.56876 15.2043 1.54143 15.2432 1.54029C15.8186 1.52352 16.1765 1.6865 16.4463 2.10057C16.4649 2.12918 16.451 2.16718 16.4156 2.18647V2.18647C16.3776 2.20718 16.3298 2.19843 16.3093 2.168C16.0572 1.79378 15.7623 1.63307 15.2421 1.66444C15.1982 1.66709 15.1632 1.63855 15.1673 1.6016V1.6016Z" fill="#A1A2A2"/>
<path d="M15.2886 1.81234C15.291 1.79044 15.3132 1.77222 15.3392 1.77144C15.7231 1.75989 15.9618 1.86854 16.1413 2.14499C16.1537 2.16408 16.1444 2.18941 16.1209 2.2023V2.2023C16.0955 2.21617 16.0634 2.21032 16.0498 2.18995C15.882 1.94028 15.6854 1.83314 15.3386 1.85436C15.3093 1.85615 15.2858 1.83706 15.2886 1.81234V1.81234Z" fill="#C5C5C5"/>
<path d="M15.2556 2.04311C15.2595 2.02694 15.2752 2.01368 15.2945 2.01089C15.6137 1.9647 15.7947 2.04633 15.9036 2.29412C15.9104 2.30965 15.9033 2.32804 15.8867 2.33923V2.33923C15.8613 2.35631 15.8259 2.34952 15.8145 2.32621C15.7146 2.122 15.5736 2.04231 15.3063 2.08477C15.2755 2.08966 15.2494 2.069 15.2556 2.04311V2.04311Z" fill="#A1A2A2"/>
<defs>
<filter id="filter0_di_413_2194" x="2.56592" y="5.71423" width="22.6572" height="28.2861" filterUnits="userSpaceOnUse" color-interpolation-filters="sRGB">
<feFlood flood-opacity="0" result="BackgroundImageFix"/>
<feColorMatrix in="SourceAlpha" type="matrix" values="0 0 0 0 0 0 0 0 0 0 0 0 0 0 0 0 0 0 127 0" result="hardAlpha"/>
<feOffset dy="1"/>
<feGaussianBlur stdDeviation="0.5"/>
<feComposite in2="hardAlpha" operator="out"/>
<feColorMatrix type="matrix" values="0 0 0 0 0 0 0 0 0 0 0 0 0 0 0 0 0 0 0.25 0"/>
<feBlend mode="normal" in2="BackgroundImageFix" result="effect1_dropShadow_413_2194"/>
<feBlend mode="normal" in="SourceGraphic" in2="effect1_dropShadow_413_2194" result="shape"/>
<feColorMatrix in="SourceAlpha" type="matrix" values="0 0 0 0 0 0 0 0 0 0 0 0 0 0 0 0 0 0 127 0" result="hardAlpha"/>
<feOffset/>
<feGaussianBlur stdDeviation="0.55"/>
<feComposite in2="hardAlpha" operator="arithmetic" k2="-1" k3="1"/>
<feColorMatrix type="matrix" values="0 0 0 0 0 0 0 0 0 0 0 0 0 0 0 0 0 0 0.25 0"/>
<feBlend mode="normal" in2="shape" result="effect2_innerShadow_413_2194"/>
</filter>
<filter id="filter1_i_413_2194" x="3.9856" y="6.85718" width="7.51025" height="4.24282" filterUnits="userSpaceOnUse" color-interpolation-filters="sRGB">
<feFlood flood-opacity="0" result="BackgroundImageFix"/>
<feBlend mode="normal" in="SourceGraphic" in2="BackgroundImageFix" result="shape"/>
<feColorMatrix in="SourceAlpha" type="matrix" values="0 0 0 0 0 0 0 0 0 0 0 0 0 0 0 0 0 0 127 0" result="hardAlpha"/>
<feOffset dy="1"/>
<feGaussianBlur stdDeviation="0.3"/>
<feComposite in2="hardAlpha" operator="arithmetic" k2="-1" k3="1"/>
<feColorMatrix type="matrix" values="0 0 0 0 0 0 0 0 0 0 0 0 0 0 0 0 0 0 0.15 0"/>
<feBlend mode="normal" in2="shape" result="effect1_innerShadow_413_2194"/>
</filter>
<filter id="filter2_i_413_2194" x="5.67847" y="0" width="21.8184" height="24" filterUnits="userSpaceOnUse" color-interpolation-filters="sRGB">
<feFlood flood-opacity="0" result="BackgroundImageFix"/>
<feBlend mode="normal" in="SourceGraphic" in2="BackgroundImageFix" result="shape"/>
<feColorMatrix in="SourceAlpha" type="matrix" values="0 0 0 0 0 0 0 0 0 0 0 0 0 0 0 0 0 0 127 0" result="hardAlpha"/>
<feOffset dy="-0.5"/>
<feComposite in2="hardAlpha" operator="arithmetic" k2="-1" k3="1"/>
<feColorMatrix type="matrix" values="0 0 0 0 0 0 0 0 0 0 0 0 0 0 0 0 0 0 0.25 0"/>
<feBlend mode="normal" in2="shape" result="effect1_innerShadow_413_2194"/>
</filter>
<filter id="filter3_f_413_2194" x="1.69434" y="6.83301" width="13.4919" height="14.8123" filterUnits="userSpaceOnUse" color-interpolation-filters="sRGB">
<feFlood flood-opacity="0" result="BackgroundImageFix"/>
<feBlend mode="normal" in="SourceGraphic" in2="BackgroundImageFix" result="shape"/>
<feGaussianBlur stdDeviation="2.25" result="effect1_foregroundBlur_413_2194"/>
</filter>
</defs>
</svg>
