<svg width="38" height="33" viewBox="0 0 38 33" fill="none" xmlns="http://www.w3.org/2000/svg">
<g filter="url(#filter0_i_370_3354)">
<path d="M7.28779 6.79181C6.88726 6.24954 7.1271 5.47439 7.7639 5.25309L12.6835 3.54343C13.0944 3.40063 13.5505 3.53985 13.8116 3.88778L30.2885 25.8435C30.7026 26.3953 30.4468 27.1907 29.7887 27.3977L24.5608 29.0417C24.1536 29.1697 23.71 29.0252 23.4564 28.6819L7.28779 6.79181Z" fill="#F7F7F7"/>
</g>
<path d="M7.08695 6.94069C6.58628 6.26286 6.8863 5.29366 7.68229 5.01703L12.6012 3.30728C13.1148 3.12879 13.6852 3.30271 14.0116 3.73759L30.4886 25.6932C31.0062 26.3829 30.6863 27.3776 29.8637 27.6362L24.6359 29.2804C24.1269 29.4405 23.572 29.2599 23.255 28.8307L7.08695 6.94069Z" stroke="#A3A3A3" stroke-width="0.5"/>
<g filter="url(#filter1_i_370_3354)">
<path d="M22.8114 24.811C22.6051 24.5378 22.7282 24.1427 23.0532 24.0351L25.8856 23.097C26.0889 23.0296 26.3126 23.0993 26.4418 23.2703L28.2398 25.6513C28.4462 25.9245 28.3231 26.3196 27.998 26.4272L25.1657 27.3653C24.9623 27.4327 24.7386 27.363 24.6095 27.192L22.8114 24.811Z" fill="black" fill-opacity="0.2"/>
</g>
<path d="M22.7319 24.8709C22.4844 24.543 22.6319 24.0696 23.0218 23.9404L25.854 23.0022C26.098 22.9214 26.3666 23.005 26.5215 23.2102L28.3194 25.5912C28.567 25.919 28.4194 26.3924 28.0295 26.5217L25.1973 27.4598C24.9532 27.5407 24.6847 27.457 24.5297 27.2518L22.7319 24.8709Z" stroke="#B8B8B8" stroke-width="0.2"/>
<g filter="url(#filter2_i_370_3354)">
<path d="M16.319 16.2148C16.1127 15.9416 16.2358 15.5465 16.5608 15.4389L19.3931 14.5008C19.5965 14.4334 19.8202 14.5031 19.9493 14.6741L21.7474 17.0551C21.9537 17.3283 21.8306 17.7234 21.5056 17.831L18.6733 18.7691C18.4699 18.8365 18.2462 18.7668 18.1171 18.5958L16.319 16.2148Z" fill="black" fill-opacity="0.2"/>
</g>
<path d="M16.2394 16.2747C15.992 15.9468 16.1395 15.4734 16.5294 15.3442L19.3615 14.406C19.6056 14.3252 19.8742 14.4089 20.0291 14.614L21.827 16.995C22.0745 17.3228 21.9269 17.7962 21.537 17.9255L18.7049 18.8637C18.4608 18.9445 18.1923 18.8608 18.0373 18.6556L16.2394 16.2747Z" stroke="#B8B8B8" stroke-width="0.2"/>
<g filter="url(#filter3_i_370_3354)">
<path d="M19.5656 20.5126C19.3592 20.2393 19.4824 19.8442 19.8074 19.7366L22.6397 18.7985C22.8431 18.7312 23.0668 18.8009 23.1959 18.9718L24.994 21.3528C25.2003 21.626 25.0772 22.0211 24.7522 22.1288L21.9199 23.0668C21.7165 23.1342 21.4928 23.0645 21.3637 22.8935L19.5656 20.5126Z" fill="black" fill-opacity="0.2"/>
</g>
<path d="M19.486 20.5724C19.2386 20.2446 19.386 19.7711 19.776 19.6419L22.6081 18.7037C22.8522 18.6229 23.1207 18.7066 23.2757 18.9118L25.0736 21.2927C25.3211 21.6205 25.1735 22.094 24.7836 22.2232L21.9515 23.1614C21.7074 23.2422 21.4388 23.1585 21.2839 22.9534L19.486 20.5724Z" stroke="#B8B8B8" stroke-width="0.2"/>
<g filter="url(#filter4_i_370_3354)">
<path d="M13.0734 11.9161C12.8671 11.6429 12.9902 11.2478 13.3152 11.1402L16.1475 10.2021C16.3509 10.1347 16.5746 10.2044 16.7037 10.3754L18.5018 12.7564C18.7081 13.0296 18.585 13.4247 18.26 13.5323L15.4277 14.4704C15.2243 14.5378 15.0006 14.4681 14.8715 14.2971L13.0734 11.9161Z" fill="black" fill-opacity="0.2"/>
</g>
<path d="M12.9938 11.976C12.7464 11.6481 12.8939 11.1747 13.2838 11.0455L16.1159 10.1073C16.36 10.0265 16.6285 10.1101 16.7835 10.3153L18.5814 12.6963C18.8289 13.0241 18.6813 13.4975 18.2914 13.6268L15.4593 14.5649C15.2152 14.6458 14.9466 14.5621 14.7917 14.3569L12.9938 11.976Z" stroke="#B8B8B8" stroke-width="0.2"/>
<g filter="url(#filter5_i_370_3354)">
<path d="M9.82779 7.61828C9.62146 7.34506 9.74457 6.94996 10.0696 6.84231L12.9019 5.90423C13.1053 5.83687 13.329 5.90658 13.4581 6.07755L15.2562 8.45851C15.4625 8.73173 15.3394 9.12683 15.0144 9.23447L12.1821 10.1726C11.9787 10.2399 11.755 10.1702 11.6259 9.99923L9.82779 7.61828Z" fill="black" fill-opacity="0.2"/>
</g>
<path d="M9.74823 7.67812C9.5008 7.35028 9.64826 6.87683 10.0382 6.74764L12.8703 5.80945C13.1144 5.72861 13.3829 5.8123 13.5379 6.01747L15.3358 8.39842C15.5833 8.72625 15.4357 9.19966 15.0458 9.3289L12.2137 10.2671C11.9696 10.3479 11.701 10.2642 11.5461 10.0591L9.74823 7.67812Z" stroke="#B8B8B8" stroke-width="0.2"/>
<path d="M31.321 29.9631L29.7743 27.7594" stroke="#A3A3A3" stroke-width="0.5" stroke-linecap="round"/>
<path d="M27.5774 31.206L26.0005 29.1099" stroke="#A3A3A3" stroke-width="0.5" stroke-linecap="round"/>
<path d="M11.5819 3.65508L9.72734 1.15564" stroke="#A3A3A3" stroke-width="0.5" stroke-linecap="round"/>
<path d="M7.84355 4.91691L6.26425 2.81094" stroke="#A3A3A3" stroke-width="0.5" stroke-linecap="round"/>
<defs>
<filter id="filter0_i_370_3354" x="6.59155" y="2.98792" width="24.3979" height="26.6" filterUnits="userSpaceOnUse" color-interpolation-filters="sRGB">
<feFlood flood-opacity="0" result="BackgroundImageFix"/>
<feBlend mode="normal" in="SourceGraphic" in2="BackgroundImageFix" result="shape"/>
<feColorMatrix in="SourceAlpha" type="matrix" values="0 0 0 0 0 0 0 0 0 0 0 0 0 0 0 0 0 0 127 0" result="hardAlpha"/>
<feOffset/>
<feGaussianBlur stdDeviation="0.75"/>
<feComposite in2="hardAlpha" operator="arithmetic" k2="-1" k3="1"/>
<feColorMatrix type="matrix" values="0 0 0 0 0 0 0 0 0 0 0 0 0 0 0 0 0 0 0.25 0"/>
<feBlend mode="normal" in2="shape" result="effect1_innerShadow_370_3354"/>
</filter>
<filter id="filter1_i_370_3354" x="22.51" y="22.8716" width="6.03125" height="5.71912" filterUnits="userSpaceOnUse" color-interpolation-filters="sRGB">
<feFlood flood-opacity="0" result="BackgroundImageFix"/>
<feBlend mode="normal" in="SourceGraphic" in2="BackgroundImageFix" result="shape"/>
<feColorMatrix in="SourceAlpha" type="matrix" values="0 0 0 0 0 0 0 0 0 0 0 0 0 0 0 0 0 0 127 0" result="hardAlpha"/>
<feOffset dy="1"/>
<feGaussianBlur stdDeviation="1"/>
<feComposite in2="hardAlpha" operator="arithmetic" k2="-1" k3="1"/>
<feColorMatrix type="matrix" values="0 0 0 0 0 0 0 0 0 0 0 0 0 0 0 0 0 0 0.25 0"/>
<feBlend mode="normal" in2="shape" result="effect1_innerShadow_370_3354"/>
</filter>
<filter id="filter2_i_370_3354" x="16.0176" y="14.2754" width="6.03125" height="5.71912" filterUnits="userSpaceOnUse" color-interpolation-filters="sRGB">
<feFlood flood-opacity="0" result="BackgroundImageFix"/>
<feBlend mode="normal" in="SourceGraphic" in2="BackgroundImageFix" result="shape"/>
<feColorMatrix in="SourceAlpha" type="matrix" values="0 0 0 0 0 0 0 0 0 0 0 0 0 0 0 0 0 0 127 0" result="hardAlpha"/>
<feOffset dy="1"/>
<feGaussianBlur stdDeviation="1"/>
<feComposite in2="hardAlpha" operator="arithmetic" k2="-1" k3="1"/>
<feColorMatrix type="matrix" values="0 0 0 0 0 0 0 0 0 0 0 0 0 0 0 0 0 0 0.25 0"/>
<feBlend mode="normal" in2="shape" result="effect1_innerShadow_370_3354"/>
</filter>
<filter id="filter3_i_370_3354" x="19.2642" y="18.5731" width="6.03125" height="5.71912" filterUnits="userSpaceOnUse" color-interpolation-filters="sRGB">
<feFlood flood-opacity="0" result="BackgroundImageFix"/>
<feBlend mode="normal" in="SourceGraphic" in2="BackgroundImageFix" result="shape"/>
<feColorMatrix in="SourceAlpha" type="matrix" values="0 0 0 0 0 0 0 0 0 0 0 0 0 0 0 0 0 0 127 0" result="hardAlpha"/>
<feOffset dy="1"/>
<feGaussianBlur stdDeviation="1"/>
<feComposite in2="hardAlpha" operator="arithmetic" k2="-1" k3="1"/>
<feColorMatrix type="matrix" values="0 0 0 0 0 0 0 0 0 0 0 0 0 0 0 0 0 0 0.25 0"/>
<feBlend mode="normal" in2="shape" result="effect1_innerShadow_370_3354"/>
</filter>
<filter id="filter4_i_370_3354" x="12.772" y="9.97668" width="6.03125" height="5.71912" filterUnits="userSpaceOnUse" color-interpolation-filters="sRGB">
<feFlood flood-opacity="0" result="BackgroundImageFix"/>
<feBlend mode="normal" in="SourceGraphic" in2="BackgroundImageFix" result="shape"/>
<feColorMatrix in="SourceAlpha" type="matrix" values="0 0 0 0 0 0 0 0 0 0 0 0 0 0 0 0 0 0 127 0" result="hardAlpha"/>
<feOffset dy="1"/>
<feGaussianBlur stdDeviation="1"/>
<feComposite in2="hardAlpha" operator="arithmetic" k2="-1" k3="1"/>
<feColorMatrix type="matrix" values="0 0 0 0 0 0 0 0 0 0 0 0 0 0 0 0 0 0 0.25 0"/>
<feBlend mode="normal" in2="shape" result="effect1_innerShadow_370_3354"/>
</filter>
<filter id="filter5_i_370_3354" x="9.52637" y="5.67883" width="6.03125" height="5.71912" filterUnits="userSpaceOnUse" color-interpolation-filters="sRGB">
<feFlood flood-opacity="0" result="BackgroundImageFix"/>
<feBlend mode="normal" in="SourceGraphic" in2="BackgroundImageFix" result="shape"/>
<feColorMatrix in="SourceAlpha" type="matrix" values="0 0 0 0 0 0 0 0 0 0 0 0 0 0 0 0 0 0 127 0" result="hardAlpha"/>
<feOffset dy="1"/>
<feGaussianBlur stdDeviation="1"/>
<feComposite in2="hardAlpha" operator="arithmetic" k2="-1" k3="1"/>
<feColorMatrix type="matrix" values="0 0 0 0 0 0 0 0 0 0 0 0 0 0 0 0 0 0 0.25 0"/>
<feBlend mode="normal" in2="shape" result="effect1_innerShadow_370_3354"/>
</filter>
</defs>
</svg>
