<svg width="24" height="32" viewBox="0 0 24 32" fill="none" xmlns="http://www.w3.org/2000/svg">
<g filter="url(#filter0_i_370_3463)">
<path d="M12 0C18.5237 0 23.8315 2.05658 23.9961 4.61816L24 4.74121L23.5547 10.4795C23.5067 11.096 23.1794 11.6602 22.6475 11.9756C17.7446 14.8812 10.5752 16.4307 1.55664 12.3418C0.911321 12.0492 0.490323 11.4176 0.438477 10.7109L0.0205078 5.02832C0.00787082 4.93355 2.06889e-05 4.83796 0 4.74121C2.18968e-08 1.97578 5.37258 1.74054e-07 12 0ZM17.5674 8.96387C15.9391 9.29656 14.0608 9.48145 12 9.48145C11.655 9.48145 11.314 9.47491 10.9775 9.46484C13.2305 9.54665 15.533 9.38479 17.5674 8.96387ZM17.7754 8.91992C17.8329 8.9074 17.8902 8.89478 17.9473 8.88184C17.8903 8.89461 17.833 8.90753 17.7754 8.91992ZM18.293 8.80176C18.3012 8.79974 18.3092 8.79695 18.3174 8.79492C18.3092 8.79693 18.3012 8.79976 18.293 8.80176Z" fill="#D9D9D9"/>
</g>
<g filter="url(#filter1_i_370_3463)">
<path d="M23.4775 10.6666C23.0929 14.1811 22.4346 17.7781 20.3477 20.5436C20.0249 20.9712 19.4646 21.3411 18.7393 21.651L18.4053 24.0983C18.3151 24.7576 17.9044 25.3348 17.2959 25.6041C13.2295 27.4042 10.6508 27.1638 6.77539 25.5905C6.12917 25.328 5.68229 24.7308 5.58789 24.0397L5.26367 21.6715C4.57587 21.3639 4.02052 20.9894 3.65234 20.5436C1.04376 17.3832 0.906217 14.3092 0.521484 11.0621C2.02411 15.1103 21.9581 15.4917 23.4775 10.6666Z" fill="#F2F2F2"/>
</g>
<path d="M7.30469 25.679C12.0003 27.2592 13.5548 26.9955 16.696 25.679V29.5275C16.696 29.8406 16.5511 30.1376 16.2922 30.3137C15.1743 31.0743 13.3836 31.9999 12.0003 31.9999C10.521 31.9999 9.1293 31.3391 7.70501 30.3196C7.45037 30.1374 7.30469 29.8406 7.30469 29.5275V25.679Z" fill="#D9D9D9"/>
<g filter="url(#filter2_d_370_3463)">
<path d="M7.30469 27.6543C7.30469 29.2345 16.696 29.6296 16.696 27.6543" stroke="black" stroke-opacity="0.25" stroke-width="0.2" stroke-linecap="round" shape-rendering="crispEdges"/>
</g>
<g filter="url(#filter3_d_370_3463)">
<path d="M7.30469 26.8643C7.30469 28.4445 16.696 28.8396 16.696 26.8643" stroke="black" stroke-opacity="0.25" stroke-width="0.2" stroke-linecap="round" shape-rendering="crispEdges"/>
</g>
<g filter="url(#filter4_d_370_3463)">
<path d="M7.30469 28.4445C7.30469 30.0247 16.696 30.4198 16.696 28.4445" stroke="black" stroke-opacity="0.25" stroke-width="0.2" stroke-linecap="round" shape-rendering="crispEdges"/>
</g>
<g filter="url(#filter5_d_370_3463)">
<path d="M7.30469 29.2346C7.30469 30.8149 16.696 31.2099 16.696 29.2346" stroke="black" stroke-opacity="0.25" stroke-width="0.2" stroke-linecap="round" shape-rendering="crispEdges"/>
</g>
<g filter="url(#filter6_f_370_3463)">
<path d="M5.99391 23.5596C5.452 23.5624 5.01048 23.1253 5.00775 22.5834C5.00417 21.872 5.7355 21.3943 6.39568 21.6592C10.4275 23.2769 13.1803 23.4925 17.2108 21.6802C17.8563 21.3899 18.6097 21.8433 18.6132 22.551C18.6158 23.0729 18.1949 23.4982 17.673 23.5008L5.99391 23.5596Z" fill="#DDDDDD"/>
</g>
<path d="M13.9696 20.8954L14.0695 20.893L14.0695 20.893L13.9696 20.8954ZM13.996 21.9668L14.0959 21.9644L14.0959 21.9644L13.996 21.9668ZM11.3078 18.9603C11.3078 19.2549 11.5466 19.4937 11.8411 19.4937C12.1357 19.4937 12.3745 19.2549 12.3745 18.9603C12.3745 18.6658 12.1357 18.427 11.8411 18.427C11.5466 18.427 11.3078 18.6658 11.3078 18.9603ZM8.58678 21.1782C8.58678 21.4727 8.82557 21.7115 9.12012 21.7115C9.41467 21.7115 9.65345 21.4727 9.65345 21.1782C9.65345 20.8836 9.41467 20.6449 9.12012 20.6449C8.82557 20.6449 8.58678 20.8836 8.58678 21.1782ZM14.2262 22.2967L14.263 22.2037L14.263 22.2037L14.2262 22.2967ZM13.9696 20.8954L13.8696 20.8979L13.896 21.9693L13.996 21.9668L14.0959 21.9644L14.0695 20.893L13.9696 20.8954ZM11.8411 18.9603V19.0603H11.9862V18.9603V18.8603H11.8411V18.9603ZM9.12012 21.8975H9.22012V21.1782H9.12012H9.02012V21.8975H9.12012ZM14.092 23V22.9H10.2226V23V23.1H14.092V23ZM9.12012 21.8975H9.02012C9.02012 22.5616 9.55851 23.1 10.2226 23.1V23V22.9C9.66897 22.9 9.22012 22.4512 9.22012 21.8975H9.12012ZM13.996 21.9668L13.896 21.9693C13.9006 22.1556 14.0161 22.3211 14.1894 22.3897L14.2262 22.2967L14.263 22.2037C14.1643 22.1647 14.0986 22.0704 14.0959 21.9644L13.996 21.9668ZM14.2262 22.2967L14.1894 22.3897C14.4606 22.4971 14.3837 22.9 14.092 22.9V23V23.1C14.6043 23.1 14.7393 22.3923 14.263 22.2037L14.2262 22.2967ZM13.9696 20.8954L14.0695 20.893C14.0417 19.7624 13.1172 18.8603 11.9862 18.8603V18.9603V19.0603C13.0086 19.0603 13.8444 19.8758 13.8696 20.8979L13.9696 20.8954Z" fill="#C5C5C5"/>
<path d="M11.0725 21.099C11.0725 21.3936 11.3113 21.6324 11.6058 21.6324C11.9004 21.6324 12.1392 21.3936 12.1392 21.099C12.1392 20.8045 11.9004 20.5657 11.6058 20.5657C11.3113 20.5657 11.0725 20.8045 11.0725 21.099ZM11.0725 17.8514C11.0725 18.146 11.3113 18.3848 11.6058 18.3848C11.9004 18.3848 12.1392 18.146 12.1392 17.8514C12.1392 17.5569 11.9004 17.3181 11.6058 17.3181C11.3113 17.3181 11.0725 17.5569 11.0725 17.8514ZM10.085 21.8799H10.185V19.7737H10.085H9.98496V21.8799H10.085ZM12.1662 19.7525V19.8525H12.9447V19.7525V19.6525H12.1662V19.7525ZM11.6058 20.3128H11.5058V21.099H11.6058H11.7058V20.3128H11.6058ZM10.3816 19.0629L10.4519 19.134L11.6762 17.9225L11.6058 17.8514L11.5355 17.7804L10.3112 18.9918L10.3816 19.0629ZM13.2068 22.2V22.1H10.4051V22.2V22.3H13.2068V22.2ZM13.2868 20.0945H13.1868V22.12H13.2868H13.3868V20.0945H13.2868ZM12.1662 19.7525V19.6525C11.8015 19.6525 11.5058 19.9481 11.5058 20.3128H11.6058H11.7058C11.7058 20.0586 11.9119 19.8525 12.1662 19.8525V19.7525ZM10.085 21.8799H9.98496C9.98496 22.1119 10.1731 22.3 10.4051 22.3V22.2V22.1C10.2835 22.1 10.185 22.0015 10.185 21.8799H10.085ZM13.2068 22.2V22.3C13.3062 22.3 13.3868 22.2194 13.3868 22.12H13.2868H13.1868C13.1868 22.109 13.1957 22.1 13.2068 22.1V22.2ZM12.9447 19.7525V19.8525C13.0784 19.8525 13.1868 19.9608 13.1868 20.0945H13.2868H13.3868C13.3868 19.8504 13.1889 19.6525 12.9447 19.6525V19.7525ZM10.085 19.7737H10.185C10.185 19.5334 10.2811 19.303 10.4519 19.134L10.3816 19.0629L10.3112 18.9918C10.1024 19.1984 9.98496 19.48 9.98496 19.7737H10.085Z" fill="#A1A2A2"/>
<path d="M12.0355 16.2679L12.1062 16.1972L12.0348 16.1258L11.9641 16.198L12.0355 16.2679ZM14.6693 19.4363C14.6693 19.7309 14.9081 19.9697 15.2027 19.9697C15.4972 19.9697 15.736 19.7309 15.736 19.4363C15.736 19.1418 15.4972 18.903 15.2027 18.903C14.9081 18.903 14.6693 19.1418 14.6693 19.4363ZM9.28047 20.3284C9.3357 20.3284 9.38047 20.2837 9.38047 20.2284C9.38047 20.1732 9.3357 20.1284 9.28047 20.1284V20.3284ZM8 20.2284L7.92965 20.1574L7.75681 20.3284H8V20.2284ZM10.4895 17.7029C10.4509 17.7424 10.4515 17.8057 10.491 17.8444C10.5304 17.883 10.5937 17.8824 10.6324 17.8429L10.4895 17.7029ZM9.67094 18.7153C9.71019 18.6765 9.71052 18.6131 9.67166 18.5739C9.63281 18.5346 9.5695 18.5343 9.53025 18.5732L9.67094 18.7153ZM12.0355 16.2679L11.9648 16.3386L15.1319 19.507L15.2027 19.4363L15.2734 19.3656L12.1062 16.1972L12.0355 16.2679ZM9.28047 20.2284V20.1284H8V20.2284V20.3284H9.28047V20.2284ZM10.5609 17.7729L10.6324 17.8429L12.1069 16.3379L12.0355 16.2679L11.9641 16.198L10.4895 17.7029L10.5609 17.7729ZM8 20.2284L8.07035 20.2995L9.67094 18.7153L9.60059 18.6442L9.53025 18.5732L7.92965 20.1574L8 20.2284Z" fill="#C5C5C5"/>
<path d="M10.561 17.7727V17.139H10.8812V16.5054H10.481C10.481 16.5054 10.3209 16.743 10.0807 16.743C9.8406 16.743 9.6805 16.5054 9.6805 16.5054H9.28027V17.139H9.60046V18.644" stroke="#C5C5C5" stroke-width="0.2"/>
<ellipse cx="10.0858" cy="16.2675" rx="0.320185" ry="0.316839" fill="#C5C5C5"/>
<path d="M9.16201 15.3854C9.13957 15.3428 9.15419 15.2899 9.19599 15.2661C9.81362 14.9141 10.3373 14.9091 10.9663 15.2647C11.0097 15.2892 11.025 15.3441 11.0017 15.3882V15.3882C10.9767 15.4357 10.9171 15.4524 10.8701 15.4267C10.2927 15.1101 9.83999 15.0817 9.29483 15.4198C9.24876 15.4484 9.18729 15.4333 9.16201 15.3854V15.3854Z" fill="#A1A2A2"/>
<path d="M9.46504 15.5746C9.45011 15.5462 9.45985 15.5109 9.4877 15.495C9.8995 15.2597 10.2487 15.2563 10.668 15.4941C10.697 15.5105 10.7071 15.547 10.6916 15.5765V15.5765C10.675 15.6083 10.6351 15.6195 10.6036 15.6022C10.2189 15.3908 9.91713 15.3718 9.55384 15.5976C9.52304 15.6167 9.48191 15.6067 9.46504 15.5746V15.5746Z" fill="#C5C5C5"/>
<path d="M9.61625 15.8778C9.60751 15.8557 9.61409 15.8303 9.63298 15.8158C9.94592 15.575 10.2102 15.5714 10.5289 15.8145C10.5489 15.8297 10.5558 15.8565 10.5466 15.8798V15.8798C10.5326 15.9155 10.4881 15.9276 10.4569 15.9053C10.1832 15.7109 9.96438 15.6938 9.7054 15.9001C9.67552 15.9238 9.63026 15.9134 9.61625 15.8778V15.8778Z" fill="#A1A2A2"/>
<defs>
<filter id="filter0_i_370_3463" x="0" y="0" width="24" height="15.8296" filterUnits="userSpaceOnUse" color-interpolation-filters="sRGB">
<feFlood flood-opacity="0" result="BackgroundImageFix"/>
<feBlend mode="normal" in="SourceGraphic" in2="BackgroundImageFix" result="shape"/>
<feColorMatrix in="SourceAlpha" type="matrix" values="0 0 0 0 0 0 0 0 0 0 0 0 0 0 0 0 0 0 127 0" result="hardAlpha"/>
<feOffset dy="1"/>
<feGaussianBlur stdDeviation="1"/>
<feComposite in2="hardAlpha" operator="arithmetic" k2="-1" k3="1"/>
<feColorMatrix type="matrix" values="0 0 0 0 0 0 0 0 0 0 0 0 0 0 0 0 0 0 0.25 0"/>
<feBlend mode="normal" in2="shape" result="effect1_innerShadow_370_3463"/>
</filter>
<filter id="filter1_i_370_3463" x="0.521484" y="10.6666" width="22.9561" height="16.1975" filterUnits="userSpaceOnUse" color-interpolation-filters="sRGB">
<feFlood flood-opacity="0" result="BackgroundImageFix"/>
<feBlend mode="normal" in="SourceGraphic" in2="BackgroundImageFix" result="shape"/>
<feColorMatrix in="SourceAlpha" type="matrix" values="0 0 0 0 0 0 0 0 0 0 0 0 0 0 0 0 0 0 127 0" result="hardAlpha"/>
<feOffset/>
<feGaussianBlur stdDeviation="0.5"/>
<feComposite in2="hardAlpha" operator="arithmetic" k2="-1" k3="1"/>
<feColorMatrix type="matrix" values="0 0 0 0 0 0 0 0 0 0 0 0 0 0 0 0 0 0 0.25 0"/>
<feBlend mode="normal" in2="shape" result="effect1_innerShadow_370_3463"/>
</filter>
<filter id="filter2_d_370_3463" x="7.20459" y="27.5543" width="9.59131" height="1.73735" filterUnits="userSpaceOnUse" color-interpolation-filters="sRGB">
<feFlood flood-opacity="0" result="BackgroundImageFix"/>
<feColorMatrix in="SourceAlpha" type="matrix" values="0 0 0 0 0 0 0 0 0 0 0 0 0 0 0 0 0 0 127 0" result="hardAlpha"/>
<feOffset dy="0.2"/>
<feComposite in2="hardAlpha" operator="out"/>
<feColorMatrix type="matrix" values="0 0 0 0 0 0 0 0 0 0 0 0 0 0 0 0 0 0 0.25 0"/>
<feBlend mode="normal" in2="BackgroundImageFix" result="effect1_dropShadow_370_3463"/>
<feBlend mode="normal" in="SourceGraphic" in2="effect1_dropShadow_370_3463" result="shape"/>
</filter>
<filter id="filter3_d_370_3463" x="7.20459" y="26.7643" width="9.59131" height="1.73735" filterUnits="userSpaceOnUse" color-interpolation-filters="sRGB">
<feFlood flood-opacity="0" result="BackgroundImageFix"/>
<feColorMatrix in="SourceAlpha" type="matrix" values="0 0 0 0 0 0 0 0 0 0 0 0 0 0 0 0 0 0 127 0" result="hardAlpha"/>
<feOffset dy="0.2"/>
<feComposite in2="hardAlpha" operator="out"/>
<feColorMatrix type="matrix" values="0 0 0 0 0 0 0 0 0 0 0 0 0 0 0 0 0 0 0.25 0"/>
<feBlend mode="normal" in2="BackgroundImageFix" result="effect1_dropShadow_370_3463"/>
<feBlend mode="normal" in="SourceGraphic" in2="effect1_dropShadow_370_3463" result="shape"/>
</filter>
<filter id="filter4_d_370_3463" x="7.20459" y="28.3445" width="9.59131" height="1.73735" filterUnits="userSpaceOnUse" color-interpolation-filters="sRGB">
<feFlood flood-opacity="0" result="BackgroundImageFix"/>
<feColorMatrix in="SourceAlpha" type="matrix" values="0 0 0 0 0 0 0 0 0 0 0 0 0 0 0 0 0 0 127 0" result="hardAlpha"/>
<feOffset dy="0.2"/>
<feComposite in2="hardAlpha" operator="out"/>
<feColorMatrix type="matrix" values="0 0 0 0 0 0 0 0 0 0 0 0 0 0 0 0 0 0 0.25 0"/>
<feBlend mode="normal" in2="BackgroundImageFix" result="effect1_dropShadow_370_3463"/>
<feBlend mode="normal" in="SourceGraphic" in2="effect1_dropShadow_370_3463" result="shape"/>
</filter>
<filter id="filter5_d_370_3463" x="7.20459" y="29.1346" width="9.59131" height="1.73735" filterUnits="userSpaceOnUse" color-interpolation-filters="sRGB">
<feFlood flood-opacity="0" result="BackgroundImageFix"/>
<feColorMatrix in="SourceAlpha" type="matrix" values="0 0 0 0 0 0 0 0 0 0 0 0 0 0 0 0 0 0 127 0" result="hardAlpha"/>
<feOffset dy="0.2"/>
<feComposite in2="hardAlpha" operator="out"/>
<feColorMatrix type="matrix" values="0 0 0 0 0 0 0 0 0 0 0 0 0 0 0 0 0 0 0.25 0"/>
<feBlend mode="normal" in2="BackgroundImageFix" result="effect1_dropShadow_370_3463"/>
<feBlend mode="normal" in="SourceGraphic" in2="effect1_dropShadow_370_3463" result="shape"/>
</filter>
<filter id="filter6_f_370_3463" x="2.20781" y="18.7851" width="19.2055" height="7.57461" filterUnits="userSpaceOnUse" color-interpolation-filters="sRGB">
<feFlood flood-opacity="0" result="BackgroundImageFix"/>
<feBlend mode="normal" in="SourceGraphic" in2="BackgroundImageFix" result="shape"/>
<feGaussianBlur stdDeviation="1.4" result="effect1_foregroundBlur_370_3463"/>
</filter>
</defs>
</svg>
