<svg width="38" height="33" viewBox="0 0 38 33" fill="none" xmlns="http://www.w3.org/2000/svg">
<g filter="url(#filter0_i_370_3333)">
<path d="M7.28364 6.79156C6.88311 6.2493 7.12295 5.47415 7.75975 5.25285L12.6793 3.54319C13.0902 3.40039 13.5463 3.53961 13.8074 3.88754L30.2844 25.8432C30.6985 26.395 30.4426 27.1905 29.7845 27.3974L24.5566 29.0414C24.1495 29.1695 23.7059 29.025 23.4523 28.6816L7.28364 6.79156Z" fill="#F7F7F7"/>
</g>
<path d="M7.0828 6.94045C6.58213 6.26262 6.88215 5.29341 7.67814 5.01679L12.597 3.30704C13.1106 3.12855 13.6811 3.30247 14.0075 3.73734L30.4844 25.6929C31.002 26.3826 30.6821 27.3773 29.8595 27.636L24.6317 29.2802C24.1227 29.4402 23.5678 29.2596 23.2508 28.8304L7.0828 6.94045Z" stroke="#A3A3A3" stroke-width="0.5"/>
<g filter="url(#filter1_i_370_3333)">
<path d="M22.6889 25.0675C22.4944 24.7974 22.6132 24.4162 22.9267 24.3044L25.8152 23.274C26.025 23.1992 26.2589 23.2721 26.389 23.4528L28.1809 25.9417C28.3754 26.2118 28.2566 26.5929 27.9432 26.7047L25.0546 27.7351C24.8449 27.8099 24.6109 27.737 24.4808 27.5563L22.6889 25.0675Z" fill="url(#paint0_linear_370_3333)" fill-opacity="0.4"/>
</g>
<path d="M22.608 25.1258C22.3747 24.8017 22.5172 24.3444 22.8933 24.2102L25.7818 23.1801C26.0334 23.0903 26.3137 23.1777 26.4698 23.3945L28.2618 25.8831C28.4952 26.2072 28.3527 26.6645 27.9765 26.7986L25.0881 27.8287C24.8364 27.9185 24.5561 27.8312 24.4 27.6143L22.608 25.1258Z" stroke="#F49911" stroke-width="0.2"/>
<g filter="url(#filter2_i_370_3333)">
<path d="M16.2887 16.1779C16.0943 15.9078 16.213 15.5267 16.5265 15.4148L19.4151 14.3845C19.6248 14.3097 19.8587 14.3826 19.9888 14.5633L21.7808 17.0521C21.9753 17.3222 21.8565 17.7034 21.543 17.8152L18.6544 18.8456C18.4447 18.9204 18.2108 18.8475 18.0807 18.6668L16.2887 16.1779Z" fill="url(#paint1_linear_370_3333)" fill-opacity="0.4"/>
</g>
<path d="M16.2079 16.2363C15.9745 15.9121 16.117 15.4549 16.4932 15.3207L19.3816 14.2906C19.6333 14.2008 19.9135 14.2882 20.0697 14.505L21.8616 16.9935C22.095 17.3177 21.9525 17.7749 21.5763 17.9091L18.6879 18.9392C18.4363 19.029 18.156 18.9417 17.9999 18.7248L16.2079 16.2363Z" stroke="#F49911" stroke-width="0.2"/>
<g filter="url(#filter3_i_370_3333)">
<path d="M19.4894 20.6223C19.295 20.3522 19.4137 19.971 19.7272 19.8592L22.6158 18.8288C22.8255 18.754 23.0594 18.8269 23.1895 19.0076L24.9815 21.4965C25.1759 21.7666 25.0572 22.1477 24.7437 22.2595L21.8551 23.2899C21.6454 23.3647 21.4115 23.2918 21.2814 23.1111L19.4894 20.6223Z" fill="url(#paint2_linear_370_3333)" fill-opacity="0.4"/>
</g>
<path d="M19.4086 20.6806C19.1752 20.3565 19.3177 19.8992 19.6939 19.765L22.5823 18.7349C22.8339 18.6452 23.1142 18.7325 23.2704 18.9493L25.0623 21.4379C25.2957 21.762 25.1532 22.2193 24.777 22.3534L21.8886 23.3836C21.6369 23.4733 21.3567 23.386 21.2005 23.1692L19.4086 20.6806Z" stroke="#F49911" stroke-width="0.2"/>
<g filter="url(#filter4_i_370_3333)">
<path d="M13.089 11.7325C12.8946 11.4624 13.0133 11.0812 13.3268 10.9694L16.2154 9.93905C16.4251 9.86424 16.659 9.93713 16.7891 10.1178L18.5811 12.6067C18.7756 12.8768 18.6568 13.258 18.3433 13.3698L15.4547 14.4001C15.245 14.475 15.0111 14.4021 14.881 14.2214L13.089 11.7325Z" fill="url(#paint3_linear_370_3333)" fill-opacity="0.4"/>
</g>
<path d="M13.0082 11.7908C12.7748 11.4667 12.9173 11.0094 13.2935 10.8753L16.1819 9.84514C16.4335 9.75539 16.7138 9.84275 16.87 10.0596L18.6619 12.5481C18.8953 12.8722 18.7528 13.3295 18.3766 13.4637L15.4882 14.4938C15.2366 14.5836 14.9563 14.4962 14.8002 14.2794L13.0082 11.7908Z" stroke="#F49911" stroke-width="0.2"/>
<g filter="url(#filter5_i_370_3333)">
<path d="M9.93661 7.04636C9.75115 6.77889 9.86661 6.40835 10.1712 6.29358L13.327 5.10435C13.5415 5.0235 13.7836 5.09892 13.9142 5.28732L15.8359 8.05874C16.0213 8.32621 15.9058 8.69675 15.6013 8.81153L12.4455 10.0008C12.2309 10.0816 11.9889 10.0062 11.8583 9.81778L9.93661 7.04636Z" fill="url(#paint4_linear_370_3333)" fill-opacity="0.4"/>
</g>
<path d="M9.85486 7.1034C9.63231 6.78244 9.7709 6.33768 10.1364 6.19996L13.2922 5.01076C13.5495 4.91405 13.8394 5.00435 13.9962 5.23011L15.9179 8.00152C16.1404 8.32248 16.0018 8.76723 15.6363 8.90496L12.4805 10.0942C12.2232 10.191 11.9333 10.1007 11.7766 9.87481L9.85486 7.1034Z" stroke="#F49911" stroke-width="0.2"/>
<path d="M31.3171 29.9629L29.7704 27.7592" stroke="#A3A3A3" stroke-width="0.5" stroke-linecap="round"/>
<path d="M27.5734 31.2058L25.9966 29.1097" stroke="#A3A3A3" stroke-width="0.5" stroke-linecap="round"/>
<path d="M11.5778 3.65471L9.72319 1.15528" stroke="#A3A3A3" stroke-width="0.5" stroke-linecap="round"/>
<path d="M7.8394 4.91667L6.2601 2.81069" stroke="#A3A3A3" stroke-width="0.5" stroke-linecap="round"/>
<path d="M14.5613 7.96764L14.5153 7.98652L14.5613 7.96764ZM14.8412 8.44052L14.8873 8.42164L14.8412 8.44052ZM12.7307 7.65313C12.8022 7.78187 12.9719 7.84404 13.1097 7.792C13.2474 7.73995 13.3011 7.59339 13.2296 7.46465C13.1581 7.3359 12.9884 7.27373 12.8506 7.32578C12.7129 7.37783 12.6592 7.52439 12.7307 7.65313ZM11.8379 9.16317C11.9094 9.29191 12.0791 9.35409 12.2168 9.30204C12.3546 9.24999 12.4083 9.10343 12.3368 8.97469C12.2653 8.84595 12.0956 8.78378 11.9578 8.83582C11.8201 8.88787 11.7664 9.03443 11.8379 9.16317ZM15.0362 8.54345L15.0288 8.49636L15.0362 8.54345ZM14.5613 7.96764L14.5153 7.98652L14.7951 8.45939L14.8412 8.44052L14.8873 8.42164L14.6074 7.94877L14.5613 7.96764ZM12.9802 7.55889L13.0044 7.6026L13.2087 7.52541L13.1845 7.4817L13.1602 7.438L12.9559 7.51518L12.9802 7.55889ZM12.2554 9.37146L12.3022 9.35379L12.1341 9.05126L12.0873 9.06893L12.0406 9.0866L12.2086 9.38913L12.2554 9.37146ZM15.1516 8.87464L15.1274 8.83094L13.0337 9.62186L13.058 9.66557L13.0823 9.70928L15.1759 8.91835L15.1516 8.87464ZM12.2554 9.37146L12.2086 9.38913C12.3735 9.68593 12.7647 9.82927 13.0823 9.70928L13.058 9.66557L13.0337 9.62186C12.7678 9.72233 12.4403 9.60231 12.3022 9.35379L12.2554 9.37146ZM14.8412 8.44052L14.7951 8.45939C14.8443 8.54254 14.9431 8.59469 15.0436 8.59055L15.0362 8.54345L15.0288 8.49636C14.9716 8.49872 14.9153 8.46901 14.8873 8.42164L14.8412 8.44052ZM15.0362 8.54345L15.0436 8.59055C15.1989 8.58413 15.2666 8.77832 15.1274 8.83094L15.1516 8.87464L15.1759 8.91835C15.4204 8.82598 15.3016 8.48509 15.0288 8.49636L15.0362 8.54345ZM14.5613 7.96764L14.6074 7.94877C14.3227 7.46762 13.6811 7.2412 13.1602 7.438L13.1845 7.4817L13.2087 7.52541C13.679 7.34775 14.2582 7.55216 14.5153 7.98652L14.5613 7.96764Z" fill="#F49911"/>
<path d="M13.1229 8.63514C13.1944 8.76388 13.3641 8.82606 13.5018 8.77401C13.6396 8.72196 13.6933 8.5754 13.6218 8.44666C13.5503 8.31792 13.3806 8.25575 13.2428 8.30779C13.1051 8.35984 13.0513 8.5064 13.1229 8.63514ZM12.3343 7.21578C12.4059 7.34452 12.5755 7.40669 12.7133 7.35465C12.8511 7.3026 12.9048 7.15604 12.8333 7.0273C12.7617 6.89856 12.5921 6.83638 12.4543 6.88843C12.3165 6.94048 12.2628 7.08704 12.3343 7.21578ZM12.2493 7.86056L12.2002 7.83942L12.2493 7.86056ZM12.7524 9.16692L12.7992 9.14925L12.3234 8.29291L12.2766 8.31058L12.2299 8.32825L12.7056 9.18459L12.7524 9.16692ZM13.3401 7.84106L13.3643 7.88477L13.7937 7.72256L13.7694 7.67885L13.7452 7.63514L13.3158 7.79735L13.3401 7.84106ZM13.1984 8.22775L13.1516 8.24542L13.3256 8.55857L13.3723 8.5409L13.4191 8.52323L13.2451 8.21008L13.1984 8.22775ZM12.2493 7.86056L12.2985 7.88169L12.6329 7.14268L12.5838 7.12154L12.5347 7.1004L12.2002 7.83942L12.2493 7.86056ZM14.4816 8.70403L14.4573 8.66032L12.9839 9.21695L13.0082 9.26065L13.0325 9.30436L14.5059 8.74774L14.4816 8.70403ZM14.0125 7.76791L13.9657 7.78558L14.4551 8.66645L14.5019 8.64878L14.5486 8.63111L14.0593 7.75024L14.0125 7.76791ZM13.3401 7.84106L13.3158 7.79735C13.1272 7.86859 13.0537 8.0692 13.1516 8.24542L13.1984 8.22775L13.2451 8.21008C13.1741 8.08214 13.2274 7.93649 13.3643 7.88477L13.3401 7.84106ZM12.7524 9.16692L12.7056 9.18459C12.7673 9.29563 12.9136 9.34925 13.0325 9.30436L13.0082 9.26065L12.9839 9.21695C12.9167 9.24232 12.834 9.21201 12.7992 9.14925L12.7524 9.16692ZM14.4816 8.70403L14.5059 8.74774C14.555 8.72919 14.5741 8.67698 14.5486 8.63111L14.5019 8.64878L14.4551 8.66645C14.4537 8.66404 14.4547 8.66129 14.4573 8.66032L14.4816 8.70403ZM13.7694 7.67885L13.7937 7.72256C13.8562 7.69894 13.9332 7.72715 13.9657 7.78558L14.0125 7.76791L14.0593 7.75024C14 7.64353 13.8593 7.592 13.7452 7.63514L13.7694 7.67885ZM12.2766 8.31058L12.3234 8.29291C12.2495 8.15982 12.2404 8.01001 12.2985 7.88169L12.2493 7.86056L12.2002 7.83942C12.1312 7.99196 12.142 8.17004 12.2299 8.32825L12.2766 8.31058Z" fill="#A1A2A2"/>
<path d="M12.4284 6.34369L12.4414 6.29929L12.3955 6.28505L12.379 6.3232L12.4284 6.34369ZM14.6143 7.19329C14.6858 7.32203 14.8555 7.38421 14.9933 7.33216C15.131 7.28011 15.1847 7.13355 15.1132 7.00481C15.0417 6.87607 14.872 6.8139 14.7343 6.86594C14.5965 6.91799 14.5428 7.06455 14.6143 7.19329ZM11.9651 8.66581C11.991 8.65605 12.001 8.62857 11.9876 8.60443C11.9742 8.58029 11.9424 8.56864 11.9166 8.5784L11.9651 8.66581ZM11.2673 8.87656L11.2182 8.85542L11.1676 8.9671L11.2916 8.92027L11.2673 8.87656ZM11.9688 7.27398C11.9587 7.29743 11.9726 7.32561 11.9999 7.33693C12.0272 7.34824 12.0575 7.33841 12.0676 7.31496L11.9688 7.27398ZM11.7737 7.88726C11.7843 7.86398 11.7708 7.83565 11.7437 7.82398C11.7165 7.8123 11.686 7.82171 11.6755 7.84498L11.7737 7.88726ZM12.4284 6.34369L12.4155 6.38809L14.8508 7.14345L14.8638 7.09905L14.8767 7.05465L12.4414 6.29929L12.4284 6.34369ZM11.9409 8.6221L11.9166 8.5784L11.243 8.83285L11.2673 8.87656L11.2916 8.92027L11.9651 8.66581L11.9409 8.6221ZM12.0182 7.29447L12.0676 7.31496L12.4779 6.36419L12.4284 6.34369L12.379 6.3232L11.9688 7.27398L12.0182 7.29447ZM11.2673 8.87656L11.3164 8.8977L11.7737 7.88726L11.7246 7.86612L11.6755 7.84498L11.2182 8.85542L11.2673 8.87656Z" fill="#F49911"/>
<path d="M12.0182 7.29468L11.8643 7.01773L12.0327 6.95412L11.8788 6.67717L11.6683 6.75669C11.6683 6.75669 11.6418 6.89235 11.5155 6.94006C11.3892 6.98777 11.2474 6.91572 11.2474 6.91572L11.0369 6.99524L11.1907 7.27219L11.3591 7.20857L11.7245 7.86633" stroke="#F49911" stroke-width="0.1"/>
<ellipse cx="0.180006" cy="0.158409" rx="0.180006" ry="0.158409" transform="matrix(0.935472 -0.353401 0.485643 0.874157 11.1545 6.65796)" fill="#F49911"/>
<path d="M10.7056 6.53194C10.6817 6.51667 10.675 6.48771 10.6914 6.46876C10.9301 6.19375 11.2036 6.08785 11.6189 6.11776C11.6479 6.11985 11.6708 6.14368 11.6692 6.16936C11.6677 6.1933 11.6452 6.21016 11.6182 6.20838C11.2299 6.18285 10.9819 6.26096 10.7748 6.52368C10.7597 6.54286 10.729 6.54686 10.7056 6.53194Z" fill="#A1A2A2"/>
<path d="M10.9104 6.55246C10.8944 6.54228 10.8899 6.52298 10.9009 6.51034C11.06 6.327 11.2423 6.2564 11.5192 6.27634C11.5385 6.27774 11.5538 6.29362 11.5527 6.31074C11.5517 6.3267 11.5368 6.33794 11.5187 6.33676C11.2598 6.31974 11.0945 6.37181 10.9565 6.54695C10.9464 6.55974 10.9259 6.56241 10.9104 6.55246Z" fill="#F49911"/>
<path d="M11.0627 6.6555C11.0515 6.64662 11.0481 6.63246 11.0549 6.62184C11.1608 6.45617 11.2983 6.40237 11.5232 6.44432C11.538 6.44709 11.5493 6.459 11.5502 6.47236C11.5514 6.49001 11.5344 6.50271 11.5147 6.49947C11.3185 6.46716 11.1973 6.50348 11.11 6.64968C11.1011 6.66465 11.0782 6.6678 11.0627 6.6555Z" fill="#A1A2A2"/>
<defs>
<filter id="filter0_i_370_3333" x="6.5874" y="2.98767" width="24.3979" height="26.6" filterUnits="userSpaceOnUse" color-interpolation-filters="sRGB">
<feFlood flood-opacity="0" result="BackgroundImageFix"/>
<feBlend mode="normal" in="SourceGraphic" in2="BackgroundImageFix" result="shape"/>
<feColorMatrix in="SourceAlpha" type="matrix" values="0 0 0 0 0 0 0 0 0 0 0 0 0 0 0 0 0 0 127 0" result="hardAlpha"/>
<feOffset/>
<feGaussianBlur stdDeviation="0.75"/>
<feComposite in2="hardAlpha" operator="arithmetic" k2="-1" k3="1"/>
<feColorMatrix type="matrix" values="0 0 0 0 0 0 0 0 0 0 0 0 0 0 0 0 0 0 0.25 0"/>
<feBlend mode="normal" in2="shape" result="effect1_innerShadow_370_3333"/>
</filter>
<filter id="filter1_i_370_3333" x="22.3943" y="23.0449" width="6.0813" height="5.91931" filterUnits="userSpaceOnUse" color-interpolation-filters="sRGB">
<feFlood flood-opacity="0" result="BackgroundImageFix"/>
<feBlend mode="normal" in="SourceGraphic" in2="BackgroundImageFix" result="shape"/>
<feColorMatrix in="SourceAlpha" type="matrix" values="0 0 0 0 0 0 0 0 0 0 0 0 0 0 0 0 0 0 127 0" result="hardAlpha"/>
<feOffset dy="1"/>
<feGaussianBlur stdDeviation="1.5"/>
<feComposite in2="hardAlpha" operator="arithmetic" k2="-1" k3="1"/>
<feColorMatrix type="matrix" values="0 0 0 0 1 0 0 0 0 0.717647 0 0 0 0 0.0117647 0 0 0 1 0"/>
<feBlend mode="normal" in2="shape" result="effect1_innerShadow_370_3333"/>
</filter>
<filter id="filter2_i_370_3333" x="15.9941" y="14.1554" width="6.0813" height="5.91931" filterUnits="userSpaceOnUse" color-interpolation-filters="sRGB">
<feFlood flood-opacity="0" result="BackgroundImageFix"/>
<feBlend mode="normal" in="SourceGraphic" in2="BackgroundImageFix" result="shape"/>
<feColorMatrix in="SourceAlpha" type="matrix" values="0 0 0 0 0 0 0 0 0 0 0 0 0 0 0 0 0 0 127 0" result="hardAlpha"/>
<feOffset dy="1"/>
<feGaussianBlur stdDeviation="1.5"/>
<feComposite in2="hardAlpha" operator="arithmetic" k2="-1" k3="1"/>
<feColorMatrix type="matrix" values="0 0 0 0 1 0 0 0 0 0.717647 0 0 0 0 0.0117647 0 0 0 1 0"/>
<feBlend mode="normal" in2="shape" result="effect1_innerShadow_370_3333"/>
</filter>
<filter id="filter3_i_370_3333" x="19.1948" y="18.5997" width="6.0813" height="5.91931" filterUnits="userSpaceOnUse" color-interpolation-filters="sRGB">
<feFlood flood-opacity="0" result="BackgroundImageFix"/>
<feBlend mode="normal" in="SourceGraphic" in2="BackgroundImageFix" result="shape"/>
<feColorMatrix in="SourceAlpha" type="matrix" values="0 0 0 0 0 0 0 0 0 0 0 0 0 0 0 0 0 0 127 0" result="hardAlpha"/>
<feOffset dy="1"/>
<feGaussianBlur stdDeviation="1.5"/>
<feComposite in2="hardAlpha" operator="arithmetic" k2="-1" k3="1"/>
<feColorMatrix type="matrix" values="0 0 0 0 1 0 0 0 0 0.717647 0 0 0 0 0.0117647 0 0 0 1 0"/>
<feBlend mode="normal" in2="shape" result="effect1_innerShadow_370_3333"/>
</filter>
<filter id="filter4_i_370_3333" x="12.7944" y="9.70996" width="6.0813" height="5.91931" filterUnits="userSpaceOnUse" color-interpolation-filters="sRGB">
<feFlood flood-opacity="0" result="BackgroundImageFix"/>
<feBlend mode="normal" in="SourceGraphic" in2="BackgroundImageFix" result="shape"/>
<feColorMatrix in="SourceAlpha" type="matrix" values="0 0 0 0 0 0 0 0 0 0 0 0 0 0 0 0 0 0 127 0" result="hardAlpha"/>
<feOffset dy="1"/>
<feGaussianBlur stdDeviation="1.5"/>
<feComposite in2="hardAlpha" operator="arithmetic" k2="-1" k3="1"/>
<feColorMatrix type="matrix" values="0 0 0 0 1 0 0 0 0 0.717647 0 0 0 0 0.0117647 0 0 0 1 0"/>
<feBlend mode="normal" in2="shape" result="effect1_innerShadow_370_3333"/>
</filter>
<filter id="filter5_i_370_3333" x="9.64722" y="4.87219" width="6.47803" height="6.36072" filterUnits="userSpaceOnUse" color-interpolation-filters="sRGB">
<feFlood flood-opacity="0" result="BackgroundImageFix"/>
<feBlend mode="normal" in="SourceGraphic" in2="BackgroundImageFix" result="shape"/>
<feColorMatrix in="SourceAlpha" type="matrix" values="0 0 0 0 0 0 0 0 0 0 0 0 0 0 0 0 0 0 127 0" result="hardAlpha"/>
<feOffset dy="1"/>
<feGaussianBlur stdDeviation="1.5"/>
<feComposite in2="hardAlpha" operator="arithmetic" k2="-1" k3="1"/>
<feColorMatrix type="matrix" values="0 0 0 0 1 0 0 0 0 0.717647 0 0 0 0 0.0117647 0 0 0 1 0"/>
<feBlend mode="normal" in2="shape" result="effect1_innerShadow_370_3333"/>
</filter>
<linearGradient id="paint0_linear_370_3333" x1="22.3003" y1="24.5278" x2="28.5695" y2="26.4813" gradientUnits="userSpaceOnUse">
<stop stop-color="#FFB703"/>
<stop offset="1" stop-color="#F9A03F"/>
</linearGradient>
<linearGradient id="paint1_linear_370_3333" x1="15.9002" y1="15.6383" x2="22.1693" y2="17.5918" gradientUnits="userSpaceOnUse">
<stop stop-color="#FFB703"/>
<stop offset="1" stop-color="#F9A03F"/>
</linearGradient>
<linearGradient id="paint2_linear_370_3333" x1="19.1009" y1="20.0826" x2="25.37" y2="22.0361" gradientUnits="userSpaceOnUse">
<stop stop-color="#FFB703"/>
<stop offset="1" stop-color="#F9A03F"/>
</linearGradient>
<linearGradient id="paint3_linear_370_3333" x1="12.7005" y1="11.1928" x2="18.9696" y2="13.1464" gradientUnits="userSpaceOnUse">
<stop stop-color="#FFB703"/>
<stop offset="1" stop-color="#F9A03F"/>
</linearGradient>
<linearGradient id="paint4_linear_370_3333" x1="9.57137" y1="6.51961" x2="16.2011" y2="8.58549" gradientUnits="userSpaceOnUse">
<stop stop-color="#FFB703"/>
<stop offset="1" stop-color="#F9A03F"/>
</linearGradient>
</defs>
</svg>
