<svg width="33" height="34" viewBox="0 0 33 34" fill="none" xmlns="http://www.w3.org/2000/svg">
<g filter="url(#filter0_i_370_3802)">
<path d="M1.20801 1L32.0005 13.1212V32.5152L1.20801 20.004V1Z" fill="url(#paint0_linear_370_3802)"/>
</g>
<path d="M1.20801 1L32.0005 13.1212V32.5152L1.20801 20.004V1Z" stroke="#EAEAEA" stroke-width="1.5" stroke-linejoin="round"/>
<g filter="url(#filter1_i_370_3802)">
<path d="M4.22642 21.8485L6.64151 22.8182L6.21287 22.9559C5.32699 23.2404 5.27582 24.4746 6.13511 24.8315L20.1988 30.673C20.7856 30.9167 21.4534 30.8671 21.9978 30.5392L23.5472 29.6061L25.9623 30.5758L23.2271 32.4061C22.6725 32.7773 21.9693 32.8473 21.3524 32.5929L2.12318 24.6634C1.31548 24.3304 1.29328 23.1945 2.08735 22.8301L4.22642 21.8485Z" fill="#A3A3A3"/>
</g>
<path d="M18.1551 19.3201L18.252 19.356L18.1551 19.3201ZM18.1788 20.2733L18.2757 20.3092L18.1788 20.2733ZM15.5892 16.6537C15.5885 16.9387 15.8195 17.2619 16.1051 17.3756C16.3906 17.4893 16.6227 17.3504 16.6234 17.0654C16.624 16.7804 16.3931 16.4572 16.1075 16.3435C15.8219 16.2298 15.5899 16.3687 15.5892 16.6537ZM12.9596 17.5221C12.9589 17.8071 13.1898 18.1303 13.4754 18.244C13.761 18.3577 13.993 18.2188 13.9937 17.9338C13.9944 17.6488 13.7634 17.3256 13.4779 17.2119C13.1923 17.0982 12.9603 17.2371 12.9596 17.5221ZM18.3879 20.6447L18.4205 20.5664L18.4205 20.5664L18.3879 20.6447ZM18.1551 19.3201L18.0582 19.2842L18.0819 20.2373L18.1788 20.2733L18.2757 20.3092L18.252 19.356L18.1551 19.3201ZM16.1063 16.8596L16.1061 16.9563L16.4663 17.0997L16.4665 17.003L16.4667 16.9062L16.1065 16.7628L16.1063 16.8596ZM13.4752 18.3266L13.5722 18.3652L13.5736 17.7665L13.4766 17.7279L13.3797 17.6893L13.3783 18.288L13.4752 18.3266ZM18.281 21.2139L18.2812 21.1172L14.4482 19.5911L14.4479 19.6879L14.4477 19.7847L18.2808 21.3107L18.281 21.2139ZM13.4752 18.3266L13.3783 18.288C13.3769 18.8789 13.8557 19.5489 14.4477 19.7847L14.4479 19.6879L14.4482 19.5911C13.9632 19.3981 13.571 18.8492 13.5722 18.3652L13.4752 18.3266ZM18.1788 20.2733L18.0819 20.2373C18.0862 20.4092 18.1948 20.6022 18.3553 20.723L18.3879 20.6447L18.4205 20.5664C18.3355 20.5024 18.278 20.4002 18.2757 20.3092L18.1788 20.2733ZM18.3879 20.6447L18.3553 20.723C18.5862 20.8969 18.5265 21.2148 18.2812 21.1172L18.281 21.2139L18.2808 21.3107C18.7439 21.4951 18.8566 20.8947 18.4205 20.5664L18.3879 20.6447ZM18.1551 19.3201L18.252 19.356C18.2276 18.3782 17.4362 17.2922 16.4667 16.9062L16.4665 17.003L16.4663 17.0997C17.3307 17.4439 18.0364 18.4123 18.0582 19.2842L18.1551 19.3201Z" fill="#F49911"/>
<path d="M15.3551 18.4058C15.3544 18.6908 15.5854 19.014 15.8709 19.1277C16.1565 19.2413 16.3885 19.1025 16.3892 18.8175C16.3899 18.5325 16.159 18.2093 15.8734 18.0956C15.5878 17.9819 15.3558 18.1208 15.3551 18.4058ZM15.3618 15.6039C15.3611 15.8889 15.592 16.2121 15.8776 16.3258C16.1632 16.4395 16.3952 16.3006 16.3959 16.0156C16.3966 15.7306 16.1656 15.4074 15.8801 15.2937C15.5945 15.18 15.3624 15.3189 15.3618 15.6039ZM14.4037 18.6693L14.5006 18.7079L14.5047 16.9979L14.4077 16.9593L14.3108 16.9207L14.3067 18.6307L14.4037 18.6693ZM16.4154 17.665L16.4151 17.7618L17.2004 18.0744L17.2006 17.9776L17.2008 17.8809L16.4156 17.5683L16.4154 17.665ZM15.8736 17.9892L15.7767 17.9506L15.7752 18.573L15.8722 18.6116L15.9691 18.6502L15.9706 18.0278L15.8736 17.9892ZM14.7357 16.3653L14.7998 16.4633L15.943 15.9077L15.8788 15.8097L15.8147 15.7117L14.6715 16.2673L14.7357 16.3653ZM17.4141 20.1763L17.4143 20.0795L14.712 19.0037L14.7118 19.1004L14.7115 19.1972L17.4138 20.273L17.4141 20.1763ZM17.4956 18.3905L17.3986 18.3519L17.3945 20.0914L17.4915 20.13L17.5884 20.1686L17.5925 18.4291L17.4956 18.3905ZM16.4154 17.665L16.4156 17.5683C16.0636 17.4281 15.7775 17.5993 15.7767 17.9506L15.8736 17.9892L15.9706 18.0278C15.9712 17.7834 16.1702 17.6643 16.4151 17.7618L16.4154 17.665ZM14.4037 18.6693L14.3067 18.6307C14.3062 18.8543 14.4874 19.108 14.7115 19.1972L14.7118 19.1004L14.712 19.0037C14.595 18.9571 14.5003 18.8246 14.5006 18.7079L14.4037 18.6693ZM17.4141 20.1763L17.4138 20.273C17.51 20.3113 17.5882 20.2646 17.5884 20.1686L17.4915 20.13L17.3945 20.0914C17.3945 20.0805 17.4034 20.0752 17.4143 20.0795L17.4141 20.1763ZM17.2006 17.9776L17.2004 18.0744C17.3101 18.1181 17.3989 18.2423 17.3986 18.3519L17.4956 18.3905L17.5925 18.4291C17.5931 18.2127 17.4177 17.9672 17.2008 17.8809L17.2006 17.9776ZM14.4077 16.9593L14.5047 16.9979C14.5053 16.7488 14.6127 16.5542 14.7998 16.4633L14.7357 16.3653L14.6715 16.2673C14.4428 16.3784 14.3115 16.6163 14.3108 16.9207L14.4077 16.9593Z" fill="#A1A2A2"/>
<path d="M16.2997 14.611L16.3646 14.5647L16.2994 14.4802L16.2345 14.5136L16.2997 14.611ZM18.8317 18.3552C18.831 18.6402 19.0619 18.9634 19.3475 19.0771C19.6331 19.1908 19.8651 19.0519 19.8658 18.7669C19.8665 18.4819 19.6355 18.1587 19.35 18.045C19.0644 17.9313 18.8323 18.0702 18.8317 18.3552ZM13.6335 17.0665C13.687 17.0878 13.7305 17.0618 13.7306 17.0084C13.7308 16.9549 13.6875 16.8943 13.6339 16.873L13.6335 17.0665ZM12.3984 16.478L12.3342 16.38L12.1427 16.473L12.3981 16.5747L12.3984 16.478ZM14.8088 15.2457C14.7692 15.266 14.7663 15.3261 14.8024 15.3799C14.8384 15.4337 14.8997 15.4609 14.9393 15.4406L14.8088 15.2457ZM14.0099 15.824C14.0501 15.8045 14.0539 15.7448 14.0185 15.6906C13.983 15.6365 13.9218 15.6084 13.8816 15.628L14.0099 15.824ZM16.2997 14.611L16.2348 14.6573L19.2839 18.6073L19.3487 18.5611L19.4136 18.5148L16.3646 14.5647L16.2997 14.611ZM13.6337 16.9698L13.6339 16.873L12.3986 16.3812L12.3984 16.478L12.3981 16.5747L13.6335 17.0665L13.6337 16.9698ZM14.8741 15.3431L14.9393 15.4406L16.365 14.7085L16.2997 14.611L16.2345 14.5136L14.8088 15.2457L14.8741 15.3431ZM12.3984 16.478L12.4625 16.576L14.0099 15.824L13.9458 15.726L13.8816 15.628L12.3342 16.38L12.3984 16.478Z" fill="#F49911"/>
<path d="M14.8738 15.3435L14.8751 14.7968L15.184 14.9198L15.1853 14.3731L14.7992 14.2194C14.7992 14.2194 14.6443 14.3629 14.4127 14.2707C14.1811 14.1785 14.0272 13.912 14.0272 13.912L13.6411 13.7583L13.6398 14.305L13.9486 14.428L13.9456 15.7264" stroke="#F49911" stroke-width="0.2"/>
<ellipse cx="0.318548" cy="0.282513" rx="0.318548" ry="0.282513" transform="matrix(0.969505 0.385986 -0.00230319 0.967577 14.1062 13.4644)" fill="#F49911"/>
<path d="M13.5324 12.7539C13.5093 12.7052 13.5236 12.6598 13.5645 12.6553C14.1588 12.5899 14.6626 12.7862 15.2663 13.3318C15.3085 13.3699 15.3231 13.4284 15.299 13.4596C15.2763 13.4889 15.2275 13.4832 15.1876 13.4476C14.6218 12.9415 14.1805 12.7404 13.6452 12.828C13.6057 12.8345 13.5553 12.8019 13.5324 12.7539Z" fill="#A1A2A2"/>
<path d="M13.8264 13.031C13.811 12.9986 13.8205 12.9683 13.8478 12.9653C14.2439 12.9217 14.5798 13.0526 14.9823 13.4163C15.0104 13.4417 15.0202 13.4807 15.0041 13.5015C14.989 13.521 14.9564 13.5172 14.9299 13.4935C14.5527 13.1561 14.2584 13.0221 13.9016 13.0805C13.8753 13.0848 13.8416 13.0631 13.8264 13.031Z" fill="#F49911"/>
<path d="M13.9675 13.3491C13.9581 13.3242 13.9649 13.3019 13.9841 13.2964C14.2847 13.2107 14.5387 13.3088 14.8438 13.6377C14.8639 13.6593 14.8709 13.6883 14.861 13.7066C14.8479 13.731 14.8109 13.7265 14.7837 13.6981C14.5142 13.4175 14.3002 13.3169 14.0447 13.3996C14.0183 13.4081 13.9805 13.384 13.9675 13.3491Z" fill="#A1A2A2"/>
<defs>
<filter id="filter0_i_370_3802" x="0.458008" y="0.25" width="34.2925" height="35.0151" filterUnits="userSpaceOnUse" color-interpolation-filters="sRGB">
<feFlood flood-opacity="0" result="BackgroundImageFix"/>
<feBlend mode="normal" in="SourceGraphic" in2="BackgroundImageFix" result="shape"/>
<feColorMatrix in="SourceAlpha" type="matrix" values="0 0 0 0 0 0 0 0 0 0 0 0 0 0 0 0 0 0 127 0" result="hardAlpha"/>
<feOffset dx="2" dy="2"/>
<feGaussianBlur stdDeviation="2.75"/>
<feComposite in2="hardAlpha" operator="arithmetic" k2="-1" k3="1"/>
<feColorMatrix type="matrix" values="0 0 0 0 1 0 0 0 0 0.717647 0 0 0 0 0.0117647 0 0 0 1 0"/>
<feBlend mode="normal" in2="shape" result="effect1_innerShadow_370_3802"/>
</filter>
<filter id="filter1_i_370_3802" x="1.50439" y="21.8485" width="24.4578" height="10.8955" filterUnits="userSpaceOnUse" color-interpolation-filters="sRGB">
<feFlood flood-opacity="0" result="BackgroundImageFix"/>
<feBlend mode="normal" in="SourceGraphic" in2="BackgroundImageFix" result="shape"/>
<feColorMatrix in="SourceAlpha" type="matrix" values="0 0 0 0 0 0 0 0 0 0 0 0 0 0 0 0 0 0 127 0" result="hardAlpha"/>
<feOffset/>
<feGaussianBlur stdDeviation="0.4"/>
<feComposite in2="hardAlpha" operator="arithmetic" k2="-1" k3="1"/>
<feColorMatrix type="matrix" values="0 0 0 0 0.639216 0 0 0 0 0.639216 0 0 0 0 0.639216 0 0 0 1 0"/>
<feBlend mode="normal" in2="shape" result="effect1_innerShadow_370_3802"/>
</filter>
<linearGradient id="paint0_linear_370_3802" x1="16.6042" y1="1" x2="16.6042" y2="32.5152" gradientUnits="userSpaceOnUse">
<stop stop-color="#E0C070"/>
<stop offset="1" stop-color="#FFC688"/>
</linearGradient>
</defs>
</svg>
