<svg width="30" height="41" viewBox="0 0 30 41" fill="none" xmlns="http://www.w3.org/2000/svg">
<g filter="url(#filter0_d_370_3653)">
<g filter="url(#filter1_i_370_3653)">
<path d="M4.39359 3.00278C4.45264 2.81445 4.65271 2.71604 4.83805 2.78416L25.6132 10.4193L25.7261 10.5942C25.7613 10.6488 25.7839 10.7105 25.7924 10.7747C25.8223 11.003 25.6683 11.2089 25.4459 11.2381L25.359 11.2495L4.61412 3.45454C4.43403 3.38687 4.33608 3.18621 4.39359 3.00278Z" fill="#DDDDDD" fill-opacity="0.8"/>
</g>
<path d="M25.359 11.2495L25.4459 11.2381C25.6683 11.2089 25.8223 11.003 25.7923 10.7747V10.7747C25.7839 10.7105 25.7613 10.6488 25.7261 10.5942L25.6132 10.4193M25.359 11.2495L4.61412 3.45454C4.43403 3.38687 4.33608 3.18621 4.39359 3.00278V3.00278C4.45264 2.81445 4.65271 2.71604 4.83805 2.78416L25.6132 10.4193M25.359 11.2495C24.8965 11.0873 25.104 10.2407 25.6132 10.4193" stroke="#A1A2A2" stroke-width="0.2"/>
<path d="M6.62414 26.6122L5.36085 26.3316C4.77972 26.2026 4.37309 25.7024 4.39804 25.1418C4.71865 17.939 5.23718 5.46398 5.21957 3.78689C5.21975 3.82689 5.37755 3.92958 5.54908 4.04118C5.79994 4.20441 6.09426 4.31994 6.39584 4.33608C6.78449 4.35688 7.14202 4.5546 7.35459 4.86631L7.36726 4.88488L7.37364 4.89424C7.58253 5.20054 7.92495 5.40389 8.30518 5.44745L11.6872 5.83484L12.2053 26.6985C12.2317 27.7604 11.2495 28.5751 10.1353 28.4157L7.59472 28.052C7.16109 27.99 6.84199 27.6273 6.85797 27.2147L6.86812 26.7698C6.81347 26.6943 6.72978 26.6356 6.62414 26.6122Z" fill="white"/>
<path d="M6.85797 27.2147L6.86812 26.7698M6.85797 27.2147C6.84199 27.6273 7.16109 27.99 7.59472 28.052L10.1353 28.4157C11.2495 28.5751 12.2317 27.7604 12.2053 26.6985L11.6872 5.83484L8.30518 5.44745C7.92495 5.40389 7.58253 5.20054 7.37364 4.89424L7.36726 4.88488M6.85797 27.2147C6.97006 27.0779 6.9616 26.8991 6.86812 26.7698M6.86812 26.7698L7.36726 4.88488M6.86812 26.7698C6.81347 26.6943 6.72978 26.6356 6.62414 26.6122L5.36085 26.3316C4.77972 26.2026 4.37309 25.7024 4.39804 25.1418C4.71865 17.939 5.23718 5.46398 5.21957 3.78689M7.36726 4.88488L7.37858 4.38866M7.36726 4.88488L7.35459 4.86631C7.14202 4.5546 6.78449 4.35688 6.39584 4.33608C6.09426 4.31994 5.79994 4.20441 5.54908 4.04118C5.37755 3.92958 5.21975 3.82689 5.21957 3.78689M5.22897 3.54427C5.23497 3.55755 5.21843 3.67823 5.21957 3.78689" stroke="#FFE4A1" stroke-width="0.5" stroke-linejoin="round"/>
<path d="M19.3989 8.98449L19.4176 8.97825C19.2917 9.15588 18.8827 9.5633 19.0793 9.68552C19.0793 9.68552 19.6177 10.1468 21.6697 10.0094C21.4213 10.183 20.7131 10.6965 21.0069 10.7061L23.602 10.7907L24.1261 31.1958C24.1424 31.8288 23.6275 32.3405 22.995 32.3199L22.6029 32.3071C22.2065 32.2942 21.8915 31.9623 21.8992 31.5659L19.0222 31.6841C18.8216 31.6924 18.654 31.5282 18.658 31.3273L18.6584 31.3061C18.6619 31.1268 18.5195 30.9768 18.3403 30.971C17.4483 30.9419 16.743 30.1884 16.7731 29.2966L17.4853 8.19697C17.4853 8.19697 18.7741 9.1931 19.3989 8.98449Z" fill="white"/>
<path d="M19.0793 9.68552C18.8827 9.5633 19.2917 9.15588 19.4176 8.97825L19.3989 8.98449C18.7741 9.1931 17.4853 8.19697 17.4853 8.19697V8.19697L16.7731 29.2966C16.743 30.1884 17.4483 30.9419 18.3403 30.971V30.971M19.0793 9.68552C19.0793 9.68552 19.6177 10.1468 21.6697 10.0094C21.4213 10.183 20.7131 10.6965 21.0069 10.7061M19.0793 9.68552L18.3403 30.971M21.0069 10.7061C21.3008 10.7157 22.8675 10.7667 23.602 10.7907L24.1261 31.1958C24.1424 31.8288 23.6275 32.3405 22.995 32.3199L22.6029 32.3071C22.2065 32.2942 21.8915 31.9623 21.8992 31.5659V31.5659M21.0069 10.7061L21.8992 31.5659M21.8992 31.5659L19.0222 31.6841C18.8216 31.6924 18.654 31.5282 18.658 31.3273L18.6584 31.3061C18.6619 31.1268 18.5195 30.9768 18.3403 30.971V30.971" stroke="#FFE4A1" stroke-width="0.5" stroke-linejoin="round"/>
</g>
<defs>
<filter id="filter0_d_370_3653" x="-3" y="0" width="35.9556" height="42.8477" filterUnits="userSpaceOnUse" color-interpolation-filters="sRGB">
<feFlood flood-opacity="0" result="BackgroundImageFix"/>
<feColorMatrix in="SourceAlpha" type="matrix" values="0 0 0 0 0 0 0 0 0 0 0 0 0 0 0 0 0 0 127 0" result="hardAlpha"/>
<feOffset dy="4"/>
<feGaussianBlur stdDeviation="2"/>
<feComposite in2="hardAlpha" operator="out"/>
<feColorMatrix type="matrix" values="0 0 0 0 0 0 0 0 0 0 0 0 0 0 0 0 0 0 0.25 0"/>
<feBlend mode="normal" in2="BackgroundImageFix" result="effect1_dropShadow_370_3653"/>
<feBlend mode="normal" in="SourceGraphic" in2="effect1_dropShadow_370_3653" result="shape"/>
</filter>
<filter id="filter1_i_370_3653" x="4.27808" y="2.6615" width="22.6169" height="8.69116" filterUnits="userSpaceOnUse" color-interpolation-filters="sRGB">
<feFlood flood-opacity="0" result="BackgroundImageFix"/>
<feBlend mode="normal" in="SourceGraphic" in2="BackgroundImageFix" result="shape"/>
<feColorMatrix in="SourceAlpha" type="matrix" values="0 0 0 0 0 0 0 0 0 0 0 0 0 0 0 0 0 0 127 0" result="hardAlpha"/>
<feOffset dx="1"/>
<feGaussianBlur stdDeviation="0.55"/>
<feComposite in2="hardAlpha" operator="arithmetic" k2="-1" k3="1"/>
<feColorMatrix type="matrix" values="0 0 0 0 0 0 0 0 0 0 0 0 0 0 0 0 0 0 0.25 0"/>
<feBlend mode="normal" in2="shape" result="effect1_innerShadow_370_3653"/>
</filter>
</defs>
</svg>
