<svg width="31" height="41" viewBox="0 0 31 41" fill="none" xmlns="http://www.w3.org/2000/svg">
<g filter="url(#filter0_d_435_2081)">
<g filter="url(#filter1_i_435_2081)">
<path d="M4.86106 3.07367C4.92216 2.88448 5.12546 2.78438 5.31272 2.85127L26.6039 10.4573L26.7198 10.6336C26.7553 10.6876 26.7781 10.749 26.7865 10.813V10.813C26.8165 11.0417 26.6587 11.2498 26.4328 11.2794L26.3407 11.2915L5.08145 3.525C4.89942 3.4585 4.80152 3.25801 4.86106 3.07367V3.07367Z" fill="#DDDDDD" fill-opacity="0.8"/>
</g>
<path d="M26.3407 11.2915L26.4328 11.2794C26.6587 11.2498 26.8165 11.0417 26.7865 10.813V10.813C26.7781 10.749 26.7553 10.6876 26.7198 10.6336L26.6039 10.4573M26.3407 11.2915L5.08145 3.525C4.89942 3.4585 4.80152 3.25801 4.86106 3.07367V3.07367C4.92216 2.88448 5.12546 2.78438 5.31272 2.85127L26.6039 10.4573M26.3407 11.2915C25.8669 11.13 26.0821 10.2795 26.6039 10.4573" stroke="#A1A2A2" stroke-width="0.2"/>
<path d="M18.8272 8.92827L19.0789 8.86288C18.9187 9.04068 18.3984 9.44798 18.6491 9.57154C18.6491 9.57154 19.336 10.037 21.9506 9.90789C21.6344 10.0811 20.733 10.5936 21.1074 10.6045L24.4144 10.7006L25.1105 30.8682C25.1384 31.6761 24.4814 32.3369 23.6736 32.3135L22.9888 32.2935C22.5909 32.282 22.2757 31.95 22.2847 31.5519L18.5161 31.6612C18.315 31.6671 18.1494 31.5024 18.154 31.3012C18.1584 31.108 18.0053 30.9468 17.8121 30.9412L17.7486 30.9393C16.6132 30.9063 15.7198 29.9483 15.7662 28.8135L16.615 8.07012C16.615 8.07012 18.1205 9.11185 18.8272 8.92827Z" fill="white"/>
<path d="M18.6491 9.57154C18.3984 9.44798 18.9187 9.04068 19.0789 8.86288L18.8272 8.92827C18.1205 9.11185 16.615 8.07012 16.615 8.07012V8.07012L15.7662 28.8135C15.7198 29.9483 16.6132 30.9063 17.7486 30.9393V30.9393M18.6491 9.57154C18.6491 9.57154 19.336 10.037 21.9506 9.90789C21.6344 10.0811 20.733 10.5936 21.1074 10.6045M18.6491 9.57154L17.7486 30.9393M21.1074 10.6045C21.4818 10.6154 23.4784 10.6734 24.4144 10.7006L25.1105 30.8682C25.1384 31.6761 24.4814 32.3369 23.6736 32.3135L22.9888 32.2935C22.5909 32.282 22.2757 31.95 22.2847 31.5519V31.5519M21.1074 10.6045L22.2847 31.5519M22.2847 31.5519L18.5161 31.6612C18.315 31.6671 18.1494 31.5024 18.154 31.3012V31.3012C18.1584 31.108 18.0053 30.9468 17.8121 30.9412L17.7486 30.9393" stroke="#FFE4A1" stroke-width="0.5" stroke-linejoin="round"/>
<path d="M8.89291 5.63507L9.06346 5.56822C8.90331 5.74602 8.14925 6.46493 8.39993 6.58849C8.39993 6.58849 9.08692 7.0539 11.7014 6.92484C11.3853 7.0981 10.7343 7.55923 11.1087 7.57011C11.4831 7.581 14.2754 7.53128 15.2114 7.55849L14.9327 27.9198C14.9217 28.7207 14.2599 29.3548 13.4594 29.3315L12.7397 29.3106C12.3418 29.299 12.0265 28.967 12.0356 28.569L8.26698 28.6783C8.06588 28.6841 7.90025 28.5195 7.90483 28.3183C7.90923 28.125 7.75618 27.9638 7.56298 27.9582L7.49943 27.9564C6.36572 27.9234 5.47532 26.9639 5.52727 25.831L6.50219 4.57166C6.50219 4.57166 8.07378 5.95613 8.89291 5.63507Z" fill="white"/>
<path d="M8.39993 6.58849C8.14925 6.46493 8.90331 5.74602 9.06346 5.56822L8.89291 5.63507C8.07377 5.95613 6.50219 4.57166 6.50219 4.57166V4.57166L5.52727 25.831C5.47532 26.9639 6.36572 27.9234 7.49943 27.9564V27.9564M8.39993 6.58849C8.39993 6.58849 9.08692 7.0539 11.7014 6.92484C11.3853 7.0981 10.7343 7.55923 11.1087 7.57011M8.39993 6.58849L7.49943 27.9564M11.1087 7.57011C11.4831 7.581 14.2754 7.53128 15.2114 7.55849L14.9327 27.9198C14.9217 28.7207 14.2599 29.3548 13.4594 29.3315L12.7397 29.3106C12.3418 29.299 12.0265 28.967 12.0356 28.569V28.569M11.1087 7.57011L12.0356 28.569M12.0356 28.569L8.26698 28.6783C8.06588 28.6841 7.90025 28.5195 7.90483 28.3183V28.3183C7.90923 28.125 7.75618 27.9638 7.56298 27.9582L7.49943 27.9564" stroke="#FFE4A1" stroke-width="0.5" stroke-linejoin="round"/>
</g>
<defs>
<filter id="filter0_d_435_2081" x="-2" y="0" width="35.9553" height="42.8475" filterUnits="userSpaceOnUse" color-interpolation-filters="sRGB">
<feFlood flood-opacity="0" result="BackgroundImageFix"/>
<feColorMatrix in="SourceAlpha" type="matrix" values="0 0 0 0 0 0 0 0 0 0 0 0 0 0 0 0 0 0 127 0" result="hardAlpha"/>
<feOffset dy="4"/>
<feGaussianBlur stdDeviation="2"/>
<feComposite in2="hardAlpha" operator="out"/>
<feColorMatrix type="matrix" values="0 0 0 0 0 0 0 0 0 0 0 0 0 0 0 0 0 0 0.25 0"/>
<feBlend mode="normal" in2="BackgroundImageFix" result="effect1_dropShadow_435_2081"/>
<feBlend mode="normal" in="SourceGraphic" in2="effect1_dropShadow_435_2081" result="shape"/>
</filter>
<filter id="filter1_i_435_2081" x="4.74414" y="2.72998" width="23.1455" height="8.66406" filterUnits="userSpaceOnUse" color-interpolation-filters="sRGB">
<feFlood flood-opacity="0" result="BackgroundImageFix"/>
<feBlend mode="normal" in="SourceGraphic" in2="BackgroundImageFix" result="shape"/>
<feColorMatrix in="SourceAlpha" type="matrix" values="0 0 0 0 0 0 0 0 0 0 0 0 0 0 0 0 0 0 127 0" result="hardAlpha"/>
<feOffset dx="1"/>
<feGaussianBlur stdDeviation="0.55"/>
<feComposite in2="hardAlpha" operator="arithmetic" k2="-1" k3="1"/>
<feColorMatrix type="matrix" values="0 0 0 0 0 0 0 0 0 0 0 0 0 0 0 0 0 0 0.25 0"/>
<feBlend mode="normal" in2="shape" result="effect1_innerShadow_435_2081"/>
</filter>
</defs>
</svg>
