<svg width="32" height="33" viewBox="0 0 32 33" fill="none" xmlns="http://www.w3.org/2000/svg">
<g filter="url(#filter0_i_413_2168)">
<path d="M0 6.53918L14.7539 12.689C15.2325 12.8885 15.7698 12.8943 16.2526 12.7053L32 6.53918V24.2884C32 25.1024 31.5067 25.8351 30.7525 26.1414L17.064 31.7005C16.5904 31.8928 16.0612 31.8965 15.585 31.7109L1.27352 26.1313C0.505614 25.8319 0 25.0921 0 24.2679V6.53918Z" fill="#ECECEC"/>
</g>
<path d="M13.8066 0.94043C14.8987 0.507782 16.1121 0.494583 17.2129 0.904297L31.5352 6.23535C31.6643 6.28366 31.75 6.40699 31.75 6.54492C31.75 6.67978 31.6681 6.80117 31.543 6.85156L17.333 12.5684C16.1615 13.0397 14.8502 13.0255 13.6895 12.5283L0.458984 6.86133C0.33238 6.8071 0.25 6.68265 0.25 6.54492C0.250093 6.40385 0.336606 6.27756 0.467773 6.22559L13.8066 0.94043Z" fill="#F0F0F0" stroke="#A19D9D" stroke-width="0.5"/>
<g filter="url(#filter1_f_413_2168)">
<rect x="15" y="14.5455" width="2" height="15.5152" rx="1" fill="#DDDDDD" fill-opacity="0.8"/>
</g>
<path d="M9.69732 21.0472L9.60413 21.0136L9.60413 21.0136L9.69732 21.0472ZM9.74578 22.1278L9.83896 22.1614L9.83896 22.1614L9.74578 22.1278ZM7.17245 18.1526C7.179 18.4471 7.40702 18.7719 7.68174 18.8782C7.95645 18.9845 8.17384 18.8319 8.16728 18.5374C8.16072 18.2429 7.93271 17.9181 7.65799 17.8118C7.38327 17.7055 7.16589 17.8581 7.17245 18.1526ZM4.68502 19.3886C4.69157 19.683 4.91959 20.0079 5.19431 20.1142C5.46902 20.2204 5.68641 20.0679 5.67985 19.7734C5.67329 19.4789 5.44527 19.154 5.17056 19.0478C4.89584 18.9415 4.67846 19.0941 4.68502 19.3886ZM9.96777 22.5406L9.93549 22.6203L9.93549 22.6203L9.96777 22.5406ZM9.69732 21.0472L9.60413 21.0136L9.6526 22.0942L9.74578 22.1278L9.83896 22.1614L9.7905 21.0808L9.69732 21.0472ZM7.66986 18.345L7.67209 18.445L7.80663 18.497L7.8044 18.397L7.80218 18.2971L7.66764 18.245L7.66986 18.345ZM5.19845 20.3002L5.29171 20.3362L5.2757 19.617L5.18243 19.581L5.08917 19.5449L5.10518 20.2641L5.19845 20.3002ZM9.85827 23.1953L9.85604 23.0953L6.24894 21.7L6.25116 21.8L6.25339 21.9L9.86049 23.2953L9.85827 23.1953ZM5.19845 20.3002L5.10518 20.2641C5.11997 20.928 5.63404 21.6604 6.25339 21.9L6.25116 21.8L6.24894 21.7C5.7326 21.5003 5.30404 20.8897 5.29171 20.3362L5.19845 20.3002ZM9.74578 22.1278L9.6526 22.0942C9.66102 22.2821 9.7724 22.4892 9.93549 22.6203L9.96777 22.5406L10 22.4609C9.90717 22.3863 9.84376 22.2684 9.83896 22.1614L9.74578 22.1278ZM9.96777 22.5406L9.93549 22.6203C10.1908 22.8255 10.1281 23.2005 9.85604 23.0953L9.85827 23.1953L9.86049 23.2953C10.3383 23.4801 10.4484 22.8213 10 22.4609L9.96777 22.5406ZM9.69732 21.0472L9.7905 21.0808C9.73935 19.9404 8.85698 18.7051 7.80218 18.2971L7.8044 18.397L7.80663 18.497C8.76021 18.8659 9.5579 19.9827 9.60413 21.0136L9.69732 21.0472Z" fill="#C5C5C5"/>
<path d="M6.99666 20.2032C7.00322 20.4977 7.23124 20.8226 7.50595 20.9289C7.78067 21.0351 7.99805 20.8825 7.99149 20.5881C7.98494 20.2936 7.75692 19.9687 7.4822 19.8625C7.20749 19.7562 6.9901 19.9088 6.99666 20.2032ZM6.92436 16.9565C6.93092 17.251 7.15894 17.5759 7.43365 17.6821C7.70837 17.7884 7.92575 17.6358 7.91919 17.3414C7.91264 17.0469 7.68462 16.722 7.4099 16.6157C7.13519 16.5095 6.9178 16.6621 6.92436 16.9565ZM6.09384 20.6281L6.1871 20.6642L6.14021 18.5583L6.04694 18.5222L5.95368 18.4861L6.00057 20.592L6.09384 20.6281ZM7.98638 19.2515L7.98861 19.3515L8.71416 19.6321L8.71193 19.5321L8.70971 19.4322L7.98416 19.1515L7.98638 19.2515ZM7.47657 19.6093L7.3833 19.5732L7.40081 20.3596L7.49408 20.3957L7.58734 20.4317L7.56983 19.6454L7.47657 19.6093ZM6.30758 17.9187L6.37478 18.0151L7.48898 17.2454L7.42178 17.1489L7.35458 17.0525L6.24038 17.8223L6.30758 17.9187ZM9.01082 22.0736L9.0086 21.9736L6.39718 20.9635L6.3994 21.0634L6.40163 21.1634L9.01305 22.1736L9.01082 22.0736ZM9.03857 19.9975L8.9453 19.9614L8.99039 21.9864L9.08366 22.0225L9.17692 22.0585L9.13183 20.0336L9.03857 19.9975ZM7.98638 19.2515L7.98416 19.1515C7.6442 19.02 7.37519 19.2088 7.3833 19.5732L7.47657 19.6093L7.56983 19.6454C7.56418 19.3914 7.75167 19.2598 7.98861 19.3515L7.98638 19.2515ZM6.09384 20.6281L6.00057 20.592C6.00574 20.8239 6.1853 21.0797 6.40163 21.1634L6.3994 21.0634L6.39718 20.9635C6.28386 20.9196 6.18981 20.7856 6.1871 20.6642L6.09384 20.6281ZM9.01082 22.0736L9.01305 22.1736C9.10577 22.2094 9.17914 22.1579 9.17692 22.0585L9.08366 22.0225L8.99039 21.9864C8.99015 21.9753 8.9983 21.9696 9.0086 21.9736L9.01082 22.0736ZM8.71193 19.5321L8.71416 19.6321C8.83884 19.6803 8.94232 19.8278 8.9453 19.9614L9.03857 19.9975L9.13183 20.0336C9.1264 19.7895 8.93741 19.5202 8.70971 19.4322L8.71193 19.5321ZM6.04694 18.5222L6.14021 18.5583C6.13486 18.3181 6.21932 18.1225 6.37478 18.0151L6.30758 17.9187L6.24038 17.8223C6.05037 17.9535 5.94714 18.1925 5.95368 18.4861L6.04694 18.5222Z" fill="#A1A2A2"/>
<path d="M7.79038 15.7231L7.85478 15.678L7.78655 15.5807L7.72219 15.6274L7.79038 15.7231ZM10.3163 19.8404C10.3228 20.1349 10.5508 20.4598 10.8256 20.566C11.1003 20.6723 11.3177 20.5197 11.3111 20.2253C11.3045 19.9308 11.0765 19.6059 10.8018 19.4996C10.5271 19.3934 10.3097 19.546 10.3163 19.8404ZM5.31226 18.789C5.36377 18.8089 5.40453 18.7803 5.4033 18.7251C5.40207 18.6699 5.35932 18.6089 5.30781 18.589L5.31226 18.789ZM4.11625 18.2272L4.04904 18.1308L3.89172 18.2395L4.11847 18.3272L4.11625 18.2272ZM6.38098 16.6002C6.34581 16.6257 6.34784 16.6893 6.3855 16.7421C6.42315 16.795 6.48219 16.8172 6.51735 16.7917L6.38098 16.6002ZM5.64042 17.3171C5.67616 17.2924 5.67504 17.2292 5.63793 17.176C5.60081 17.1227 5.54175 17.0996 5.50602 17.1243L5.64042 17.3171ZM7.79038 15.7231L7.72598 15.7683L10.7493 20.078L10.8137 20.0328L10.8781 19.9877L7.85478 15.678L7.79038 15.7231ZM5.31004 18.689L5.30781 18.589L4.11402 18.1272L4.11625 18.2272L4.11847 18.3272L5.31226 18.789L5.31004 18.689ZM6.44916 16.696L6.51735 16.7917L7.85857 15.8189L7.79038 15.7231L7.72219 15.6274L6.38098 16.6002L6.44916 16.696ZM4.11625 18.2272L4.18345 18.3236L5.64042 17.3171L5.57322 17.2207L5.50602 17.1243L4.04904 18.1308L4.11625 18.2272Z" fill="#C5C5C5"/>
<path d="M6.44857 16.6961L6.43446 16.0626L6.73291 16.178L6.7188 15.5445L6.34574 15.4002C6.34574 15.4002 6.20181 15.58 5.97797 15.4935C5.75414 15.4069 5.59962 15.1116 5.59962 15.1116L5.22656 14.9673L5.24067 15.6008L5.53912 15.7162L5.57262 17.2208" stroke="#C5C5C5" stroke-width="0.2"/>
<ellipse cx="0.319998" cy="0.31683" rx="0.319998" ry="0.31683" transform="matrix(0.932656 0.360767 0.0222629 0.999752 5.66309 14.5865)" fill="#C5C5C5"/>
<path d="M5.09071 13.8039C5.06885 13.7533 5.0813 13.7057 5.11973 13.697C5.68761 13.5677 6.17565 13.7515 6.76986 14.3338C6.8109 14.3741 6.82633 14.4344 6.80563 14.4701V14.4701C6.78337 14.5085 6.72813 14.5038 6.68369 14.461C6.13855 13.9365 5.71594 13.7448 5.21536 13.8862C5.17302 13.8982 5.11534 13.861 5.09071 13.8039V13.8039Z" fill="#A1A2A2"/>
<path d="M5.37989 14.1023C5.36532 14.0686 5.37362 14.0369 5.39924 14.031C5.77782 13.9449 6.10319 14.0674 6.49932 14.4556C6.52668 14.4824 6.53697 14.5227 6.52317 14.5465V14.5465C6.50833 14.5721 6.4715 14.5689 6.44188 14.5404C6.07845 14.1907 5.79671 14.063 5.46299 14.1572C5.43477 14.1652 5.39631 14.1404 5.37989 14.1023V14.1023Z" fill="#C5C5C5"/>
<path d="M5.52647 14.4597C5.51781 14.4344 5.52338 14.4114 5.54069 14.4037C5.82701 14.2764 6.07325 14.3682 6.37568 14.7255C6.39465 14.7479 6.40176 14.7771 6.39367 14.7971V14.7971C6.38136 14.8276 6.34033 14.8236 6.31073 14.7903C6.0512 14.4975 5.84682 14.4016 5.60991 14.5139C5.58263 14.5269 5.54031 14.5002 5.52647 14.4597V14.4597Z" fill="#A1A2A2"/>
<defs>
<filter id="filter0_i_413_2168" x="0" y="6.53918" width="32" height="25.3083" filterUnits="userSpaceOnUse" color-interpolation-filters="sRGB">
<feFlood flood-opacity="0" result="BackgroundImageFix"/>
<feBlend mode="normal" in="SourceGraphic" in2="BackgroundImageFix" result="shape"/>
<feColorMatrix in="SourceAlpha" type="matrix" values="0 0 0 0 0 0 0 0 0 0 0 0 0 0 0 0 0 0 127 0" result="hardAlpha"/>
<feOffset/>
<feGaussianBlur stdDeviation="0.55"/>
<feComposite in2="hardAlpha" operator="arithmetic" k2="-1" k3="1"/>
<feColorMatrix type="matrix" values="0 0 0 0 0 0 0 0 0 0 0 0 0 0 0 0 0 0 0.25 0"/>
<feBlend mode="normal" in2="shape" result="effect1_innerShadow_413_2168"/>
</filter>
<filter id="filter1_f_413_2168" x="12.2" y="11.7455" width="7.6" height="21.1152" filterUnits="userSpaceOnUse" color-interpolation-filters="sRGB">
<feFlood flood-opacity="0" result="BackgroundImageFix"/>
<feBlend mode="normal" in="SourceGraphic" in2="BackgroundImageFix" result="shape"/>
<feGaussianBlur stdDeviation="1.4" result="effect1_foregroundBlur_413_2168"/>
</filter>
</defs>
</svg>
