<svg width="24" height="32" viewBox="0 0 24 32" fill="none" xmlns="http://www.w3.org/2000/svg">
<g filter="url(#filter0_i_370_2665)">
<path d="M12 0C18.1539 0 23.9998 1.4966 24 3.34277V17.6699L23.9961 17.7559C23.8175 19.5622 18.0578 21.0127 12 21.0127C5.94218 21.0127 0.182497 19.5622 0.00390625 17.7559L0 17.6699V3.34277C0.000198504 1.4966 5.84607 7.73109e-08 12 0Z" fill="#F2F2F2"/>
</g>
<path d="M12 0.25C15.0596 0.25 18.0369 0.622668 20.2422 1.2207C21.3465 1.52018 22.2435 1.87221 22.8584 2.25391C23.4885 2.6451 23.7499 3.01995 23.75 3.34277C23.75 3.66562 23.4886 4.04041 22.8584 4.43164C22.2435 4.81336 21.3466 5.16633 20.2422 5.46582C18.0369 6.06382 15.0595 6.43555 12 6.43555C8.94051 6.43555 5.9631 6.06382 3.75781 5.46582C2.65344 5.16633 1.75651 4.81336 1.1416 4.43164C0.511412 4.04041 0.25 3.66562 0.25 3.34277C0.250051 3.01995 0.511473 2.6451 1.1416 2.25391C1.75651 1.87221 2.65349 1.52018 3.75781 1.2207C5.96312 0.622668 8.94041 0.25 12 0.25Z" stroke="#F49911" stroke-width="0.5"/>
<g filter="url(#filter1_i_370_2665)">
<path d="M0 7.00415C5.79774 10.3881 8.79433 9.52125 18.4457 9.14298C19.0106 9.12084 19.4805 9.57398 19.4805 10.1394V17.3518C19.4805 17.8458 19.1216 18.2664 18.6322 18.3339C11.7691 19.2811 2.0334 19.4428 0 16.1095V7.00415Z" fill="#D9D9D9"/>
</g>
<g filter="url(#filter2_ii_370_2665)">
<path d="M22.3398 26.5162C22.6355 26.6504 22.7948 26.8572 22.7949 27.1656C22.7949 29.3093 17.9598 32.0006 11.9951 32.0006C6.03053 32.0006 1.19531 29.3503 1.19531 27.2067C1.19532 26.8516 1.39667 26.6268 1.7666 26.4908L8.99512 22.4127C7.68498 25.1049 16.673 25.5055 14.9951 22.4127L22.3398 26.5162Z" fill="#F2F2F2"/>
</g>
<g filter="url(#filter3_i_370_2665)">
<path d="M10.8047 21.0123C10.8047 21.0123 12.6047 21.0123 13.8047 21.0123V21.7127V22.4131H10.8047V21.0123Z" fill="#F2F2F2"/>
</g>
<g filter="url(#filter4_i_370_2665)">
<path d="M15.7195 23.1136C15.7195 23.8872 14.1078 24.5144 12.1195 24.5144C10.1313 24.5144 8.51953 23.8872 8.51953 23.1136C8.51953 22.3399 10.1313 21.7128 12.1195 21.7128C14.1078 21.7128 15.7195 22.3399 15.7195 23.1136Z" fill="#F2F2F2"/>
</g>
<path d="M12.1191 21.6132C13.1224 21.6132 14.0355 21.7711 14.7012 22.0302C15.0336 22.1595 15.3094 22.3161 15.5039 22.495C15.6984 22.6739 15.8192 22.8825 15.8193 23.1132C15.8193 23.344 15.6985 23.5533 15.5039 23.7323C15.3094 23.9112 15.0336 24.0678 14.7012 24.1971C14.0355 24.4561 13.1224 24.6141 12.1191 24.6141C11.1161 24.6141 10.2037 24.4561 9.53809 24.1971C9.20555 24.0677 8.92887 23.9112 8.73438 23.7323C8.53995 23.5533 8.41992 23.3439 8.41992 23.1132C8.42007 22.8826 8.5401 22.6738 8.73438 22.495C8.92887 22.3161 9.20555 22.1595 9.53809 22.0302C10.2037 21.7712 11.1161 21.6132 12.1191 21.6132Z" stroke="#D9D9D9" stroke-width="0.2"/>
<path d="M17.5064 16.4884L17.4315 16.4936L17.5064 16.4884ZM17.5083 17.2908L17.4334 17.296L17.5083 17.2908ZM15.545 15.1262C15.5401 15.347 15.715 15.5181 15.9357 15.5083C16.1564 15.4985 16.3393 15.3115 16.3442 15.0906C16.3491 14.8698 16.1742 14.6987 15.9535 14.7085C15.7328 14.7183 15.5499 14.9053 15.545 15.1262ZM13.4702 16.8796C13.4653 17.1004 13.6402 17.2715 13.8609 17.2617C14.0816 17.2519 14.2645 17.0649 14.2694 16.844C14.2743 16.6232 14.0994 16.4521 13.8787 16.4619C13.658 16.4717 13.4751 16.6587 13.4702 16.8796ZM17.6752 17.5304L17.6461 17.6014L17.6461 17.6014L17.6752 17.5304ZM17.5064 16.4884L17.4315 16.4936L17.4334 17.296L17.5083 17.2908L17.5833 17.2856L17.5813 16.4833L17.5064 16.4884ZM15.9446 15.1084L15.9429 15.1834L16.051 15.1786L16.0527 15.1036L16.0543 15.0286L15.9462 15.0334L15.9446 15.1084ZM13.8578 17.4011L13.9327 17.3978L13.9447 16.8585L13.8698 16.8618L13.7949 16.8651L13.7829 17.4045L13.8578 17.4011ZM17.563 18.0622L17.5647 17.9872L14.667 18.116L14.6654 18.191L14.6637 18.266L17.5613 18.1372L17.563 18.0622ZM13.8578 17.4011L13.7829 17.4045C13.7718 17.9024 14.1662 18.2881 14.6637 18.266L14.6654 18.191L14.667 18.116C14.2523 18.1344 13.9235 17.8129 13.9327 17.3978L13.8578 17.4011ZM17.5083 17.2908L17.4334 17.296C17.4337 17.4355 17.5175 17.5557 17.6461 17.6014L17.6752 17.5304L17.7044 17.4595C17.6311 17.4335 17.5835 17.365 17.5833 17.2856L17.5083 17.2908ZM17.6752 17.5304L17.6461 17.6014C17.8475 17.6729 17.7832 17.9775 17.5647 17.9872L17.563 18.0622L17.5613 18.1372C17.9451 18.1201 18.0581 17.5851 17.7044 17.4595L17.6752 17.5304ZM17.5064 16.4884L17.5813 16.4833C17.5793 15.6365 16.9017 14.991 16.0543 15.0286L16.0527 15.1036L16.051 15.1786C16.817 15.1445 17.4296 15.7281 17.4315 16.4936L17.5064 16.4884Z" fill="#F49911"/>
<path d="M15.3304 16.7364C15.3255 16.9573 15.5005 17.1284 15.7212 17.1185C15.9419 17.1087 16.1247 16.9217 16.1297 16.7009C16.1346 16.48 15.9596 16.3089 15.7389 16.3187C15.5182 16.3286 15.3353 16.5155 15.3304 16.7364ZM15.3845 14.3016C15.3796 14.5224 15.5546 14.6935 15.7753 14.6837C15.996 14.6739 16.1789 14.4869 16.1838 14.266C16.1887 14.0452 16.0137 13.8741 15.793 13.8839C15.5723 13.8937 15.3895 14.0807 15.3845 14.3016ZM14.5784 17.3548L14.6533 17.3515L14.6872 15.8273L14.6123 15.8306L14.5373 15.834L14.5035 17.3582L14.5784 17.3548ZM16.172 15.6904L16.1703 15.7654L16.7531 15.7395L16.7547 15.6645L16.7564 15.5896L16.1736 15.6155L16.172 15.6904ZM15.7432 16.1289L15.6682 16.1322L15.6551 16.722L15.73 16.7186L15.805 16.7153L15.8181 16.1256L15.7432 16.1289ZM14.8874 15.1923L14.9389 15.2432L15.8357 14.3347L15.7842 14.2838L15.7326 14.2329L14.8359 15.1413L14.8874 15.1923ZM16.9103 17.4908L16.9119 17.4159L14.8144 17.5091L14.8128 17.5841L14.8111 17.659L16.9086 17.5658L16.9103 17.4908ZM17.0053 15.9096L16.9304 15.9129L16.8966 17.4315L16.9715 17.4282L17.0465 17.4249L17.0802 15.9063L17.0053 15.9096ZM16.172 15.6904L16.1736 15.6155C15.9006 15.6276 15.6743 15.859 15.6682 16.1322L15.7432 16.1289L15.8181 16.1256C15.8223 15.9351 15.98 15.7739 16.1703 15.7654L16.172 15.6904ZM14.5784 17.3548L14.5035 17.3582C14.4996 17.5321 14.6373 17.6668 14.8111 17.659L14.8128 17.5841L14.8144 17.5091C14.7234 17.5131 14.6513 17.4426 14.6533 17.3515L14.5784 17.3548ZM16.9103 17.4908L16.9086 17.5658C16.9831 17.5625 17.0448 17.4994 17.0465 17.4249L16.9715 17.4282L16.8966 17.4315C16.8968 17.4232 16.9037 17.4162 16.9119 17.4159L16.9103 17.4908ZM16.7547 15.6645L16.7531 15.7395C16.8532 15.7351 16.9326 15.8127 16.9304 15.9129L17.0053 15.9096L17.0802 15.9063C17.0843 15.7232 16.9393 15.5814 16.7564 15.5896L16.7547 15.6645ZM14.6123 15.8306L14.6872 15.8273C14.692 15.6119 14.7826 15.4016 14.9389 15.2432L14.8874 15.1923L14.8359 15.1413C14.6505 15.3291 14.543 15.5785 14.5373 15.834L14.6123 15.8306Z" fill="#A1A2A2"/>
<path d="M16.1346 13.0831L16.1888 13.0277L16.1364 12.9765L16.0822 13.033L16.1346 13.0831ZM18.0542 15.3709C18.0493 15.5917 18.2242 15.7628 18.4449 15.753C18.6656 15.7432 18.8485 15.5562 18.8534 15.3354C18.8583 15.1145 18.6834 14.9434 18.4627 14.9532C18.242 14.963 18.0591 15.15 18.0542 15.3709ZM14.0036 16.2191C14.045 16.2172 14.0793 16.1822 14.0802 16.1408C14.0811 16.0994 14.0483 16.0673 14.007 16.0691L14.0036 16.2191ZM13.0463 16.1867L12.9948 16.1358L12.8625 16.2698L13.0447 16.2617L13.0463 16.1867ZM14.9528 14.2104C14.9232 14.2413 14.9227 14.2887 14.9516 14.3164C14.9805 14.3441 15.0279 14.3415 15.0576 14.3106L14.9528 14.2104ZM14.323 14.9967C14.353 14.9662 14.3543 14.9187 14.3259 14.8906C14.2974 14.8625 14.25 14.8643 14.2199 14.8948L14.323 14.9967ZM16.1346 13.0831L16.0804 13.1384L18.3996 15.4085L18.4538 15.3531L18.508 15.2978L16.1888 13.0277L16.1346 13.0831ZM14.0053 16.1441L14.007 16.0691L13.048 16.1117L13.0463 16.1867L13.0447 16.2617L14.0036 16.2191L14.0053 16.1441ZM15.0052 14.2605L15.0576 14.3106L16.187 13.1332L16.1346 13.0831L16.0822 13.033L14.9528 14.2104L15.0052 14.2605ZM13.0463 16.1867L13.0979 16.2377L14.323 14.9967L14.2714 14.9457L14.2199 14.8948L12.9948 16.1358L13.0463 16.1867Z" fill="#F49911"/>
<path d="M15.0056 14.261L15.0162 13.7859L15.2559 13.7752L15.2664 13.3001L14.9668 13.3134C14.9668 13.3134 14.843 13.4969 14.6632 13.5049C14.4834 13.5129 14.3675 13.3401 14.3675 13.3401L14.0679 13.3534L14.0573 13.8285L14.297 13.8178L14.272 14.9462" stroke="#F49911" stroke-width="0.15"/>
<ellipse cx="0.239952" cy="0.237604" rx="0.239952" ry="0.237604" transform="matrix(0.999014 -0.0444006 -0.0222167 0.999753 14.4358 12.9214)" fill="#F49911"/>
<path d="M13.9971 12.5167C13.981 12.4855 13.9928 12.4454 14.0245 12.4262C14.4928 12.1417 14.885 12.1205 15.35 12.3662C15.3821 12.3832 15.3926 12.4238 15.3744 12.4576C15.3549 12.494 15.31 12.5086 15.2752 12.4908C14.8482 12.2728 14.5098 12.2665 14.096 12.5381C14.061 12.561 14.0152 12.5518 13.9971 12.5167Z" fill="#A1A2A2"/>
<path d="M14.2234 12.6478C14.2127 12.627 14.2206 12.6003 14.2417 12.5875C14.5539 12.3978 14.8153 12.3837 15.1253 12.5475C15.1467 12.5588 15.1537 12.5859 15.1416 12.6084C15.1286 12.6327 15.0986 12.6424 15.0754 12.6306C14.7908 12.4852 14.5652 12.481 14.2894 12.6621C14.266 12.6774 14.2355 12.6712 14.2234 12.6478Z" fill="#F49911"/>
<path d="M14.3287 12.8705C14.3225 12.8541 14.3279 12.8349 14.3423 12.8234C14.5806 12.6329 14.7785 12.6215 15.013 12.7927C15.0277 12.8034 15.0325 12.8232 15.0252 12.841C15.0141 12.8681 14.9807 12.8786 14.9577 12.8631C14.756 12.7267 14.5924 12.7212 14.395 12.8841C14.3723 12.9029 14.3386 12.8966 14.3287 12.8705Z" fill="#A1A2A2"/>
<defs>
<filter id="filter0_i_370_2665" x="0" y="0" width="24" height="21.0127" filterUnits="userSpaceOnUse" color-interpolation-filters="sRGB">
<feFlood flood-opacity="0" result="BackgroundImageFix"/>
<feBlend mode="normal" in="SourceGraphic" in2="BackgroundImageFix" result="shape"/>
<feColorMatrix in="SourceAlpha" type="matrix" values="0 0 0 0 0 0 0 0 0 0 0 0 0 0 0 0 0 0 127 0" result="hardAlpha"/>
<feOffset/>
<feGaussianBlur stdDeviation="0.55"/>
<feComposite in2="hardAlpha" operator="arithmetic" k2="-1" k3="1"/>
<feColorMatrix type="matrix" values="0 0 0 0 0 0 0 0 0 0 0 0 0 0 0 0 0 0 0.25 0"/>
<feBlend mode="normal" in2="shape" result="effect1_innerShadow_370_2665"/>
</filter>
<filter id="filter1_i_370_2665" x="-2" y="7.00415" width="21.4805" height="11.9213" filterUnits="userSpaceOnUse" color-interpolation-filters="sRGB">
<feFlood flood-opacity="0" result="BackgroundImageFix"/>
<feBlend mode="normal" in="SourceGraphic" in2="BackgroundImageFix" result="shape"/>
<feColorMatrix in="SourceAlpha" type="matrix" values="0 0 0 0 0 0 0 0 0 0 0 0 0 0 0 0 0 0 127 0" result="hardAlpha"/>
<feOffset dx="-2"/>
<feGaussianBlur stdDeviation="1.9"/>
<feComposite in2="hardAlpha" operator="arithmetic" k2="-1" k3="1"/>
<feColorMatrix type="matrix" values="0 0 0 0 0 0 0 0 0 0 0 0 0 0 0 0 0 0 0.25 0"/>
<feBlend mode="normal" in2="shape" result="effect1_innerShadow_370_2665"/>
</filter>
<filter id="filter2_ii_370_2665" x="1.19531" y="22.4127" width="21.5996" height="9.58789" filterUnits="userSpaceOnUse" color-interpolation-filters="sRGB">
<feFlood flood-opacity="0" result="BackgroundImageFix"/>
<feBlend mode="normal" in="SourceGraphic" in2="BackgroundImageFix" result="shape"/>
<feColorMatrix in="SourceAlpha" type="matrix" values="0 0 0 0 0 0 0 0 0 0 0 0 0 0 0 0 0 0 127 0" result="hardAlpha"/>
<feOffset dy="-0.5"/>
<feComposite in2="hardAlpha" operator="arithmetic" k2="-1" k3="1"/>
<feColorMatrix type="matrix" values="0 0 0 0 0 0 0 0 0 0 0 0 0 0 0 0 0 0 0.25 0"/>
<feBlend mode="normal" in2="shape" result="effect1_innerShadow_370_2665"/>
<feColorMatrix in="SourceAlpha" type="matrix" values="0 0 0 0 0 0 0 0 0 0 0 0 0 0 0 0 0 0 127 0" result="hardAlpha"/>
<feOffset/>
<feGaussianBlur stdDeviation="0.65"/>
<feComposite in2="hardAlpha" operator="arithmetic" k2="-1" k3="1"/>
<feColorMatrix type="matrix" values="0 0 0 0 0 0 0 0 0 0 0 0 0 0 0 0 0 0 0.25 0"/>
<feBlend mode="normal" in2="effect1_innerShadow_370_2665" result="effect2_innerShadow_370_2665"/>
</filter>
<filter id="filter3_i_370_2665" x="10.8047" y="21.0123" width="3" height="1.40082" filterUnits="userSpaceOnUse" color-interpolation-filters="sRGB">
<feFlood flood-opacity="0" result="BackgroundImageFix"/>
<feBlend mode="normal" in="SourceGraphic" in2="BackgroundImageFix" result="shape"/>
<feColorMatrix in="SourceAlpha" type="matrix" values="0 0 0 0 0 0 0 0 0 0 0 0 0 0 0 0 0 0 127 0" result="hardAlpha"/>
<feOffset/>
<feGaussianBlur stdDeviation="0.55"/>
<feComposite in2="hardAlpha" operator="arithmetic" k2="-1" k3="1"/>
<feColorMatrix type="matrix" values="0 0 0 0 0 0 0 0 0 0 0 0 0 0 0 0 0 0 0.25 0"/>
<feBlend mode="normal" in2="shape" result="effect1_innerShadow_370_2665"/>
</filter>
<filter id="filter4_i_370_2665" x="8.31958" y="21.5128" width="7.59985" height="3.20166" filterUnits="userSpaceOnUse" color-interpolation-filters="sRGB">
<feFlood flood-opacity="0" result="BackgroundImageFix"/>
<feBlend mode="normal" in="SourceGraphic" in2="BackgroundImageFix" result="shape"/>
<feColorMatrix in="SourceAlpha" type="matrix" values="0 0 0 0 0 0 0 0 0 0 0 0 0 0 0 0 0 0 127 0" result="hardAlpha"/>
<feOffset/>
<feGaussianBlur stdDeviation="0.55"/>
<feComposite in2="hardAlpha" operator="arithmetic" k2="-1" k3="1"/>
<feColorMatrix type="matrix" values="0 0 0 0 0 0 0 0 0 0 0 0 0 0 0 0 0 0 0.25 0"/>
<feBlend mode="normal" in2="shape" result="effect1_innerShadow_370_2665"/>
</filter>
</defs>
</svg>
