<svg width="24" height="32" viewBox="0 0 24 32" fill="none" xmlns="http://www.w3.org/2000/svg">
<g filter="url(#filter0_i_370_2708)">
<path d="M0.000244141 2.72897C0.000244141 2.18761 0.432231 1.74057 0.973444 1.75326C4.18488 1.82858 6.12709 2.80737 9.1316 4.94878C9.38403 5.1287 9.53727 5.4176 9.54684 5.72744L10.1848 26.3779C10.2006 26.8874 9.83018 27.3307 9.32292 27.381C5.74025 27.736 2.82493 26.9844 0.191755 23.4743C0.0660855 23.3068 0.000244141 23.1008 0.000244141 22.8914V2.72897Z" fill="#F1F1F1"/>
</g>
<g filter="url(#filter1_ii_370_2708)">
<path d="M5.41016 0C7.7244 0.743581 9.11894 1.40179 10.4023 2.39551C11.027 2.81521 11.7796 3.45102 12.6641 4.36328C12.8412 4.54603 12.9433 4.79722 12.9434 5.05176L12.9395 25.3975C12.9392 25.8251 12.6666 26.2057 12.2617 26.3438L9.53516 27.2725V5.77441L9.49609 5.7998C7.48211 3.56824 5.447 2.33677 1.3623 1.75684L5.41016 0Z" fill="#F1F1F1"/>
</g>
<path d="M4.82275 1.42395L7.71623 2.84788" stroke="#F49911" stroke-width="0.5" stroke-linecap="round"/>
<g filter="url(#filter2_i_370_2708)">
<path d="M14.4675 11.1308C14.4675 10.5871 14.9028 10.1381 15.4462 10.1577C17.5906 10.235 18.9767 10.772 21.0009 11.8904C21.3037 12.0577 21.4946 12.3727 21.5082 12.7183L21.9511 23.9616C21.9717 24.4858 21.5836 24.9411 21.06 24.9731C18.6029 25.1237 16.5745 24.6759 14.7365 22.8287C14.5601 22.6514 14.4675 22.4081 14.4675 22.158V11.1308Z" fill="#F1F1F1"/>
</g>
<g filter="url(#filter3_ii_370_2708)">
<path d="M18.4514 9.13788C20.1423 9.56404 21.1667 9.94149 22.1057 10.508C22.5329 10.7307 23.0418 11.0627 23.636 11.5314C23.8689 11.7152 24.0002 11.9985 24.0002 12.2951L23.9973 23.4543C23.997 23.9068 23.6923 24.3032 23.2551 24.4201L21.4905 24.8918V12.4719L21.4602 12.4875C19.9772 11.1986 18.4786 10.4875 15.4709 10.1525L18.4514 9.13788Z" fill="#F1F1F1"/>
</g>
<path d="M6.18806 16.2378L6.25654 16.2664L6.18806 16.2378ZM6.22424 17.0493L6.29272 17.0779L6.29272 17.0779L6.22424 17.0493ZM4.33206 13.9754C4.33704 14.1963 4.50473 14.4481 4.7066 14.5379C4.90848 14.6277 5.06809 14.5214 5.06312 14.3005C5.05814 14.0796 4.89046 13.8278 4.68858 13.738C4.48671 13.6482 4.32709 13.7545 4.33206 13.9754ZM2.50593 14.8101C2.51091 15.031 2.67859 15.2828 2.88047 15.3726C3.08234 15.4624 3.24196 15.3561 3.23698 15.1352C3.23201 14.9143 3.06432 14.6625 2.86245 14.5727C2.66057 14.4829 2.50095 14.5892 2.50593 14.8101ZM6.38753 17.3668L6.36386 17.4253L6.38753 17.3668ZM6.18806 16.2378L6.11959 16.2092L6.15577 17.0207L6.22424 17.0493L6.29272 17.0779L6.25654 16.2664L6.18806 16.2378ZM4.69759 14.138L4.69928 14.213L4.79739 14.2566L4.7957 14.1816L4.79401 14.1066L4.6959 14.063L4.69759 14.138ZM2.88361 15.5123L2.95215 15.5428L2.93999 15.0031L2.87146 14.9727L2.80292 14.9422L2.81508 15.4818L2.88361 15.5123ZM6.30739 17.8534L6.3057 17.7784L3.65615 16.6001L3.65784 16.6751L3.65953 16.7501L6.30908 17.9284L6.30739 17.8534ZM2.88361 15.5123L2.81508 15.4818C2.82629 15.9799 3.20437 16.5477 3.65953 16.7501L3.65784 16.6751L3.65615 16.6001C3.27669 16.4314 2.9615 15.958 2.95215 15.5428L2.88361 15.5123ZM6.22424 17.0493L6.15577 17.0207C6.16206 17.1618 6.24398 17.3211 6.36386 17.4253L6.38753 17.3668L6.41121 17.3083C6.34295 17.249 6.2963 17.1583 6.29272 17.0779L6.22424 17.0493ZM6.38753 17.3668L6.36386 17.4253C6.55155 17.5886 6.50564 17.8673 6.3057 17.7784L6.30739 17.8534L6.30908 17.9284C6.66019 18.0845 6.74082 17.595 6.41121 17.3083L6.38753 17.3668ZM6.18806 16.2378L6.25654 16.2664C6.21835 15.4099 5.56931 14.4514 4.79401 14.1066L4.7957 14.1816L4.79739 14.2566C5.4983 14.5683 6.08507 15.4348 6.11959 16.2092L6.18806 16.2378Z" fill="#F49911"/>
<path d="M4.20447 15.5061C4.20945 15.727 4.37714 15.9788 4.57901 16.0686C4.78089 16.1584 4.9405 16.0521 4.93553 15.8312C4.93055 15.6103 4.76287 15.3585 4.56099 15.2687C4.35912 15.1789 4.1995 15.2852 4.20447 15.5061ZM4.14962 13.0709C4.15459 13.2918 4.32228 13.5436 4.52415 13.6334C4.72603 13.7232 4.88565 13.6169 4.88067 13.396C4.8757 13.1751 4.70801 12.9233 4.50614 12.8335C4.30426 12.7437 4.14464 12.85 4.14962 13.0709ZM3.54217 15.7915L3.61071 15.822L3.57636 14.2973L3.50783 14.2669L3.43929 14.2364L3.47364 15.761L3.54217 15.7915ZM4.93079 14.8295L4.93248 14.9045L5.46514 15.1414L5.46345 15.0664L5.46176 14.9914L4.9291 14.7545L4.93079 14.8295ZM4.55671 15.0786L4.48817 15.0481L4.50146 15.6382L4.57 15.6687L4.63854 15.6991L4.62525 15.1091L4.55671 15.0786ZM3.73253 13.7463L3.78196 13.8211L4.56458 13.3082L4.51514 13.2335L4.46571 13.1587L3.68309 13.6716L3.73253 13.7463ZM5.68441 16.9816L5.68272 16.9066L3.76504 16.0538L3.76673 16.1288L3.76842 16.2038L5.6861 17.0566L5.68441 16.9816ZM5.70364 15.4271L5.6351 15.3966L5.66932 16.9155L5.73785 16.946L5.80639 16.9765L5.77218 15.4576L5.70364 15.4271ZM4.93079 14.8295L4.9291 14.7545C4.67943 14.6435 4.48202 14.7749 4.48817 15.0481L4.55671 15.0786L4.62525 15.1091C4.62096 14.9187 4.75851 14.8271 4.93248 14.9045L4.93079 14.8295ZM3.54217 15.7915L3.47364 15.761C3.47755 15.9349 3.60953 16.1331 3.76842 16.2038L3.76673 16.1288L3.76504 16.0538C3.68186 16.0168 3.61276 15.913 3.61071 15.822L3.54217 15.7915ZM5.68441 16.9816L5.6861 17.0566C5.75421 17.0869 5.80807 17.051 5.80639 16.9765L5.73785 16.946L5.66932 16.9155C5.66913 16.9072 5.67513 16.9032 5.68272 16.9066L5.68441 16.9816ZM5.46345 15.0664L5.46514 15.1414C5.55675 15.1821 5.63284 15.2964 5.6351 15.3966L5.70364 15.4271L5.77218 15.4576C5.76805 15.2745 5.62907 15.0658 5.46176 14.9914L5.46345 15.0664ZM3.50783 14.2669L3.57636 14.2973C3.57151 14.0819 3.64553 13.9105 3.78196 13.8211L3.73253 13.7463L3.68309 13.6716C3.52131 13.7776 3.43354 13.981 3.43929 14.2364L3.50783 14.2669Z" fill="#A1A2A2"/>
<path d="M4.78491 12.1786L4.83219 12.1472L4.78199 12.0717L4.73474 12.1044L4.78491 12.1786ZM6.64281 15.3572C6.64784 15.5782 6.81558 15.83 7.01745 15.9198C7.21933 16.0095 7.3789 15.9032 7.37386 15.6823C7.36882 15.4613 7.20108 15.2095 6.99921 15.1197C6.79733 15.03 6.63777 15.1363 6.64281 15.3572ZM2.96747 14.3857C3.00532 14.4025 3.03524 14.3825 3.03429 14.3411C3.03335 14.2997 3.0019 14.2525 2.96405 14.2357L2.96747 14.3857ZM2.08876 13.9208L2.03931 13.846L1.92389 13.9217L2.09047 13.9958L2.08876 13.9208ZM3.75057 12.7843C3.72477 12.8022 3.72631 12.8499 3.75402 12.8909C3.78173 12.9319 3.82511 12.9506 3.85092 12.9328L3.75057 12.7843ZM3.20735 13.2945C3.23358 13.2773 3.2327 13.2299 3.20539 13.1886C3.17808 13.1474 3.13468 13.1278 3.10846 13.145L3.20735 13.2945ZM4.78491 12.1786L4.73763 12.2101L6.96105 15.5512L7.00833 15.5198L7.05561 15.4883L4.83219 12.1472L4.78491 12.1786ZM2.96576 14.3107L2.96405 14.2357L2.08705 13.8458L2.08876 13.9208L2.09047 13.9958L2.96747 14.3857L2.96576 14.3107ZM3.80075 12.8586L3.85092 12.9328L4.83508 12.2529L4.78491 12.1786L4.73474 12.1044L3.75057 12.7843L3.80075 12.8586ZM2.08876 13.9208L2.13821 13.9955L3.20735 13.2945L3.1579 13.2198L3.10846 13.145L2.03931 13.846L2.08876 13.9208Z" fill="#F49911"/>
<path d="M3.80041 12.8597L3.78971 12.3845L4.00887 12.482L3.99817 12.0068L3.72421 11.885C3.72421 11.885 3.61864 12.0144 3.45427 11.9413C3.2899 11.8682 3.1763 11.6413 3.1763 11.6413L2.90234 11.5195L2.91305 11.9946L3.13221 12.0921L3.15763 13.2206" stroke="#F49911" stroke-width="0.15"/>
<ellipse cx="0.239862" cy="0.237624" rx="0.239862" ry="0.237624" transform="matrix(0.913817 0.406384 0.0225247 0.99989 3.22192 11.2497)" fill="#F49911"/>
<path d="M2.80188 10.6427C2.78582 10.6039 2.79493 10.5688 2.82314 10.5636C3.24014 10.4875 3.59868 10.6432 4.0354 11.1017C4.06556 11.1333 4.07693 11.1791 4.06175 11.2051C4.04542 11.2331 4.00478 11.2275 3.97209 11.1938C3.57151 10.7806 3.26107 10.6214 2.89358 10.709C2.86246 10.7165 2.82002 10.6864 2.80188 10.6427Z" fill="#A1A2A2"/>
<path d="M3.01644 10.8773C3.00573 10.8515 3.01181 10.828 3.03062 10.8246C3.30861 10.7738 3.54764 10.8777 3.83879 11.1833C3.85889 11.2044 3.86647 11.2349 3.85635 11.2522C3.84546 11.2709 3.81837 11.2672 3.79658 11.2447C3.52953 10.9692 3.32256 10.8631 3.07757 10.9215C3.05682 10.9265 3.02853 10.9064 3.01644 10.8773Z" fill="#F49911"/>
<path d="M3.12063 11.1498C3.11426 11.1305 3.11834 11.1135 3.13104 11.1083C3.34125 11.0235 3.52214 11.1013 3.74445 11.3802C3.75838 11.3977 3.76362 11.4199 3.7577 11.4346C3.74867 11.457 3.7185 11.4525 3.69673 11.4263C3.50601 11.1974 3.35588 11.118 3.18198 11.1935C3.16195 11.2022 3.13082 11.1806 3.12063 11.1498Z" fill="#A1A2A2"/>
<defs>
<filter id="filter0_i_370_2708" x="0.000244141" y="1.75299" width="10.1851" height="25.7076" filterUnits="userSpaceOnUse" color-interpolation-filters="sRGB">
<feFlood flood-opacity="0" result="BackgroundImageFix"/>
<feBlend mode="normal" in="SourceGraphic" in2="BackgroundImageFix" result="shape"/>
<feColorMatrix in="SourceAlpha" type="matrix" values="0 0 0 0 0 0 0 0 0 0 0 0 0 0 0 0 0 0 127 0" result="hardAlpha"/>
<feOffset/>
<feGaussianBlur stdDeviation="0.55"/>
<feComposite in2="hardAlpha" operator="arithmetic" k2="-1" k3="1"/>
<feColorMatrix type="matrix" values="0 0 0 0 0 0 0 0 0 0 0 0 0 0 0 0 0 0 0.25 0"/>
<feBlend mode="normal" in2="shape" result="effect1_innerShadow_370_2708"/>
</filter>
<filter id="filter1_ii_370_2708" x="1.3623" y="0" width="11.5811" height="27.2725" filterUnits="userSpaceOnUse" color-interpolation-filters="sRGB">
<feFlood flood-opacity="0" result="BackgroundImageFix"/>
<feBlend mode="normal" in="SourceGraphic" in2="BackgroundImageFix" result="shape"/>
<feColorMatrix in="SourceAlpha" type="matrix" values="0 0 0 0 0 0 0 0 0 0 0 0 0 0 0 0 0 0 127 0" result="hardAlpha"/>
<feOffset dx="-1"/>
<feComposite in2="hardAlpha" operator="arithmetic" k2="-1" k3="1"/>
<feColorMatrix type="matrix" values="0 0 0 0 0 0 0 0 0 0 0 0 0 0 0 0 0 0 0.25 0"/>
<feBlend mode="normal" in2="shape" result="effect1_innerShadow_370_2708"/>
<feColorMatrix in="SourceAlpha" type="matrix" values="0 0 0 0 0 0 0 0 0 0 0 0 0 0 0 0 0 0 127 0" result="hardAlpha"/>
<feOffset/>
<feGaussianBlur stdDeviation="0.55"/>
<feComposite in2="hardAlpha" operator="arithmetic" k2="-1" k3="1"/>
<feColorMatrix type="matrix" values="0 0 0 0 0 0 0 0 0 0 0 0 0 0 0 0 0 0 0.25 0"/>
<feBlend mode="normal" in2="effect1_innerShadow_370_2708" result="effect2_innerShadow_370_2708"/>
</filter>
<filter id="filter2_i_370_2708" x="14.4675" y="10.1571" width="7.48438" height="14.843" filterUnits="userSpaceOnUse" color-interpolation-filters="sRGB">
<feFlood flood-opacity="0" result="BackgroundImageFix"/>
<feBlend mode="normal" in="SourceGraphic" in2="BackgroundImageFix" result="shape"/>
<feColorMatrix in="SourceAlpha" type="matrix" values="0 0 0 0 0 0 0 0 0 0 0 0 0 0 0 0 0 0 127 0" result="hardAlpha"/>
<feOffset/>
<feGaussianBlur stdDeviation="0.55"/>
<feComposite in2="hardAlpha" operator="arithmetic" k2="-1" k3="1"/>
<feColorMatrix type="matrix" values="0 0 0 0 0 0 0 0 0 0 0 0 0 0 0 0 0 0 0.25 0"/>
<feBlend mode="normal" in2="shape" result="effect1_innerShadow_370_2708"/>
</filter>
<filter id="filter3_ii_370_2708" x="15.4709" y="9.13788" width="8.5293" height="15.7539" filterUnits="userSpaceOnUse" color-interpolation-filters="sRGB">
<feFlood flood-opacity="0" result="BackgroundImageFix"/>
<feBlend mode="normal" in="SourceGraphic" in2="BackgroundImageFix" result="shape"/>
<feColorMatrix in="SourceAlpha" type="matrix" values="0 0 0 0 0 0 0 0 0 0 0 0 0 0 0 0 0 0 127 0" result="hardAlpha"/>
<feOffset dx="-1"/>
<feComposite in2="hardAlpha" operator="arithmetic" k2="-1" k3="1"/>
<feColorMatrix type="matrix" values="0 0 0 0 0 0 0 0 0 0 0 0 0 0 0 0 0 0 0.25 0"/>
<feBlend mode="normal" in2="shape" result="effect1_innerShadow_370_2708"/>
<feColorMatrix in="SourceAlpha" type="matrix" values="0 0 0 0 0 0 0 0 0 0 0 0 0 0 0 0 0 0 127 0" result="hardAlpha"/>
<feOffset/>
<feGaussianBlur stdDeviation="0.55"/>
<feComposite in2="hardAlpha" operator="arithmetic" k2="-1" k3="1"/>
<feColorMatrix type="matrix" values="0 0 0 0 0 0 0 0 0 0 0 0 0 0 0 0 0 0 0.25 0"/>
<feBlend mode="normal" in2="effect1_innerShadow_370_2708" result="effect2_innerShadow_370_2708"/>
</filter>
</defs>
</svg>
