<svg width="24" height="32" viewBox="0 0 24 32" fill="none" xmlns="http://www.w3.org/2000/svg">
<g filter="url(#filter0_i_370_3366)">
<path d="M0.0608968 3.52609C0.032465 2.06658 1.5266 1.0693 2.86355 1.65543L18.925 8.69691C19.6268 9.00461 20.0912 9.68632 20.1205 10.4521L20.822 28.7797C20.8787 30.2621 19.3584 31.2882 18.0049 30.681L1.59272 23.3188C0.886721 23.0021 0.426746 22.3065 0.411675 21.5329L0.0608968 3.52609Z" fill="#F1F1F1"/>
</g>
<path d="M4.479 1.25867C4.68756 1.22044 4.90288 1.24948 5.09386 1.34162L20.2784 8.66758C20.9555 8.99421 21.3922 9.67287 21.4089 10.4244L21.8015 28.0609C21.8121 28.5377 21.652 29.0027 21.3499 29.3718L20.5089 30.3998L20.0988 10.8535C20.0828 10.0868 19.6297 9.39685 18.9326 9.07734L2.61816 1.59983L4.479 1.25867Z" fill="#ADADAD"/>
<g filter="url(#filter1_i_370_3366)">
<path d="M2.61841 1.6L5.28615 0.377271C5.80935 0.137473 6.41048 0.134684 6.93588 0.369619L22.8164 7.47074C23.5365 7.7927 24 8.50778 24 9.29652V27.2408C24 27.9577 23.6163 28.6198 22.9943 28.9762L20.5091 30.4L21.478 28.9197C21.6996 28.5812 21.8133 28.1834 21.8041 27.7789L21.4097 10.4239C21.3926 9.67273 20.956 8.99451 20.2793 8.66802L5.388 1.48358C5.00605 1.29931 4.57541 1.24121 4.15828 1.31769L2.61841 1.6Z" fill="#F1F1F1"/>
</g>
<path d="M17.2429 25.9927L17.3361 26.0263L17.3361 26.0263L17.2429 25.9927ZM17.279 26.7974L17.3722 26.831L17.3722 26.831L17.279 26.7974ZM15.2357 23.788C15.2423 24.0824 15.4703 24.4073 15.745 24.5136C16.0197 24.6198 16.2371 24.4673 16.2305 24.1728C16.224 23.8783 15.996 23.5534 15.7212 23.4472C15.4465 23.3409 15.2291 23.4935 15.2357 23.788ZM13.3833 24.7084C13.3899 25.0029 13.6179 25.3277 13.8926 25.434C14.1674 25.5403 14.3847 25.3877 14.3782 25.0932C14.3716 24.7987 14.1436 24.4739 13.8689 24.3676C13.5942 24.2613 13.3768 24.4139 13.3833 24.7084ZM17.4443 27.1048L17.4121 27.1845L17.4121 27.1845L17.4443 27.1048ZM17.2429 25.9927L17.1498 25.9591L17.1858 26.7638L17.279 26.7974L17.3722 26.831L17.3361 26.0263L17.2429 25.9927ZM15.7331 23.9804L15.7353 24.0804L15.8355 24.1191L15.8333 24.0191L15.8311 23.9192L15.7309 23.8804L15.7331 23.9804ZM13.8927 25.4364L13.986 25.4724L13.974 24.9369L13.8808 24.9008L13.7875 24.8647L13.7994 25.4003L13.8927 25.4364ZM17.3628 27.5923L17.3606 27.4924L14.6744 26.4533L14.6766 26.5533L14.6789 26.6533L17.365 27.6923L17.3628 27.5923ZM13.8927 25.4364L13.7994 25.4003C13.8107 25.9088 14.2045 26.4698 14.6789 26.6533L14.6766 26.5533L14.6744 26.4533C14.303 26.3097 13.9948 25.8705 13.986 25.4724L13.8927 25.4364ZM17.279 26.7974L17.1858 26.7638C17.1926 26.914 17.2816 27.0796 17.4121 27.1845L17.4443 27.1048L17.4766 27.0251C17.4164 26.9767 17.3753 26.9003 17.3722 26.831L17.279 26.7974ZM17.4443 27.1048L17.4121 27.1845C17.5775 27.3175 17.5369 27.5606 17.3606 27.4924L17.3628 27.5923L17.365 27.6923C17.7471 27.8401 17.8352 27.3133 17.4766 27.0251L17.4443 27.1048ZM17.2429 25.9927L17.3361 26.0263C17.2974 25.1631 16.6295 24.228 15.8311 23.9192L15.8333 24.0191L15.8355 24.1191C16.5327 24.3888 17.1159 25.2053 17.1498 25.9591L17.2429 25.9927Z" fill="#C5C5C5"/>
<path d="M15.1048 25.315C15.1113 25.6095 15.3394 25.9343 15.6141 26.0406C15.8888 26.1469 16.1062 25.9943 16.0996 25.6998C16.0931 25.4053 15.865 25.0805 15.5903 24.9742C15.3156 24.8679 15.0982 25.0205 15.1048 25.315ZM15.0509 22.8972C15.0575 23.1917 15.2855 23.5166 15.5602 23.6228C15.835 23.7291 16.0523 23.5765 16.0458 23.282C16.0392 22.9876 15.8112 22.6627 15.5365 22.5564C15.2618 22.4502 15.0444 22.6027 15.0509 22.8972ZM14.7541 23.6383L14.6869 23.5419L14.7541 23.6383ZM14.5595 25.6805L14.6527 25.7166L14.619 24.2031L14.5258 24.167L14.4325 24.131L14.4662 25.6444L14.5595 25.6805ZM15.9688 24.6554L15.971 24.7553L16.5114 24.9643L16.5091 24.8644L16.5069 24.7644L15.9666 24.5554L15.9688 24.6554ZM15.5892 24.9218L15.4959 24.8858L15.5089 25.4713L15.6022 25.5074L15.6955 25.5435L15.6824 24.9579L15.5892 24.9218ZM14.7541 23.6383L14.8213 23.7348L15.6156 23.1861L15.5484 23.0896L15.4812 22.9932L14.6869 23.5419L14.7541 23.6383ZM16.7317 26.7569L16.7295 26.657L14.7848 25.9047L14.787 26.0047L14.7892 26.1047L16.7339 26.8569L16.7317 26.7569ZM16.7524 25.2109L16.6591 25.1748L16.6927 26.6828L16.7859 26.7189L16.8792 26.7549L16.8456 25.247L16.7524 25.2109ZM15.9688 24.6554L15.9666 24.5554C15.7003 24.4524 15.4895 24.6003 15.4959 24.8858L15.5892 24.9218L15.6824 24.9579C15.6785 24.7829 15.8077 24.6922 15.971 24.7553L15.9688 24.6554ZM14.5595 25.6805L14.4662 25.6444C14.4704 25.8312 14.615 26.0373 14.7892 26.1047L14.787 26.0047L14.7848 25.9047C14.7136 25.8772 14.6544 25.7929 14.6527 25.7166L14.5595 25.6805ZM16.7317 26.7569L16.7339 26.8569C16.8161 26.8887 16.8812 26.8431 16.8792 26.7549L16.7859 26.7189L16.6927 26.6828C16.6922 26.6605 16.7087 26.6489 16.7295 26.657L16.7317 26.7569ZM16.5091 24.8644L16.5114 24.9643C16.591 24.9952 16.6572 25.0894 16.6591 25.1748L16.7524 25.2109L16.8456 25.247C16.8413 25.0511 16.6896 24.8351 16.5069 24.7644L16.5091 24.8644ZM14.5258 24.167L14.619 24.2031C14.6144 23.996 14.6872 23.8274 14.8213 23.7348L14.7541 23.6383L14.6869 23.5419C14.5183 23.6584 14.4267 23.8705 14.4325 24.131L14.5258 24.167Z" fill="#A1A2A2"/>
<path d="M15.8227 22.0278L15.8871 21.9827L15.8189 21.8854L15.7545 21.9321L15.8227 22.0278ZM17.5767 25.0448C17.5833 25.3393 17.8113 25.6642 18.086 25.7704C18.3607 25.8767 18.5781 25.7241 18.5716 25.4296C18.565 25.1352 18.337 24.8103 18.0623 24.704C17.7876 24.5978 17.5702 24.7503 17.5767 25.0448ZM13.9779 24.3365C14.0294 24.3564 14.0702 24.3278 14.0689 24.2726C14.0677 24.2173 14.0249 24.1564 13.9734 24.1365L13.9757 24.2365L13.9779 24.3365ZM13.0867 23.8926L13.0195 23.7962L12.8621 23.9049L13.0889 23.9926L13.0867 23.8926ZM14.7558 22.6566C14.7206 22.6821 14.7226 22.7456 14.7603 22.7985C14.7979 22.8513 14.857 22.8735 14.8921 22.848L14.8239 22.7523L14.7558 22.6566ZM14.2388 23.2395C14.2746 23.2148 14.2735 23.1516 14.2364 23.0983C14.1992 23.0451 14.1402 23.0219 14.1044 23.0466L14.1716 23.143L14.2388 23.2395ZM15.8227 22.0278L15.7583 22.073L18.0098 25.2824L18.0741 25.2372L18.1385 25.1921L15.8871 21.9827L15.8227 22.0278ZM13.9757 24.2365L13.9734 24.1365L13.0844 23.7926L13.0867 23.8926L13.0889 23.9926L13.9779 24.3365L13.9757 24.2365ZM14.8239 22.7523L14.8921 22.848L15.8909 22.1236L15.8227 22.0278L15.7545 21.9321L14.7558 22.6566L14.8239 22.7523ZM13.0867 23.8926L13.1539 23.989L14.2388 23.2395L14.1716 23.143L14.1044 23.0466L13.0195 23.7962L13.0867 23.8926Z" fill="#C5C5C5"/>
<path d="M14.8236 22.7524L14.8131 22.2806L15.0353 22.3666L15.0248 21.8948L14.747 21.7874C14.747 21.7874 14.6398 21.9213 14.4731 21.8568C14.3065 21.7923 14.1914 21.5724 14.1914 21.5724L13.9136 21.465L13.9241 21.9367L14.1463 22.0227L14.1713 23.1431" stroke="#C5C5C5" stroke-width="0.2"/>
<ellipse cx="0.238298" cy="0.235939" rx="0.238298" ry="0.235939" transform="matrix(0.932656 0.360767 0.0222629 0.999752 14.2385 21.1815)" fill="#C5C5C5"/>
<path d="M13.8124 20.5986C13.7961 20.5609 13.8054 20.5255 13.834 20.519C14.2569 20.4227 14.6204 20.5596 15.0629 20.9932C15.0934 21.0232 15.1049 21.0681 15.0895 21.0947V21.0947C15.0729 21.1233 15.0318 21.1198 14.9987 21.088C14.5927 20.6973 14.278 20.5546 13.9052 20.6599C13.8737 20.6688 13.8308 20.6411 13.8124 20.5986V20.5986Z" fill="#A1A2A2"/>
<path d="M14.0276 20.8209C14.0168 20.7958 14.0229 20.7722 14.042 20.7679C14.3239 20.7037 14.5662 20.7949 14.8612 21.084C14.8816 21.104 14.8893 21.1339 14.879 21.1517V21.1517C14.868 21.1708 14.8405 21.1684 14.8185 21.1472C14.5478 20.8868 14.338 20.7916 14.0895 20.8618C14.0685 20.8678 14.0398 20.8493 14.0276 20.8209V20.8209Z" fill="#C5C5C5"/>
<path d="M14.1368 21.0871C14.1304 21.0682 14.1345 21.0511 14.1474 21.0454C14.3606 20.9506 14.544 21.0189 14.7692 21.285C14.7833 21.3017 14.7886 21.3234 14.7826 21.3383V21.3383C14.7734 21.3611 14.7429 21.3581 14.7208 21.3332C14.5276 21.1153 14.3754 21.0438 14.199 21.1275C14.1786 21.1371 14.1471 21.1172 14.1368 21.0871V21.0871Z" fill="#A1A2A2"/>
<defs>
<filter id="filter0_i_370_3366" x="0.0605469" y="1.48474" width="20.7629" height="29.374" filterUnits="userSpaceOnUse" color-interpolation-filters="sRGB">
<feFlood flood-opacity="0" result="BackgroundImageFix"/>
<feBlend mode="normal" in="SourceGraphic" in2="BackgroundImageFix" result="shape"/>
<feColorMatrix in="SourceAlpha" type="matrix" values="0 0 0 0 0 0 0 0 0 0 0 0 0 0 0 0 0 0 127 0" result="hardAlpha"/>
<feOffset/>
<feGaussianBlur stdDeviation="0.55"/>
<feComposite in2="hardAlpha" operator="arithmetic" k2="-1" k3="1"/>
<feColorMatrix type="matrix" values="0 0 0 0 0 0 0 0 0 0 0 0 0 0 0 0 0 0 0.25 0"/>
<feBlend mode="normal" in2="shape" result="effect1_innerShadow_370_3366"/>
</filter>
<filter id="filter1_i_370_3366" x="2.61841" y="0.195435" width="21.3816" height="30.2045" filterUnits="userSpaceOnUse" color-interpolation-filters="sRGB">
<feFlood flood-opacity="0" result="BackgroundImageFix"/>
<feBlend mode="normal" in="SourceGraphic" in2="BackgroundImageFix" result="shape"/>
<feColorMatrix in="SourceAlpha" type="matrix" values="0 0 0 0 0 0 0 0 0 0 0 0 0 0 0 0 0 0 127 0" result="hardAlpha"/>
<feOffset/>
<feGaussianBlur stdDeviation="0.55"/>
<feComposite in2="hardAlpha" operator="arithmetic" k2="-1" k3="1"/>
<feColorMatrix type="matrix" values="0 0 0 0 0 0 0 0 0 0 0 0 0 0 0 0 0 0 0.25 0"/>
<feBlend mode="normal" in2="shape" result="effect1_innerShadow_370_3366"/>
</filter>
</defs>
</svg>
