<svg width="24" height="32" viewBox="0 0 24 32" fill="none" xmlns="http://www.w3.org/2000/svg">
<g clip-path="url(#clip0_432_2138)">
<g filter="url(#filter0_i_432_2138)">
<path d="M18.0424 31.5012C19.3544 32.1204 20.8685 31.1807 20.8958 29.7302L21.2458 11.1205C21.2606 10.3338 20.8128 9.61159 20.1016 9.27507L3.65521 1.49344C2.33899 0.87067 0.81972 1.81823 0.800003 3.27421L0.547126 21.9486C0.536514 22.7322 0.984547 23.4498 1.69325 23.7843L18.0424 31.5012Z" fill="#F1F1F1"/>
</g>
<path d="M21.9308 28.2809C22.0483 28.1089 22.1091 27.9045 22.1047 27.6962L21.7462 10.5088C21.7304 9.75222 21.2889 9.06931 20.6055 8.74434L4.79537 1.22698C4.28966 0.986527 3.69261 1.04422 3.24229 1.37705L20.0911 9.27547C20.8077 9.61144 21.2589 10.3385 21.2417 11.1298L20.8341 29.8872L21.9308 28.2809Z" fill="url(#paint0_linear_432_2138)"/>
<g filter="url(#filter1_i_432_2138)">
<path d="M20.8335 29.8872L23.0864 27.8826C23.5121 27.5038 23.756 26.9615 23.7569 26.3918L23.7857 9.2631C23.787 8.47805 23.3289 7.76482 22.6144 7.43952L7.01413 0.336899C6.46836 0.088416 5.83988 0.0979399 5.30189 0.362851L3.2424 1.37696L3.56705 1.26546C4.062 1.09547 4.60386 1.12624 5.07637 1.35119L20.6058 8.74409C21.2888 9.06924 21.7299 9.75191 21.7457 10.5082L22.0975 27.376C22.1062 27.7925 21.9846 28.2014 21.7497 28.5454L20.8335 29.8872Z" fill="#F1F1F1"/>
</g>
<path d="M17.1934 26.7716L17.2866 26.8052L17.2866 26.8052L17.1934 26.7716ZM17.2295 27.5763L17.3226 27.6099L17.3226 27.6099L17.2295 27.5763ZM15.1861 24.5669C15.1927 24.8614 15.4207 25.1862 15.6954 25.2925C15.9701 25.3988 16.1875 25.2462 16.181 24.9517C16.1744 24.6572 15.9464 24.3324 15.6717 24.2261C15.397 24.1198 15.1796 24.2724 15.1861 24.5669ZM13.3338 25.4873C13.3403 25.7818 13.5684 26.1067 13.8431 26.2129C14.1178 26.3192 14.3352 26.1666 14.3286 25.8721C14.3221 25.5777 14.094 25.2528 13.8193 25.1465C13.5446 25.0403 13.3272 25.1928 13.3338 25.4873ZM17.3948 27.8837L17.3625 27.9634L17.3625 27.9634L17.3948 27.8837ZM17.1934 26.7716L17.1002 26.738L17.1363 27.5427L17.2295 27.5763L17.3226 27.6099L17.2866 26.8052L17.1934 26.7716ZM15.6836 24.7593L15.6858 24.8593L15.786 24.898L15.7837 24.7981L15.7815 24.6981L15.6813 24.6593L15.6836 24.7593ZM13.8431 26.2153L13.9364 26.2514L13.9245 25.7158L13.8312 25.6797L13.7379 25.6437L13.7499 26.1792L13.8431 26.2153ZM17.3132 28.3713L17.311 28.2713L14.6248 27.2322L14.6271 27.3322L14.6293 27.4322L17.3155 28.4712L17.3132 28.3713ZM13.8431 26.2153L13.7499 26.1792C13.7612 26.6877 14.1549 27.2487 14.6293 27.4322L14.6271 27.3322L14.6248 27.2322C14.2535 27.0886 13.9453 26.6494 13.9364 26.2514L13.8431 26.2153ZM17.2295 27.5763L17.1363 27.5427C17.143 27.6929 17.2321 27.8586 17.3625 27.9634L17.3948 27.8837L17.427 27.8041C17.3669 27.7557 17.3258 27.6792 17.3226 27.6099L17.2295 27.5763ZM17.3948 27.8837L17.3625 27.9634C17.528 28.0964 17.4873 28.3395 17.311 28.2713L17.3132 28.3713L17.3155 28.4712C17.6975 28.619 17.7856 28.0923 17.427 27.8041L17.3948 27.8837ZM17.1934 26.7716L17.2866 26.8052C17.2478 25.942 16.5799 25.0069 15.7815 24.6981L15.7837 24.7981L15.786 24.898C16.4832 25.1677 17.0664 25.9843 17.1002 26.738L17.1934 26.7716Z" fill="#F49911"/>
<path d="M15.0552 26.0939C15.0618 26.3884 15.2898 26.7133 15.5645 26.8195C15.8392 26.9258 16.0566 26.7732 16.0501 26.4787C16.0435 26.1843 15.8155 25.8594 15.5408 25.7531C15.2661 25.6469 15.0487 25.7995 15.0552 26.0939ZM15.0014 23.6762C15.0079 23.9706 15.236 24.2955 15.5107 24.4018C15.7854 24.508 16.0028 24.3555 15.9962 24.061C15.9897 23.7665 15.7616 23.4416 15.4869 23.3354C15.2122 23.2291 14.9948 23.3817 15.0014 23.6762ZM14.7045 24.4173L14.6373 24.3208L14.7045 24.4173ZM14.5099 26.4594L14.6032 26.4955L14.5695 24.9821L14.4762 24.946L14.3829 24.9099L14.4166 26.4234L14.5099 26.4594ZM15.9193 25.4343L15.9215 25.5343L16.4618 25.7433L16.4596 25.6433L16.4573 25.5433L15.917 25.3343L15.9193 25.4343ZM15.5396 25.7008L15.4463 25.6647L15.4594 26.2503L15.5526 26.2863L15.6459 26.3224L15.6329 25.7368L15.5396 25.7008ZM14.7045 24.4173L14.7717 24.5137L15.566 23.965L15.4988 23.8686L15.4316 23.7721L14.6373 24.3208L14.7045 24.4173ZM16.6821 27.5359L16.6799 27.4359L14.7352 26.6837L14.7375 26.7836L14.7397 26.8836L16.6844 27.6358L16.6821 27.5359ZM16.7028 25.9898L16.6095 25.9538L16.6431 27.4617L16.7364 27.4978L16.8296 27.5339L16.7961 26.0259L16.7028 25.9898ZM15.9193 25.4343L15.917 25.3343C15.6507 25.2313 15.44 25.3792 15.4463 25.6647L15.5396 25.7008L15.6329 25.7368C15.629 25.5618 15.7582 25.4711 15.9215 25.5343L15.9193 25.4343ZM14.5099 26.4594L14.4166 26.4234C14.4208 26.6101 14.5654 26.8162 14.7397 26.8836L14.7375 26.7836L14.7352 26.6837C14.664 26.6561 14.6049 26.5719 14.6032 26.4955L14.5099 26.4594ZM16.6821 27.5359L16.6844 27.6358C16.7666 27.6676 16.8316 27.622 16.8296 27.5339L16.7364 27.4978L16.6431 27.4617C16.6426 27.4394 16.6591 27.4278 16.6799 27.4359L16.6821 27.5359ZM16.4596 25.6433L16.4618 25.7433C16.5415 25.7741 16.6076 25.8683 16.6095 25.9538L16.7028 25.9898L16.7961 26.0259C16.7917 25.8301 16.6401 25.614 16.4573 25.5433L16.4596 25.6433ZM14.4762 24.946L14.5695 24.9821C14.5649 24.7749 14.6377 24.6063 14.7717 24.5137L14.7045 24.4173L14.6373 24.3208C14.4687 24.4373 14.3771 24.6494 14.3829 24.9099L14.4762 24.946Z" fill="#A1A2A2"/>
<path d="M15.7732 22.8068L15.8376 22.7616L15.7693 22.6644L15.705 22.7111L15.7732 22.8068ZM17.5272 25.8237C17.5337 26.1182 17.7617 26.4431 18.0365 26.5494C18.3112 26.6556 18.5286 26.503 18.522 26.2086C18.5154 25.9141 18.2874 25.5892 18.0127 25.483C17.738 25.3767 17.5206 25.5293 17.5272 25.8237ZM13.9283 25.1154C13.9798 25.1353 14.0206 25.1067 14.0194 25.0515C14.0181 24.9963 13.9754 24.9354 13.9239 24.9154L13.9261 25.0154L13.9283 25.1154ZM13.0371 24.6715L12.9699 24.5751L12.8126 24.6838L13.0393 24.7715L13.0371 24.6715ZM14.7062 23.4355C14.671 23.461 14.6731 23.5245 14.7107 23.5774C14.7484 23.6303 14.8074 23.6524 14.8426 23.6269L14.7744 23.5312L14.7062 23.4355ZM14.1893 24.0184C14.225 23.9937 14.2239 23.9305 14.1868 23.8773C14.1497 23.824 14.0906 23.8009 14.0549 23.8256L14.1221 23.922L14.1893 24.0184ZM15.7732 22.8068L15.7088 22.8519L17.9602 26.0613L18.0246 26.0162L18.089 25.971L15.8376 22.7616L15.7732 22.8068ZM13.9261 25.0154L13.9239 24.9154L13.0349 24.5716L13.0371 24.6715L13.0393 24.7715L13.9283 25.1154L13.9261 25.0154ZM14.7744 23.5312L14.8426 23.6269L15.8414 22.9025L15.7732 22.8068L15.705 22.7111L14.7062 23.4355L14.7744 23.5312ZM13.0371 24.6715L13.1043 24.768L14.1893 24.0184L14.1221 23.922L14.0549 23.8256L12.9699 24.5751L13.0371 24.6715Z" fill="#F49911"/>
<path d="M14.774 23.5313L14.7635 23.0595L14.9858 23.1455L14.9753 22.6737L14.6975 22.5663C14.6975 22.5663 14.5903 22.7002 14.4236 22.6357C14.2569 22.5713 14.1418 22.3514 14.1418 22.3514L13.864 22.2439L13.8745 22.7157L14.0968 22.8016L14.1217 23.9221" stroke="#F49911" stroke-width="0.2"/>
<ellipse cx="0.238298" cy="0.235939" rx="0.238298" ry="0.235939" transform="matrix(0.932656 0.360767 0.0222629 0.999752 14.189 21.9604)" fill="#F49911"/>
<path d="M13.7629 21.3775C13.7466 21.3398 13.7558 21.3044 13.7845 21.2979C14.2074 21.2016 14.5708 21.3385 15.0133 21.7722C15.0439 21.8021 15.0554 21.847 15.0399 21.8737V21.8737C15.0234 21.9023 14.9822 21.8987 14.9491 21.8669C14.5432 21.4763 14.2285 21.3335 13.8557 21.4389C13.8242 21.4478 13.7812 21.42 13.7629 21.3775V21.3775Z" fill="#A1A2A2"/>
<path d="M13.9781 21.5999C13.9672 21.5747 13.9734 21.5511 13.9925 21.5468C14.2744 21.4826 14.5167 21.5739 14.8117 21.863C14.8321 21.8829 14.8397 21.9129 14.8294 21.9306V21.9306C14.8184 21.9497 14.791 21.9473 14.7689 21.9261C14.4983 21.6657 14.2885 21.5706 14.0399 21.6408C14.0189 21.6467 13.9903 21.6282 13.9781 21.5999V21.5999Z" fill="#F49911"/>
<path d="M14.0873 21.866C14.0808 21.8471 14.085 21.83 14.0978 21.8243C14.3111 21.7295 14.4944 21.7979 14.7197 22.0639C14.7338 22.0806 14.7391 22.1024 14.7331 22.1173V22.1173C14.7239 22.14 14.6933 22.137 14.6713 22.1122C14.478 21.8942 14.3258 21.8227 14.1494 21.9064C14.1291 21.916 14.0976 21.8961 14.0873 21.866V21.866Z" fill="#A1A2A2"/>
</g>
<defs>
<filter id="filter0_i_432_2138" x="0.546875" y="1.29895" width="20.6992" height="30.3959" filterUnits="userSpaceOnUse" color-interpolation-filters="sRGB">
<feFlood flood-opacity="0" result="BackgroundImageFix"/>
<feBlend mode="normal" in="SourceGraphic" in2="BackgroundImageFix" result="shape"/>
<feColorMatrix in="SourceAlpha" type="matrix" values="0 0 0 0 0 0 0 0 0 0 0 0 0 0 0 0 0 0 127 0" result="hardAlpha"/>
<feOffset/>
<feGaussianBlur stdDeviation="0.55"/>
<feComposite in2="hardAlpha" operator="arithmetic" k2="-1" k3="1"/>
<feColorMatrix type="matrix" values="0 0 0 0 0 0 0 0 0 0 0 0 0 0 0 0 0 0 0.25 0"/>
<feBlend mode="normal" in2="shape" result="effect1_innerShadow_432_2138"/>
</filter>
<filter id="filter1_i_432_2138" x="3.24243" y="0.157104" width="20.5432" height="29.7301" filterUnits="userSpaceOnUse" color-interpolation-filters="sRGB">
<feFlood flood-opacity="0" result="BackgroundImageFix"/>
<feBlend mode="normal" in="SourceGraphic" in2="BackgroundImageFix" result="shape"/>
<feColorMatrix in="SourceAlpha" type="matrix" values="0 0 0 0 0 0 0 0 0 0 0 0 0 0 0 0 0 0 127 0" result="hardAlpha"/>
<feOffset/>
<feGaussianBlur stdDeviation="0.55"/>
<feComposite in2="hardAlpha" operator="arithmetic" k2="-1" k3="1"/>
<feColorMatrix type="matrix" values="0 0 0 0 0 0 0 0 0 0 0 0 0 0 0 0 0 0 0.25 0"/>
<feBlend mode="normal" in2="shape" result="effect1_innerShadow_432_2138"/>
</filter>
<linearGradient id="paint0_linear_432_2138" x1="25.2103" y1="21.0984" x2="-0.44409" y2="9.60657" gradientUnits="userSpaceOnUse">
<stop stop-color="#FFB703"/>
<stop offset="1" stop-color="#F9A03F"/>
</linearGradient>
<clipPath id="clip0_432_2138">
<rect width="24" height="32" fill="white"/>
</clipPath>
</defs>
</svg>
