<svg width="32" height="32" viewBox="0 0 32 32" fill="none" xmlns="http://www.w3.org/2000/svg">
<g filter="url(#filter0_i_370_2863)">
<path d="M0.619972 6.40418C0.323216 6.21079 0.316094 5.77866 0.606316 5.5756L7.47715 0.768205C8.14145 0.303408 9.02063 0.285644 9.70317 0.723226L31.0831 14.4302C31.6567 14.798 32.0037 15.4325 32.0037 16.1139V28.0819C32.0037 28.4786 31.7692 28.8378 31.4061 28.9974L25.2092 31.7213C24.8277 31.8889 24.3831 31.8015 24.1382 31.4645C23.6303 30.7654 22.8608 29.4355 22.8608 27.7939C22.8608 26.1007 22.8608 23.4545 22.8608 21.9811C22.8608 21.305 22.5192 20.6753 21.9528 20.3062L0.619972 6.40418Z" fill="#F2F2F2"/>
</g>
<path d="M1.59984 16.4079C1.20465 16.1446 0.913446 15.7489 0.791623 15.2899C-0.00939703 12.2719 0.0207827 10.6487 0.485884 6C1.98981 8 21.2033 18.5743 22.4898 20.5C23.7763 22.4257 21.4408 29.8355 24.9986 32L1.59984 16.4079Z" fill="#D9D9D9"/>
<path d="M2.99976 14.3468L19.4998 25.5" stroke="#F49911" stroke-width="0.5" stroke-linecap="round"/>
<g filter="url(#filter1_n_370_2863)">
<path d="M24.989 18.7693V18.7693C24.7219 19.3 24.0509 19.4874 23.5514 19.1655L3.31796 6.12597C2.78297 5.78119 2.88518 4.97048 3.48901 4.76929V4.76929" stroke="#D6D6D6" stroke-width="0.5" stroke-linecap="round"/>
</g>
<g filter="url(#filter2_i_370_2863)">
<path d="M3.99976 18L19.9998 28.5L19.4998 29.5L3.49976 19L3.99976 18Z" fill="#C9C9C9"/>
</g>
<path d="M30.3229 24.9885L30.3926 24.9588L30.3926 24.9588L30.3229 24.9885ZM30.3234 25.7846L30.3931 25.7549L30.3234 25.7846ZM28.5016 24.2787C28.4967 24.4996 28.659 24.6121 28.8641 24.5301C29.0692 24.448 29.2395 24.2025 29.2444 23.9816C29.2493 23.7607 29.087 23.6482 28.8819 23.7303C28.6768 23.8123 28.5065 24.0579 28.5016 24.2787ZM26.5699 26.6999C26.565 26.9207 26.7273 27.0332 26.9324 26.9512C27.1375 26.8692 27.3078 26.6236 27.3127 26.4027C27.3176 26.1819 27.1553 26.0694 26.9502 26.1514C26.7451 26.2334 26.5748 26.479 26.5699 26.6999ZM30.4782 25.9679L30.4511 26.0478L30.4511 26.0478L30.4782 25.9679ZM30.3229 24.9885L30.2533 25.0182L30.2538 25.8143L30.3234 25.7846L30.3931 25.7549L30.3926 24.9588L30.3229 24.9885ZM28.873 24.1302L28.8714 24.2051L28.9721 24.1648L28.9738 24.0899L28.9755 24.0149L28.8747 24.0552L28.873 24.1302ZM26.9293 27.0907L26.999 27.0629L27.0109 26.5234L26.9413 26.5513L26.8717 26.5792L26.8597 27.1186L26.9293 27.0907ZM30.3731 26.5327L30.3747 26.4577L27.6805 27.5354L27.6788 27.6104L27.6771 27.6854L30.3714 26.6077L30.3731 26.5327ZM26.9293 27.0907L26.8597 27.1186C26.8486 27.6166 27.2146 27.8704 27.6771 27.6854L27.6788 27.6104L27.6805 27.5354C27.2948 27.6897 26.9897 27.4781 26.999 27.0629L26.9293 27.0907ZM30.3234 25.7846L30.2538 25.8143C30.2539 25.9527 30.3315 26.0447 30.4511 26.0478L30.4782 25.9679L30.5054 25.8879C30.4374 25.8861 30.3931 25.8337 30.3931 25.7549L30.3234 25.7846ZM30.4782 25.9679L30.4511 26.0478C30.6382 26.0528 30.5779 26.3764 30.3747 26.4577L30.3731 26.5327L30.3714 26.6077C30.7282 26.4649 30.834 25.8966 30.5054 25.8879L30.4782 25.9679ZM30.3229 24.9885L30.3926 24.9588C30.392 24.1187 29.7631 23.6998 28.9755 24.0149L28.9738 24.0899L28.9721 24.1648C29.6842 23.88 30.2527 24.2587 30.2533 25.0182L30.3229 24.9885Z" fill="#F49911"/>
<path d="M28.2981 25.9503C28.2932 26.1711 28.4555 26.2837 28.6606 26.2016C28.8657 26.1196 29.036 25.874 29.0409 25.6532C29.0458 25.4323 28.8835 25.3198 28.6784 25.4018C28.4733 25.4839 28.303 25.7294 28.2981 25.9503ZM28.3522 23.5148C28.3473 23.7357 28.5096 23.8482 28.7147 23.7662C28.9199 23.6841 29.0901 23.4386 29.095 23.2177C29.0999 22.9968 28.9376 22.8843 28.7325 22.9664C28.5274 23.0484 28.3571 23.294 28.3522 23.5148ZM27.5977 26.8109L27.6673 26.783L27.7012 25.2586L27.6315 25.2865L27.5619 25.3143L27.528 26.8388L27.5977 26.8109ZM29.082 24.6359L29.0804 24.7108L29.6223 24.4941L29.624 24.4191L29.6257 24.3441L29.0837 24.5609L29.082 24.6359ZM28.6826 25.2119L28.613 25.2398L28.5999 25.8296L28.6695 25.8017L28.7391 25.7739L28.7522 25.1841L28.6826 25.2119ZM27.8884 24.5623L27.9362 24.596L28.7714 23.4L28.7236 23.3663L28.6758 23.3326L27.8406 24.5286L27.8884 24.5623ZM29.7657 26.1816L29.7674 26.1066L27.8169 26.8868L27.8152 26.9618L27.8136 27.0367L29.764 26.2565L29.7657 26.1816ZM29.8565 24.5803L29.7869 24.6082L29.7531 26.1271L29.8228 26.0993L29.8924 26.0714L29.9262 24.5524L29.8565 24.5803ZM29.082 24.6359L29.0837 24.5609C28.8298 24.6624 28.6191 24.9664 28.613 25.2398L28.6826 25.2119L28.7522 25.1841C28.7565 24.9935 28.9034 24.7816 29.0804 24.7108L29.082 24.6359ZM27.5977 26.8109L27.528 26.8388C27.5242 27.0127 27.652 27.1014 27.8136 27.0367L27.8152 26.9618L27.8169 26.8868C27.7322 26.9206 27.6653 26.8742 27.6673 26.783L27.5977 26.8109ZM29.7657 26.1816L29.764 26.2565C29.8333 26.2289 29.8908 26.146 29.8924 26.0714L29.8228 26.0993L29.7531 26.1271C29.7533 26.1189 29.7597 26.1097 29.7674 26.1066L29.7657 26.1816ZM29.624 24.4191L29.6223 24.4941C29.7154 24.4568 29.7891 24.5079 29.7869 24.6082L29.8565 24.5803L29.9262 24.5524C29.9302 24.3694 29.7957 24.2761 29.6257 24.3441L29.624 24.4191ZM27.6315 25.2865L27.7012 25.2586C27.706 25.0431 27.7906 24.8045 27.9362 24.596L27.8884 24.5623L27.8406 24.5286C27.6679 24.7759 27.5676 25.0588 27.5619 25.3143L27.6315 25.2865Z" fill="#A1A2A2"/>
<path d="M29.0554 22.0563L29.1059 21.9836L29.0573 21.9499L29.0069 22.0237L29.0554 22.0563ZM30.8367 23.6987C30.8318 23.9196 30.9941 24.0321 31.1992 23.95C31.4043 23.868 31.5746 23.6224 31.5795 23.4016C31.5844 23.1807 31.4221 23.0682 31.217 23.1502C31.0118 23.2323 30.8416 23.4778 30.8367 23.6987ZM27.0693 25.8687C27.1078 25.8533 27.1397 25.8073 27.1406 25.7658C27.1416 25.7244 27.1111 25.7033 27.0727 25.7187L27.0693 25.8687ZM26.1794 26.1504L26.1316 26.1167L26.0084 26.2931L26.1777 26.2253L26.1794 26.1504ZM27.955 23.563C27.9274 23.6034 27.9268 23.6507 27.9537 23.6687C27.9805 23.6866 28.0246 23.6685 28.0522 23.6282L27.955 23.563ZM27.3681 24.5502C27.3961 24.5101 27.3974 24.4626 27.371 24.444C27.3446 24.4254 27.3005 24.4428 27.2725 24.4828L27.3681 24.5502ZM29.0554 22.0563L29.005 22.129L31.1576 23.6228L31.2081 23.5501L31.2585 23.4774L29.1059 21.9836L29.0554 22.0563ZM27.071 25.7937L27.0727 25.7187L26.181 26.0754L26.1794 26.1504L26.1777 26.2253L27.0693 25.8687L27.071 25.7937ZM28.0036 23.5956L28.0522 23.6282L29.104 22.0888L29.0554 22.0563L29.0069 22.0237L27.955 23.563L28.0036 23.5956ZM26.1794 26.1504L26.2272 26.1841L27.3681 24.5502L27.3203 24.5165L27.2725 24.4828L26.1316 26.1167L26.1794 26.1504Z" fill="#F49911"/>
<path d="M28.0019 23.5967L28.0124 23.1215L28.2353 23.0323L28.2459 22.5571L27.9673 22.6686C27.9673 22.6686 27.8519 22.8913 27.6847 22.9582C27.5175 23.0251 27.41 22.8915 27.41 22.8915L27.1313 23.0029L27.1208 23.4781L27.3437 23.389L27.3186 24.5176" stroke="#F49911" stroke-width="0.15"/>
<ellipse cx="0.239701" cy="0.237664" rx="0.239701" ry="0.237664" transform="matrix(0.928477 -0.371391 -0.0222167 0.999753 27.4766 22.4521)" fill="#F49911"/>
<path d="M27.0642 22.1966C27.0493 22.171 27.0603 22.1273 27.0898 22.0978C27.5256 21.6627 27.8903 21.5132 28.3222 21.6038C28.3521 21.6101 28.3618 21.6469 28.3448 21.6865C28.3266 21.7289 28.285 21.7579 28.2528 21.7518C27.856 21.6758 27.5411 21.7807 27.1558 22.1855C27.1234 22.2196 27.081 22.2254 27.0642 22.1966Z" fill="#A1A2A2"/>
<path d="M27.2782 22.2508C27.2683 22.2337 27.2756 22.2045 27.2953 22.1849C27.5858 21.8948 27.829 21.7951 28.1169 21.8555C28.1368 21.8597 28.1433 21.8843 28.132 21.9107C28.1199 21.9389 28.0921 21.9583 28.0706 21.9542C27.8061 21.9036 27.5962 21.9734 27.3393 22.2433C27.3177 22.2661 27.2894 22.2699 27.2782 22.2508Z" fill="#F49911"/>
<path d="M27.3761 22.4378C27.3704 22.4236 27.3754 22.4027 27.3888 22.3866C27.6106 22.12 27.7946 22.0438 28.0124 22.1362C28.0261 22.142 28.0305 22.1601 28.0237 22.1802C28.0133 22.2107 27.9824 22.232 27.9611 22.2241C27.7736 22.1552 27.6214 22.2034 27.4375 22.4297C27.4164 22.4556 27.3853 22.4603 27.3761 22.4378Z" fill="#A1A2A2"/>
<defs>
<filter id="filter0_i_370_2863" x="0.393066" y="0.40686" width="31.6106" height="31.3972" filterUnits="userSpaceOnUse" color-interpolation-filters="sRGB">
<feFlood flood-opacity="0" result="BackgroundImageFix"/>
<feBlend mode="normal" in="SourceGraphic" in2="BackgroundImageFix" result="shape"/>
<feColorMatrix in="SourceAlpha" type="matrix" values="0 0 0 0 0 0 0 0 0 0 0 0 0 0 0 0 0 0 127 0" result="hardAlpha"/>
<feOffset/>
<feGaussianBlur stdDeviation="0.55"/>
<feComposite in2="hardAlpha" operator="arithmetic" k2="-1" k3="1"/>
<feColorMatrix type="matrix" values="0 0 0 0 0 0 0 0 0 0 0 0 0 0 0 0 0 0 0.25 0"/>
<feBlend mode="normal" in2="shape" result="effect1_innerShadow_370_2863"/>
</filter>
<filter id="filter1_n_370_2863" x="2.72021" y="4.51917" width="22.5188" height="15.0548" filterUnits="userSpaceOnUse" color-interpolation-filters="sRGB">
<feFlood flood-opacity="0" result="BackgroundImageFix"/>
<feBlend mode="normal" in="SourceGraphic" in2="BackgroundImageFix" result="shape"/>
<feTurbulence type="fractalNoise" baseFrequency="10 10" stitchTiles="stitch" numOctaves="3" result="noise" seed="8090" />
<feColorMatrix in="noise" type="luminanceToAlpha" result="alphaNoise" />
<feComponentTransfer in="alphaNoise" result="coloredNoise1">
<feFuncA type="discrete" tableValues="0 0 0 0 0 0 0 0 0 0 0 0 1 1 1 1 1 1 1 1 1 1 1 1 1 1 1 1 1 1 1 1 1 1 1 1 1 1 0 0 0 0 0 0 0 0 0 0 0 0 0 0 0 0 0 0 0 0 0 0 0 0 0 0 0 0 0 0 0 0 0 0 0 0 0 0 0 0 0 0 0 0 0 0 0 0 0 0 0 0 0 0 0 0 0 0 0 0 0 0 "/>
</feComponentTransfer>
<feComposite operator="in" in2="shape" in="coloredNoise1" result="noise1Clipped" />
<feFlood flood-color="rgba(0, 0, 0, 0.25)" result="color1Flood" />
<feComposite operator="in" in2="noise1Clipped" in="color1Flood" result="color1" />
<feMerge result="effect1_noise_370_2863">
<feMergeNode in="shape" />
<feMergeNode in="color1" />
</feMerge>
</filter>
<filter id="filter2_i_370_2863" x="2.99976" y="18" width="17" height="11.5" filterUnits="userSpaceOnUse" color-interpolation-filters="sRGB">
<feFlood flood-opacity="0" result="BackgroundImageFix"/>
<feBlend mode="normal" in="SourceGraphic" in2="BackgroundImageFix" result="shape"/>
<feColorMatrix in="SourceAlpha" type="matrix" values="0 0 0 0 0 0 0 0 0 0 0 0 0 0 0 0 0 0 127 0" result="hardAlpha"/>
<feOffset dx="-1"/>
<feGaussianBlur stdDeviation="0.25"/>
<feComposite in2="hardAlpha" operator="arithmetic" k2="-1" k3="1"/>
<feColorMatrix type="matrix" values="0 0 0 0 0 0 0 0 0 0 0 0 0 0 0 0 0 0 0.25 0"/>
<feBlend mode="normal" in2="shape" result="effect1_innerShadow_370_2863"/>
</filter>
</defs>
</svg>
