<svg width="32" height="32" viewBox="0 0 32 32" fill="none" xmlns="http://www.w3.org/2000/svg">
<g filter="url(#filter0_i_370_2878)">
<path d="M0.619972 6.40418C0.323216 6.21079 0.316094 5.77866 0.606316 5.5756L7.47715 0.768205C8.14145 0.303408 9.02063 0.285644 9.70317 0.723226L31.0831 14.4302C31.6567 14.798 32.0037 15.4325 32.0037 16.1139V28.0819C32.0037 28.4786 31.7692 28.8378 31.4061 28.9974L25.2092 31.7213C24.8277 31.8889 24.3831 31.8015 24.1382 31.4645C23.6303 30.7654 22.8608 29.4355 22.8608 27.7939C22.8608 26.1007 22.8608 23.4545 22.8608 21.9811C22.8608 21.305 22.5192 20.6753 21.9528 20.3062L0.619972 6.40418Z" fill="#F2F2F2"/>
</g>
<path d="M1.59984 16.4079C1.20465 16.1446 0.913446 15.7489 0.791623 15.2899C-0.00939703 12.2719 0.0207827 10.6487 0.485884 6C1.98981 8 21.2033 18.5743 22.4898 20.5C23.7763 22.4257 21.4408 29.8355 24.9986 32L1.59984 16.4079Z" fill="#D9D9D9"/>
<path d="M2.99962 14.3468L19.9998 25.5" stroke="#A0A0A0" stroke-width="0.5" stroke-linecap="round"/>
<g filter="url(#filter1_n_370_2878)">
<path d="M24.989 18.7693V18.7693C24.7219 19.3 24.0509 19.4874 23.5514 19.1655L3.31796 6.12597C2.78297 5.78119 2.88518 4.97048 3.48901 4.76929V4.76929" stroke="#D6D6D6" stroke-width="0.5" stroke-linecap="round"/>
</g>
<g filter="url(#filter2_i_370_2878)">
<path d="M3.99976 18L19.4998 28.5C19.4998 27.8746 19.1896 27.2899 18.6718 26.9392L4.82768 17.5608C4.47545 17.3222 3.99976 17.5746 3.99976 18Z" fill="#C9C9C9"/>
</g>
<defs>
<filter id="filter0_i_370_2878" x="0.393066" y="0.40686" width="31.6106" height="31.3972" filterUnits="userSpaceOnUse" color-interpolation-filters="sRGB">
<feFlood flood-opacity="0" result="BackgroundImageFix"/>
<feBlend mode="normal" in="SourceGraphic" in2="BackgroundImageFix" result="shape"/>
<feColorMatrix in="SourceAlpha" type="matrix" values="0 0 0 0 0 0 0 0 0 0 0 0 0 0 0 0 0 0 127 0" result="hardAlpha"/>
<feOffset/>
<feGaussianBlur stdDeviation="0.55"/>
<feComposite in2="hardAlpha" operator="arithmetic" k2="-1" k3="1"/>
<feColorMatrix type="matrix" values="0 0 0 0 0 0 0 0 0 0 0 0 0 0 0 0 0 0 0.25 0"/>
<feBlend mode="normal" in2="shape" result="effect1_innerShadow_370_2878"/>
</filter>
<filter id="filter1_n_370_2878" x="2.72021" y="4.51917" width="22.5188" height="15.0548" filterUnits="userSpaceOnUse" color-interpolation-filters="sRGB">
<feFlood flood-opacity="0" result="BackgroundImageFix"/>
<feBlend mode="normal" in="SourceGraphic" in2="BackgroundImageFix" result="shape"/>
<feTurbulence type="fractalNoise" baseFrequency="10 10" stitchTiles="stitch" numOctaves="3" result="noise" seed="8090" />
<feColorMatrix in="noise" type="luminanceToAlpha" result="alphaNoise" />
<feComponentTransfer in="alphaNoise" result="coloredNoise1">
<feFuncA type="discrete" tableValues="0 0 0 0 0 0 0 0 0 0 0 0 1 1 1 1 1 1 1 1 1 1 1 1 1 1 1 1 1 1 1 1 1 1 1 1 1 1 0 0 0 0 0 0 0 0 0 0 0 0 0 0 0 0 0 0 0 0 0 0 0 0 0 0 0 0 0 0 0 0 0 0 0 0 0 0 0 0 0 0 0 0 0 0 0 0 0 0 0 0 0 0 0 0 0 0 0 0 0 0 "/>
</feComponentTransfer>
<feComposite operator="in" in2="shape" in="coloredNoise1" result="noise1Clipped" />
<feFlood flood-color="rgba(0, 0, 0, 0.25)" result="color1Flood" />
<feComposite operator="in" in2="noise1Clipped" in="color1Flood" result="color1" />
<feMerge result="effect1_noise_370_2878">
<feMergeNode in="shape" />
<feMergeNode in="color1" />
</feMerge>
</filter>
<filter id="filter2_i_370_2878" x="3.49976" y="17.4686" width="16" height="11.0314" filterUnits="userSpaceOnUse" color-interpolation-filters="sRGB">
<feFlood flood-opacity="0" result="BackgroundImageFix"/>
<feBlend mode="normal" in="SourceGraphic" in2="BackgroundImageFix" result="shape"/>
<feColorMatrix in="SourceAlpha" type="matrix" values="0 0 0 0 0 0 0 0 0 0 0 0 0 0 0 0 0 0 127 0" result="hardAlpha"/>
<feOffset dx="-1"/>
<feGaussianBlur stdDeviation="0.25"/>
<feComposite in2="hardAlpha" operator="arithmetic" k2="-1" k3="1"/>
<feColorMatrix type="matrix" values="0 0 0 0 0 0 0 0 0 0 0 0 0 0 0 0 0 0 0.25 0"/>
<feBlend mode="normal" in2="shape" result="effect1_innerShadow_370_2878"/>
</filter>
</defs>
</svg>
