<svg width="34" height="24" viewBox="0 0 34 24" fill="none" xmlns="http://www.w3.org/2000/svg">
<g filter="url(#filter0_i_370_2156)">
<ellipse cx="17.1174" cy="8.52792" rx="15.8826" ry="8.52792" fill="#F2F2F2"/>
</g>
<path d="M2.99958 7.30969L17.1174 15.8376" stroke="#B3B3B3" stroke-width="0.2" stroke-linecap="round"/>
<path d="M17.1174 1.46826C21.1481 1.46826 24.7847 2.28134 27.4045 3.5835C30.0398 4.89333 31.5734 6.65584 31.5735 8.52783C31.5735 10.4074 30.0301 12.322 27.3948 13.7827C24.775 15.2347 21.1412 16.1968 17.1174 16.1968C13.0937 16.1968 9.45988 15.2347 6.84009 13.7827C4.20477 12.322 2.66138 10.4074 2.66138 8.52783C2.66142 6.65584 4.1951 4.89333 6.83032 3.5835C9.45018 2.28133 13.0867 1.46827 17.1174 1.46826Z" stroke="#A0A0A0" stroke-width="0.5"/>
<path d="M12.9998 21.3198L9.60208 22.7462" stroke="#A3A3A3" stroke-width="0.5" stroke-linecap="round"/>
<path d="M2.41173 16.4465L1.23536 17.6646" stroke="#A3A3A3" stroke-width="0.5" stroke-linecap="round"/>
<path d="M19.4704 21.3198L22.4116 23.1472" stroke="#A3A3A3" stroke-width="0.5" stroke-linecap="round"/>
<g filter="url(#filter1_f_370_2156)">
<path d="M1.23486 9.13708C4.12781 18.8745 28.8579 20.0958 33 9.13708V13.5752C33 15.0133 32.3959 16.4029 31.2415 17.2605C23.695 22.8663 13.5027 24.3001 3.19496 17.2758C1.92802 16.4124 1.23486 14.9426 1.23486 13.4094V9.13708Z" fill="#F3F3F3"/>
<path d="M32.8999 13.5756C32.8998 14.9864 32.3074 16.344 31.1821 17.1801C23.6675 22.7623 13.5217 24.1915 3.25146 17.1927C2.01494 16.3501 1.33451 14.9134 1.33447 13.4095V9.72791C2.20536 11.9303 4.20644 13.6592 6.79346 14.8763C9.59853 16.196 13.105 16.9218 16.647 16.9984C20.1889 17.075 23.7738 16.5024 26.7358 15.2211C29.5278 14.0133 31.7735 12.1717 32.8999 9.64197V13.5756Z" stroke="#C6C6C6" stroke-width="0.2"/>
</g>
<path d="M1.23486 10.3553C5.25676 17.3315 12.8335 18.7936 23.8375 17.1798C24.4474 17.0904 25.0003 17.5595 25 18.1759L24.9998 18.7111C24.9996 19.1737 24.683 19.5775 24.2302 19.6721C16.5349 21.2797 4.64835 20.4705 1.23486 13.401V10.3553Z" fill="#A19D9D"/>
<g filter="url(#filter2_i_370_2156)">
<ellipse cx="10.0584" cy="10.6599" rx="2.94122" ry="2.13198" fill="#D9D9D9"/>
</g>
<path d="M27.5567 10.2018L27.4947 10.1596L27.4947 10.1596L27.5567 10.2018ZM27.1042 10.8662L27.1662 10.9084L27.1662 10.9084L27.1042 10.8662ZM26.7817 7.85885C26.6529 8.03834 26.694 8.28825 26.8735 8.41704C27.053 8.54584 27.3029 8.50475 27.4317 8.32527C27.5605 8.14578 27.5194 7.89587 27.3399 7.76708C27.1604 7.63828 26.9105 7.67937 26.7817 7.85885ZM24.1545 8.0213C24.0257 8.20078 24.0668 8.45069 24.2463 8.57949C24.4258 8.70829 24.6757 8.6672 24.8045 8.48772C24.9333 8.30823 24.8922 8.05832 24.7127 7.92952C24.5332 7.80073 24.2833 7.84182 24.1545 8.0213ZM27.1002 11.1679L27.0371 11.2084L27.0371 11.2084L27.1002 11.1679ZM27.5567 10.2018L27.4947 10.1596L27.0423 10.824L27.1042 10.8662L27.1662 10.9084L27.6187 10.244L27.5567 10.2018ZM27.1067 8.09206L27.063 8.15299L27.1505 8.21578L27.1942 8.15484L27.2379 8.09391L27.1504 8.03113L27.1067 8.09206ZM24.1649 8.69297L24.2258 8.7367L24.5404 8.29823L24.4795 8.25451L24.4186 8.21078L24.1039 8.64925L24.1649 8.69297ZM26.7108 11.5378L26.7546 11.4768L24.3983 9.78599L24.3546 9.84692L24.3109 9.90786L26.6671 11.5987L26.7108 11.5378ZM24.1649 8.69297L24.1039 8.64925C23.8135 9.05395 23.9062 9.61745 24.3109 9.90786L24.3546 9.84692L24.3983 9.78599C24.0609 9.54388 23.9837 9.07409 24.2258 8.7367L24.1649 8.69297ZM27.1042 10.8662L27.0423 10.824C26.9636 10.9395 26.9616 11.0908 27.0371 11.2084L27.1002 11.1679L27.1633 11.1273C27.1203 11.0604 27.1214 10.9742 27.1662 10.9084L27.1042 10.8662ZM27.1002 11.1679L27.0371 11.2084C27.1554 11.3925 26.9323 11.6044 26.7546 11.4768L26.7108 11.5378L26.6671 11.5987C26.9793 11.8227 27.371 11.4506 27.1633 11.1273L27.1002 11.1679ZM27.5567 10.2018L27.6187 10.244C28.0962 9.5427 27.9272 8.58855 27.2379 8.09391L27.1942 8.15484L27.1505 8.21578C27.7736 8.66296 27.9264 9.52556 27.4947 10.1596L27.5567 10.2018Z" fill="#C5C5C5"/>
<path d="M25.7027 9.05905C25.5739 9.23854 25.615 9.48845 25.7945 9.61725C25.974 9.74604 26.2239 9.70495 26.3527 9.52547C26.4815 9.34599 26.4404 9.09608 26.2609 8.96728C26.0814 8.83848 25.8315 8.87957 25.7027 9.05905ZM27.123 7.07981C26.9942 7.2593 27.0353 7.50921 27.2148 7.63801C27.3943 7.7668 27.6442 7.72571 27.773 7.54623C27.9018 7.36675 27.8607 7.11684 27.6812 6.98804C27.5017 6.85924 27.2518 6.90033 27.123 7.07981ZM24.7599 9.10356L24.8208 9.14728L25.7099 7.90831L25.6489 7.86458L25.588 7.82086L24.6989 9.05983L24.7599 9.10356ZM26.9579 8.71649L26.9142 8.77743L27.3882 9.11762L27.432 9.05668L27.4757 8.99575L27.0016 8.65556L26.9579 8.71649ZM26.3717 8.81287L26.3108 8.76914L25.9668 9.24854L26.0277 9.29226L26.0887 9.33599L26.4327 8.85659L26.3717 8.81287ZM26.227 7.5076L26.2388 7.58166L27.4598 7.38709L27.448 7.31302L27.4362 7.23896L26.2152 7.43353L26.227 7.5076ZM26.5213 10.663L26.565 10.602L24.8586 9.37756L24.8149 9.4385L24.7712 9.49943L26.4775 10.7239L26.5213 10.663ZM27.4908 9.41475L27.4299 9.37102L26.5441 10.6055L26.605 10.6492L26.6659 10.6929L27.5518 9.45847L27.4908 9.41475ZM26.9579 8.71649L27.0016 8.65556C26.7795 8.49616 26.4702 8.54701 26.3108 8.76914L26.3717 8.81287L26.4327 8.85659C26.5438 8.70177 26.7593 8.66633 26.9142 8.77743L26.9579 8.71649ZM24.7599 9.10356L24.6989 9.05983C24.5975 9.20118 24.6298 9.398 24.7712 9.49943L24.8149 9.4385L24.8586 9.37756C24.7846 9.32443 24.7677 9.22133 24.8208 9.14728L24.7599 9.10356ZM26.5213 10.663L26.4775 10.7239C26.5381 10.7674 26.6225 10.7535 26.6659 10.6929L26.605 10.6492L26.5441 10.6055C26.5489 10.5987 26.5583 10.5972 26.565 10.602L26.5213 10.663ZM27.432 9.05668L27.3882 9.11762C27.4697 9.17609 27.4884 9.28954 27.4299 9.37102L27.4908 9.41475L27.5518 9.45847C27.6585 9.30968 27.6245 9.10252 27.4757 8.99575L27.432 9.05668ZM25.6489 7.86458L25.7099 7.90831C25.8355 7.73319 26.026 7.61558 26.2388 7.58166L26.227 7.5076L26.2152 7.43353C25.9628 7.47375 25.737 7.61321 25.588 7.82086L25.6489 7.86458Z" fill="#A1A2A2"/>
<path d="M28.4019 6.53558L28.4759 6.52345L28.4637 6.44861L28.389 6.4617L28.4019 6.53558ZM28.6202 9.61756C28.4915 9.79705 28.5325 10.047 28.712 10.1758C28.8915 10.3046 29.1414 10.2635 29.2702 10.084C29.399 9.9045 29.3579 9.65459 29.1784 9.52579C28.999 9.39699 28.749 9.43808 28.6202 9.61756ZM24.9482 7.80613C24.9818 7.83028 25.0287 7.82257 25.0528 7.78892C25.077 7.75527 25.0693 7.70841 25.0356 7.68426L24.9482 7.80613ZM24.212 7.18556L24.2002 7.11149L24.0202 7.1402L24.1683 7.24649L24.212 7.18556ZM26.8327 6.73446C26.7919 6.74161 26.7646 6.78048 26.7718 6.82128C26.7789 6.86208 26.8178 6.88936 26.8586 6.88221L26.8327 6.73446ZM25.8915 6.99368C25.9324 6.98716 25.9603 6.94871 25.9538 6.90781C25.9472 6.86691 25.9088 6.83903 25.8679 6.84556L25.8915 6.99368ZM28.4019 6.53558L28.3279 6.54771L28.8712 9.8629L28.9452 9.85077L29.0192 9.83864L28.4759 6.52345L28.4019 6.53558ZM24.9919 7.74519L25.0356 7.68426L24.2557 7.12462L24.212 7.18556L24.1683 7.24649L24.9482 7.80613L24.9919 7.74519ZM26.8457 6.80833L26.8586 6.88221L28.4149 6.60945L28.4019 6.53558L28.389 6.4617L26.8327 6.73446L26.8457 6.80833ZM24.212 7.18556L24.2238 7.25962L25.8915 6.99368L25.8797 6.91962L25.8679 6.84556L24.2002 7.11149L24.212 7.18556Z" fill="#C5C5C5"/>
<path d="M26.8469 6.80907L27.124 6.42287L27.319 6.56281L27.5961 6.17662L27.3524 6.0017C27.3524 6.0017 27.1509 6.07655 27.0047 5.9716C26.8584 5.86664 26.8649 5.65185 26.8649 5.65185L26.6211 5.47693L26.344 5.86312L26.539 6.00306L25.8808 6.92027" stroke="#C5C5C5" stroke-width="0.15"/>
<ellipse cx="27.2137" cy="5.68362" rx="0.240024" ry="0.237669" transform="rotate(35.6631 27.2137 5.68362)" fill="#C5C5C5"/>
<path d="M27.0377 4.74244C27.0426 4.70671 27.0747 4.68089 27.1105 4.68466C27.6404 4.74044 27.9615 4.96628 28.1893 5.45749C28.2051 5.49143 28.1904 5.53151 28.1569 5.54821V5.54821C28.121 5.56613 28.0774 5.55031 28.06 5.51412C27.8466 5.06912 27.5832 4.85392 27.1035 4.82137C27.063 4.81862 27.0322 4.78264 27.0377 4.74244V4.74244Z" fill="#A1A2A2"/>
<path d="M27.1391 4.99054C27.1424 4.96672 27.1638 4.9495 27.1877 4.95199C27.5412 4.98881 27.7553 5.13937 27.907 5.46725C27.9174 5.4899 27.9076 5.51662 27.8853 5.52778V5.52778C27.8613 5.53979 27.8322 5.52921 27.8206 5.50499C27.6785 5.20815 27.503 5.06469 27.1831 5.04331C27.156 5.0415 27.1354 5.01743 27.1391 4.99054V4.99054Z" fill="#C5C5C5"/>
<path d="M27.0967 5.24033C27.101 5.223 27.1161 5.21042 27.134 5.20983C27.4297 5.20012 27.5922 5.31346 27.6802 5.60063C27.6857 5.61863 27.6783 5.63797 27.6624 5.64817V5.64817C27.6383 5.66372 27.606 5.65165 27.5967 5.6245C27.5149 5.38652 27.389 5.28049 27.1412 5.29278C27.1127 5.2942 27.0897 5.26806 27.0967 5.24033V5.24033Z" fill="#A1A2A2"/>
<defs>
<filter id="filter0_i_370_2156" x="1.23486" y="0" width="31.7651" height="17.0558" filterUnits="userSpaceOnUse" color-interpolation-filters="sRGB">
<feFlood flood-opacity="0" result="BackgroundImageFix"/>
<feBlend mode="normal" in="SourceGraphic" in2="BackgroundImageFix" result="shape"/>
<feColorMatrix in="SourceAlpha" type="matrix" values="0 0 0 0 0 0 0 0 0 0 0 0 0 0 0 0 0 0 127 0" result="hardAlpha"/>
<feOffset/>
<feGaussianBlur stdDeviation="0.55"/>
<feComposite in2="hardAlpha" operator="arithmetic" k2="-1" k3="1"/>
<feColorMatrix type="matrix" values="0 0 0 0 0 0 0 0 0 0 0 0 0 0 0 0 0 0 0.25 0"/>
<feBlend mode="normal" in2="shape" result="effect1_innerShadow_370_2156"/>
</filter>
<filter id="filter1_f_370_2156" x="0.734863" y="8.63708" width="32.7651" height="13.8828" filterUnits="userSpaceOnUse" color-interpolation-filters="sRGB">
<feFlood flood-opacity="0" result="BackgroundImageFix"/>
<feBlend mode="normal" in="SourceGraphic" in2="BackgroundImageFix" result="shape"/>
<feGaussianBlur stdDeviation="0.25" result="effect1_foregroundBlur_370_2156"/>
</filter>
<filter id="filter2_i_370_2156" x="7.11719" y="8.52795" width="5.88232" height="4.26392" filterUnits="userSpaceOnUse" color-interpolation-filters="sRGB">
<feFlood flood-opacity="0" result="BackgroundImageFix"/>
<feBlend mode="normal" in="SourceGraphic" in2="BackgroundImageFix" result="shape"/>
<feColorMatrix in="SourceAlpha" type="matrix" values="0 0 0 0 0 0 0 0 0 0 0 0 0 0 0 0 0 0 127 0" result="hardAlpha"/>
<feOffset dy="-0.5"/>
<feComposite in2="hardAlpha" operator="arithmetic" k2="-1" k3="1"/>
<feColorMatrix type="matrix" values="0 0 0 0 0 0 0 0 0 0 0 0 0 0 0 0 0 0 0.25 0"/>
<feBlend mode="normal" in2="shape" result="effect1_innerShadow_370_2156"/>
</filter>
</defs>
</svg>
